<?xml version="1.0" standalone="no"?>
<!DOCTYPE svg PUBLIC "-//W3C//DTD SVG 1.1//EN" "http://www.w3.org/Graphics/SVG/1.1/DTD/svg11.dtd">
<svg xmlns="http://www.w3.org/2000/svg">
<metadata>Generated by Fontastic.me</metadata>
<defs>
<font id="font-type" horiz-adv-x="512">
<font-face font-family="font-type" units-per-em="512" ascent="480" descent="-32"/>
<missing-glyph horiz-adv-x="512" />

<glyph unicode="&#97;" d="M107 67l0 376c0 10 8 18 17 18l153 0l130-131l0-263c0-10-7-18-17-18l-266 0c-9 0-17 8-17 18z m170 394l130-131l-113 0c-9 0-17 8-17 17z m-97-301l26-63l-10 0l-6 16l-28 0l-6-16l-9 0l25 63z m-15-39l22 0l-11 28z m57 39l0-63l-9 0l0 63z m49 0l0-8l-27 0l0-21l25 0l0-7l-25 0l0-27l-8 0l0 63z m45 0l0-8l-26 0l0-21l24 0l0-7l-24 0l0-27l-9 0l0 63z"/>
<glyph unicode="&#98;" d="M107 67l0 376c0 10 8 18 17 18l153 0l130-131l0-263c0-10-7-18-17-18l-266 0c-9 0-17 8-17 18z m170 394l130-131l-113 0c-9 0-17 8-17 17z m-80-346c0-6-3-11-7-14c-4-3-9-4-16-4l-20 0l0 63l17 0c6 0 11-1 15-3c4-3 6-7 6-13c0-3-1-6-2-9c-2-2-5-4-7-5l0 0c4-1 7-3 10-5c2-3 4-6 4-10z m-14 28c0 4-1 6-4 8c-2 1-5 2-8 2l-9 0l0-20l8 0c4 0 8 0 9 2c3 2 4 4 4 8z m5-28c0 4-2 7-5 9c-2 1-6 2-11 2l-10 0l0-22l10 0c5 0 9 1 11 2c3 2 5 5 5 9z m46 45l25-63l-9 0l-7 16l-27 0l-6-16l-10 0l26 63z m-15-39l22 0l-11 28z m86 39l0-8l-18 0l0-55l-9 0l0 55l-18 0l0 8z"/>
<glyph unicode="&#99;" d="M107 67l0 376c0 10 8 18 17 18l153 0l130-131l0-263c0-10-7-18-17-18l-266 0c-9 0-17 8-17 18z m170 394l130-131l-113 0c-9 0-17 8-17 17z m-76-350l4-6c-5-6-13-9-23-9c-9 0-17 3-23 9c-6 6-9 13-9 23c0 10 3 18 9 24c6 6 14 9 23 9c9 0 17-3 23-9l-4-7c-2 2-4 4-7 5c-4 2-7 3-11 3c-7 0-13-2-17-7c-5-4-7-10-7-18c0-7 2-13 7-17c4-5 10-7 17-7c7 0 14 2 18 7z m52 31c0-6-2-10-6-14c-3-3-8-4-15-4l-9 0l0-27l-9 0l0 63l18 0c7 0 12-2 15-5c4-3 6-8 6-13z m-13-9c3 2 4 5 4 9c0 3-1 6-4 8c-2 2-5 2-9 2l-8 0l0-21l8 0c4 0 7 1 9 2z m62 9c0-6-2-10-6-14c-4-3-9-4-16-4l-8 0l0-27l-9 0l0 63l17 0c7 0 12-2 16-5c4-3 6-8 6-13z m-13-9c2 2 4 5 4 9c0 3-2 6-4 8c-2 2-6 2-9 2l-8 0l0-21l8 0c4 0 7 1 9 2z"/>
<glyph unicode="&#100;" d="M107 67l0 376c0 10 8 18 17 18l153 0l130-131l0-263c0-10-7-18-17-18l-266 0c-9 0-17 8-17 18z m170 394l130-131l-113 0c-9 0-17 8-17 17z m-81-309c7-6 10-14 10-24c0-9-3-17-10-23c-6-6-14-8-23-8l-19 0l0 63l19 0c9 0 17-3 23-8z m1-24c0 8-3 14-8 18c-4 4-9 6-16 6l-11 0l0-48l11 0c7 0 12 2 16 6c5 5 8 11 8 18z m57 32l10 0l-24-63l-7 0l-24 63l10 0l18-50z m52 0l0-8l-27 0l0-21l25 0l0-7l-25 0l0-27l-8 0l0 63z"/>
<glyph unicode="&#101;" d="M107 67l0 376c0 10 8 18 17 18l153 0l130-131l0-263c0-10-7-18-17-18l-266 0c-9 0-17 8-17 18z m170 394l130-131l-113 0c-9 0-17 8-17 17z m-81-309c7-6 10-14 10-24c0-9-3-17-10-23c-6-6-14-8-23-8l-19 0l0 63l19 0c9 0 17-3 23-8z m1-24c0 8-3 14-8 18c-4 4-9 6-16 6l-11 0l0-48l11 0c7 0 12 2 16 6c5 5 8 11 8 18z m58-14c0-5-2-10-7-13c-4-4-9-5-15-5c-3 0-5 0-8 1c-2 0-4 1-6 3c-1 1-3 2-4 3c-1 1-2 2-3 3l6 6c1-2 4-4 7-6c2-2 5-3 9-3c3 0 6 1 8 3c3 2 4 4 4 8c0 1 0 3-1 4c-1 1-2 2-3 3c-2 1-3 1-3 2c-1 0-2 1-3 1c-5 2-9 3-10 4c-3 1-5 3-7 5c-2 3-4 6-4 11c0 5 2 9 6 12c4 3 8 5 14 5c7 0 13-3 19-9l-5-6c-4 5-9 7-14 7c-3 0-6-1-8-2c-2-2-3-4-3-7c0-1 0-2 1-3c0-1 1-2 2-3c1-1 1-1 2-2c1 0 2-1 3-1l12-5c3-1 5-3 7-5c2-3 4-7 4-11z m48 0c0-5-2-10-6-13c-4-4-9-5-16-5c-2 0-5 0-7 1c-2 0-4 1-6 3c-2 1-3 2-4 3c-1 1-2 2-3 3l5 6c2-2 4-4 7-6c3-2 6-3 9-3c4 0 7 1 9 3c2 2 4 4 4 8c0 1-1 3-1 4c-1 1-2 2-3 3c-2 1-3 1-4 2c0 0-1 1-3 1c-5 2-8 3-10 4c-2 1-4 3-6 5c-3 3-4 6-4 11c0 5 2 9 6 12c3 3 8 5 14 5c7 0 13-3 18-9l-4-6c-5 5-9 7-14 7c-3 0-6-1-8-2c-2-2-3-4-3-7c0-1 0-2 0-3c1-1 2-2 2-3c1-1 2-1 3-2c1 0 2-1 3-1l11-5c4-1 6-3 8-5c2-3 3-7 3-11z"/>
<glyph unicode="&#102;" d="M107 67l0 376c0 10 8 18 17 18l153 0l130-131l0-263c0-10-7-18-17-18l-266 0c-9 0-17 8-17 18z m170 394l130-131l-113 0c-9 0-17 8-17 17z m-97-301l26-63l-10 0l-6 16l-28 0l-6-16l-9 0l25 63z m-15-39l22 0l-11 28z m57 39l0-63l-9 0l0 63z m49 0l0-8l-27 0l0-21l25 0l0-7l-25 0l0-27l-8 0l0 63z m45 0l0-8l-26 0l0-21l24 0l0-7l-24 0l0-27l-9 0l0 63z"/>
<glyph unicode="&#103;" d="M107 67l0 376c0 10 8 18 17 18l153 0l130-131l0-263c0-10-7-18-17-18l-266 0c-9 0-17 8-17 18z m170 394l130-131l-113 0c-9 0-17 8-17 17z m-81-309c7-6 10-14 10-24c0-9-3-17-10-23c-6-6-14-8-23-8l-19 0l0 63l19 0c9 0 17-3 23-8z m1-24c0 8-3 14-8 18c-4 4-9 6-16 6l-11 0l0-48l11 0c7 0 12 2 16 6c5 5 8 11 8 18z m50-24l0-7l-31 0l0 63l9 0l0-56z m39 0l0-7l-31 0l0 63l9 0l0-56z"/>
<glyph unicode="&#104;" d="M107 67l0 376c0 10 8 18 17 18l153 0l130-131l0-263c0-10-7-18-17-18l-266 0c-9 0-17 8-17 18z m170 394l130-131l-113 0c-9 0-17 8-17 17z m-86-357l0-7l-37 0l0 63l36 0l0-8l-28 0l0-19l27 0l0-7l-27 0l0-22z m50 38c0-6-2-10-6-14c-3-3-9-4-15-4l-9 0l0-27l-9 0l0 63l18 0c6 0 12-2 15-5c4-3 6-8 6-13z m-13-9c3 2 4 5 4 9c0 3-1 6-4 8c-2 2-5 2-9 2l-8 0l0-21l8 0c4 0 7 1 9 2z m70 27l0-38c0-4 0-8-1-11c-1-3-2-5-4-8c-4-5-11-7-19-7c-8 0-14 2-19 7c-2 3-3 5-4 8c-1 3-1 7-1 11l0 38l9 0l0-37c0-2 0-4 0-5c0-1 0-3 1-5c0-1 1-3 2-4c3-4 7-5 12-5c5 0 9 1 12 5c1 1 2 3 2 4c1 2 1 4 1 5c0 1 0 3 0 5l0 37z m57-45c0-6-3-11-7-14c-4-3-9-4-16-4l-21 0l0 63l17 0c7 0 12-1 15-3c5-3 7-7 7-13c0-3-1-6-3-9c-1-2-4-4-6-5l0 0c4-1 7-3 10-5c2-3 4-6 4-10z m-14 28c0 4-1 6-4 8c-2 1-5 2-9 2l-8 0l0-20l8 0c4 0 7 0 9 2c3 2 4 4 4 8z m4-28c0 4-1 7-4 9c-2 1-6 2-11 2l-10 0l0-22l10 0c5 0 9 1 11 2c3 2 4 5 4 9z"/>
<glyph unicode="&#105;" d="M107 67l0 376c0 10 8 18 17 18l153 0l130-131l0-263c0-10-7-18-17-18l-266 0c-9 0-17 8-17 18z m170 394l130-131l-113 0c-9 0-17 8-17 17z m-72-301l0-63l-9 0l0 29l-34 0l0-29l-8 0l0 63l8 0l0-26l34 0l0 26z m75-32c0-9-3-17-9-23l7-8l-5-5l-8 8c-5-3-11-4-17-4c-9 0-17 3-23 9c-7 5-10 13-10 23c0 10 3 18 10 24c6 6 14 9 23 9c9 0 17-3 23-9c6-6 9-14 9-24z m-9 0c0 8-2 14-7 18c-4 5-10 7-16 7c-7 0-12-2-17-7c-4-4-7-10-7-18c0-7 3-13 7-18c5-4 10-6 17-6c4 0 8 1 12 3l-6 6l6 5l6-6c3 4 5 10 5 16z m45 1l21-32l-11 0l-16 26l-16-26l-11 0l21 32l-19 31l10 0l15-25l15 25l10 0z"/>
<glyph unicode="&#106;" d="M107 67l0 376c0 10 8 18 17 18l153 0l130-131l0-263c0-10-7-18-17-18l-266 0c-9 0-17 8-17 18z m170 394l130-131l-113 0c-9 0-17 8-17 17z m-62-301l6-63l-9 0l-4 49l-1 0l-19-50l-5 0l-19 50l0 0l-4-49l-9 0l5 63l11 0l19-49l0 0l18 49z m64-49l4-6c-5-6-13-9-23-9c-9 0-17 3-23 9c-6 6-9 13-9 23c0 10 3 18 9 24c6 6 14 9 23 9c9 0 17-3 23-9l-4-7c-2 2-4 4-7 5c-4 2-7 3-11 3c-7 0-13-2-17-7c-5-4-7-10-7-18c0-7 2-13 7-17c4-5 10-7 17-7c7 0 14 2 18 7z m56 41c6-6 10-14 10-24c0-9-4-17-10-23c-6-6-14-8-24-8l-19 0l0 63l19 0c10 0 18-3 24-8z m0-24c0 8-2 14-7 18c-4 4-10 6-17 6l-10 0l0-48l10 0c7 0 13 2 17 6c5 5 7 11 7 18z"/>
<glyph unicode="&#107;" d="M107 67l0 376c0 10 8 18 17 18l153 0l130-131l0-263c0-10-7-18-17-18l-266 0c-9 0-17 8-17 18z m170 394l130-131l-113 0c-9 0-17 8-17 17z m-71-309c6-6 9-14 9-24c0-10-3-18-9-23c-7-6-14-9-23-9c-10 0-17 3-24 9c-6 5-9 13-9 23c0 10 3 18 9 24c7 6 14 9 24 9c9 0 16-3 23-9z m-7-42c5 5 7 11 7 18c0 8-2 14-7 18c-4 5-10 7-16 7c-7 0-13-2-17-7c-5-4-7-10-7-18c0-7 2-13 7-18c4-4 10-6 17-6c6 0 12 2 16 6z m64 50l0-8l-17 0l0-55l-9 0l0 55l-18 0l0 8z m56-49l4-6c-6-6-13-9-23-9c-10 0-17 3-23 9c-6 6-9 13-9 23c0 10 3 18 9 24c6 6 14 9 23 9c9 0 16-3 22-9l-4-7c-1 2-3 4-7 5c-3 2-7 3-11 3c-7 0-12-2-17-7c-4-4-6-10-6-18c0-7 2-13 6-17c5-5 10-7 17-7c8 0 14 2 19 7z"/>
<glyph unicode="&#108;" d="M107 67l0 376c0 10 8 18 17 18l153 0l130-131l0-263c0-10-7-18-17-18l-266 0c-9 0-17 8-17 18z m170 394l130-131l-113 0c-9 0-17 8-17 17z m-86-321c0-6-2-10-6-13c-4-3-8-4-15-4l-8 0l0-26l-9 0l0 60l17 0c7 0 11-1 15-4c4-4 6-8 6-13z m-13-8c3 2 4 4 4 8c0 3-1 6-4 8c-2 1-5 2-8 2l-8 0l0-21l8 0c3 0 6 1 8 3z m67-21l4-6c-5-6-12-9-22-9c-9 0-16 3-22 8c-6 6-9 14-9 23c0 9 3 17 9 22c6 6 13 9 22 9c9 0 16-3 22-8l-4-7c-1 2-4 4-7 5c-3 2-7 2-11 2c-6 0-11-2-16-6c-4-4-6-10-6-17c0-7 2-13 6-17c5-4 10-7 16-7c8 0 14 3 18 8z m37 17l20-31l-10 0l-16 25l-15-25l-10 0l20 31l-19 29l10 0l14-23l14 23l10 0z"/>
<glyph unicode="&#109;" d="M107 67l0 376c0 10 8 18 17 18l153 0l130-131l0-263c0-10-7-18-17-18l-266 0c-9 0-17 8-17 18z m170 394l130-131l-113 0c-9 0-17 8-17 17z m-84-319c0-6-2-10-6-14c-4-3-9-4-16-4l-9 0l0-27l-8 0l0 63l17 0c7 0 12-2 16-5c4-3 6-8 6-13z m-13-9c2 2 3 5 3 9c0 3-1 6-3 8c-3 2-6 3-9 3l-9 0l0-22l9 0c3 0 6 1 9 2z m61 9c0-6-2-10-6-14c-3-3-9-4-15-4l-9 0l0-27l-9 0l0 63l18 0c6 0 12-2 15-5c4-3 6-8 6-13z m-13-9c3 2 4 5 4 9c0 3-1 6-4 8c-2 2-5 3-9 3l-8 0l0-22l8 0c4 0 7 1 9 2z m61-19c0-5-2-10-7-13c-4-4-9-5-15-5c-3 0-5 0-7 1c-2 0-5 1-6 3c-2 1-3 2-4 3c-1 1-2 2-3 3l5 6c2-2 4-4 7-6c3-2 6-3 9-3c3 0 6 1 9 3c2 2 3 4 3 8c0 1 0 3-1 4c0 1-2 2-3 3c-1 1-2 1-3 2c-1 0-2 1-3 1c-5 2-8 3-10 4c-3 1-5 3-6 5c-3 3-4 6-4 11c0 5 1 9 5 12c4 3 9 5 15 5c7 0 13-3 18-9l-5-6c-4 5-9 7-14 7c-3 0-6-1-8-2c-2-2-3-4-3-7c0-1 1-2 1-3c0-1 1-2 2-3c1-1 2-1 3-2c0 0 1-1 3-1l11-5c3-1 6-3 7-5c3-3 4-7 4-11z"/>
<glyph unicode="&#110;" d="M107 67l0 376c0 10 8 18 17 18l153 0l130-131l0-263c0-10-7-18-17-18l-266 0c-9 0-17 8-17 18z m170 394l130-131l-113 0c-9 0-17 8-17 17z m-85-301l0-8l-18 0l0-55l-9 0l0 55l-18 0l0 8z m33-31l20-32l-10 0l-16 26l-16-26l-11 0l21 32l-19 31l10 0l15-25l14 25l11 0z m65 31l0-8l-17 0l0-55l-9 0l0 55l-18 0l0 8z"/>
<glyph unicode="&#111;" d="M107 67l0 376c0 10 8 18 17 18l153 0l130-131l0-263c0-10-7-18-17-18l-266 0c-9 0-17 8-17 18z m170 394l130-131l-113 0c-9 0-17 8-17 17z m-85-301l9 0l-23-63l-8 0l-23 63l9 0l18-50z m68-8c6-6 9-14 9-24c0-10-3-18-9-23c-6-6-14-9-23-9c-9 0-17 3-23 9c-6 5-10 13-10 23c0 10 4 18 10 24c6 6 14 9 23 9c9 0 17-3 23-9z m-6-42c4 5 6 11 6 18c0 8-2 14-6 18c-5 5-10 7-17 7c-7 0-12-2-17-7c-4-4-7-10-7-18c0-7 3-13 7-18c5-4 10-6 17-6c7 0 12 2 17 6z m69 5c0-6-2-11-7-14c-3-3-9-4-16-4l-20 0l0 63l17 0c7 0 12-1 15-3c4-3 6-7 6-13c0-3 0-6-2-9c-2-2-4-4-7-5l0 0c4-1 8-3 10-5c3-3 4-6 4-10z m-13 28c0 4-2 6-5 8c-2 1-5 2-8 2l-8 0l0-20l7 0c5 0 8 0 9 2c3 2 5 4 5 8z m4-28c0 4-2 7-5 9c-2 1-6 2-11 2l-9 0l0-22l9 0c5 0 9 1 11 2c3 2 5 5 5 9z"/>
<glyph unicode="&#112;" d="M107 67l0 376c0 10 8 18 17 18l153 0l130-131l0-263c0-10-7-18-17-18l-266 0c-9 0-17 8-17 18z m170 394l130-131l-113 0c-9 0-17 8-17 17z m-98-332l21-32l-11 0l-16 26l-16-26l-10 0l20 32l-19 31l10 0l15-25l15 25l10 0z m58-25l0-7l-31 0l0 63l9 0l0-56z m47 10c0-5-2-10-7-13c-4-4-9-5-15-5c-3 0-5 0-7 1c-3 0-5 1-6 3c-2 1-4 2-4 3c-1 1-2 2-3 3l5 6c2-2 4-4 7-6c3-2 6-3 9-3c3 0 6 1 9 3c2 2 3 4 3 8c0 1 0 3-1 4c-1 1-2 2-3 3c-1 1-2 1-3 2c-1 0-2 1-3 1c-5 2-8 3-10 4c-3 1-5 3-7 5c-2 3-4 6-4 11c0 5 2 9 6 12c4 3 9 5 15 5c6 0 13-3 18-9l-5-6c-4 5-9 7-14 7c-3 0-6-1-8-2c-2-2-3-4-3-7c0-1 0-2 1-3c0-1 1-2 2-3c1-1 2-1 2-2c1 0 2-1 3-1l12-5c3-1 5-3 7-5c3-3 4-7 4-11z m35 15l21-32l-10 0l-16 26l-16-26l-11 0l21 32l-19 31l10 0l15-25l14 25l11 0z"/>
<glyph unicode="&#113;" d="M107 67l0 376c0 10 8 18 17 18l153 0l130-131l0-263c0-10-7-18-17-18l-266 0c-9 0-17 8-17 18z m170 394l130-131l-113 0c-9 0-17 8-17 17z m-70-301l0-63l-9 0l-36 50c0-6 0-11 0-17l0-33l-8 0l0 63l9 0l36-50c0 5-1 11-1 16l0 34z m52-56l0-7l-38 0l0 63l37 0l0-8l-28 0l0-19l26 0l0-7l-26 0l0-22z m49 56l0-8l-18 0l0-55l-9 0l0 55l-18 0l0 8z"/>
<glyph unicode="&#114;" d="M107 67l0 376c0 10 8 18 17 18l153 0l130-131l0-263c0-10-7-18-17-18l-266 0c-9 0-17 8-17 18z m170 394l130-131l-113 0c-9 0-17 8-17 17z m-99-336l18-28l-10 0l-17 27l-7 0l0-27l-8 0l0 63l17 0c7 0 12-2 16-5c4-3 6-7 6-13c0-5-2-9-5-12c-2-3-6-5-10-5z m5 17c0 4-1 6-4 8c-2 2-5 2-10 2l-7 0l0-21l7 0c5 0 8 1 10 2c3 2 4 5 4 9z m58 18l0-8l-18 0l0-55l-9 0l0 55l-17 0l0 8z m43 0l0-8l-27 0l0-21l25 0l0-7l-25 0l0-27l-8 0l0 63z"/>
<glyph unicode="&#115;" d="M107 67l0 376c0 10 8 18 17 18l153 0l130-131l0-263c0-10-7-18-17-18l-266 0c-9 0-17 8-17 18z m170 394l130-131l-113 0c-9 0-17 8-17 17z m-85-301l9 0l-23-63l-8 0l-23 63l9 0l18-50z m64-49l4-6c-6-6-14-9-23-9c-10 0-17 3-23 9c-7 6-10 13-10 23c0 10 3 18 10 24c6 6 13 9 23 9c9 0 16-3 22-9l-4-7c-1 2-4 4-7 5c-3 2-7 3-11 3c-7 0-12-2-17-7c-4-4-6-10-6-18c0-7 2-13 6-17c5-5 10-7 17-7c8 0 14 2 19 7z m55 41c7-6 10-14 10-24c0-9-3-17-10-23c-6-6-14-8-23-8l-19 0l0 63l19 0c9 0 17-3 23-8z m1-24c0 8-3 14-8 18c-4 4-9 6-16 6l-10 0l0-48l10 0c7 0 12 2 16 6c5 5 8 11 8 18z"/>
<glyph unicode="&#116;" d="M107 67l0 376c0 10 8 18 17 18l153 0l130-131l0-263c0-10-7-18-17-18l-266 0c-9 0-17 8-17 18z m170 394l130-131l-113 0c-9 0-17 8-17 17z m-80-346c0-6-3-11-7-14c-4-3-9-4-16-4l-20 0l0 63l17 0c6 0 11-1 15-3c4-3 6-7 6-13c0-3-1-6-2-9c-2-2-5-4-7-5l0 0c4-1 7-3 10-5c2-3 4-6 4-10z m-14 28c0 4-1 6-4 8c-2 1-5 2-8 2l-9 0l0-20l8 0c4 0 8 0 9 2c3 2 4 4 4 8z m5-28c0 4-2 7-5 9c-2 1-6 2-11 2l-10 0l0-22l10 0c5 0 9 1 11 2c3 2 5 5 5 9z m67 45l0-38c0-4-1-8-1-11c-1-3-2-5-4-8c-5-5-11-7-19-7c-8 0-15 2-19 7c-2 3-4 5-4 8c-1 3-1 7-1 11l0 38l9 0l0-37c0-2 0-4 0-5c0-1 0-3 1-5c0-1 1-3 2-4c2-4 6-5 12-5c5 0 9 1 12 5c1 1 1 3 2 4c0 2 1 4 1 5c0 1 0 3 0 5l0 37z m52-18c0-6-2-10-6-14c-3-3-8-4-15-4l-9 0l0-27l-9 0l0 63l18 0c7 0 12-2 15-5c4-3 6-8 6-13z m-13-9c3 2 4 5 4 9c0 3-1 6-4 8c-2 2-5 2-9 2l-8 0l0-21l8 0c4 0 7 1 9 2z"/>
<glyph unicode="&#117;" d="M107 67l0 376c0 10 8 18 17 18l153 0l130-131l0-263c0-10-7-18-17-18l-266 0c-9 0-17 8-17 18z m170 394l130-131l-113 0c-9 0-17 8-17 17z m-97-301l26-63l-10 0l-6 16l-28 0l-6-16l-9 0l25 63z m-15-39l22 0l-11 28z m57 39l0-63l-9 0l0 63z m49 0l0-8l-27 0l0-21l25 0l0-7l-25 0l0-27l-8 0l0 63z"/>
<glyph unicode="&#118;" d="M107 67l0 376c0 10 8 18 17 18l153 0l130-131l0-263c0-10-7-18-17-18l-266 0c-9 0-17 8-17 18z m170 394l130-131l-113 0c-9 0-17 8-17 17z m-97-301l26-63l-10 0l-6 16l-28 0l-6-16l-9 0l25 63z m-15-39l22 0l-11 28z m86 39l9 0l-23-63l-8 0l-23 63l10 0l17-50z m25 0l0-63l-9 0l0 63z"/>
<glyph unicode="&#119;" d="M107 67l0 376c0 10 8 18 17 18l153 0l130-131l0-263c0-10-7-18-17-18l-266 0c-9 0-17 8-17 18z m170 394l130-131l-113 0c-9 0-17 8-17 17z m-87-304l0-7l-17 0l0-53l-9 0l0 53l-17 0l0 7z m60-28l0-24c-6-6-15-9-26-9c-8 0-16 3-22 8c-5 6-8 14-8 23c0 9 3 17 8 22c6 6 14 9 22 9c10 0 18-3 24-10l1-1l-6-5c-5 6-11 9-19 9c-6 0-11-2-15-7c-5-4-7-10-7-17c0-7 3-13 7-17c4-5 9-7 16-7c7 0 13 2 16 5l1 1l0 13l-16 0l0 7z m38 28l24-60l-9 0l-6 15l-26 0l-6-15l-9 0l24 60z m-15-37l21 0l-10 27z"/>
<glyph unicode="&#120;" d="M107 67l0 376c0 10 8 18 17 18l153 0l130-131l0-263c0-10-7-18-17-18l-266 0c-9 0-17 8-17 18z m170 394l130-131l-113 0c-9 0-17 8-17 17z m-85-347c0-5-2-10-6-13c-5-4-10-5-16-5c-2 0-5 0-7 1c-2 0-4 1-6 3c-2 1-3 2-4 3c-1 1-2 2-3 3l5 6c2-2 4-4 7-6c3-2 6-3 9-3c3 0 6 1 9 3c2 2 3 4 3 8c0 1 0 3-1 4c0 1-1 2-3 3c-1 1-2 1-3 2c-1 0-2 1-3 1c-5 2-8 3-10 4c-3 1-5 3-6 5c-3 3-4 6-4 11c0 5 1 9 5 12c4 3 9 5 15 5c7 0 13-3 18-9l-5-6c-4 5-9 7-14 7c-3 0-5-1-8-2c-2-2-3-4-3-7c0-1 1-2 1-3c1-1 1-2 2-3c1-1 2-1 3-2c0 0 1-1 3-1l11-5c3-1 6-3 7-5c3-3 4-7 4-11z m78 46l10 0l-18-63l-9 0l-15 51l-15-51l-9 0l-18 63l9 0l14-50l14 50l9 0l15-50z m52 0l0-8l-26 0l0-21l25 0l0-7l-25 0l0-27l-9 0l0 63z"/>
<glyph unicode="&#121;" d="M107 67l0 376c0 10 8 18 17 18l153 0l130-131l0-263c0-10-7-18-17-18l-266 0c-9 0-17 8-17 18z m170 394l130-131l-113 0c-9 0-17 8-17 17z m-85-347c0-5-2-10-6-13c-5-4-10-5-16-5c-2 0-5 0-7 1c-2 0-4 1-6 3c-2 1-3 2-4 3c-1 1-2 2-3 3l5 6c2-2 4-4 7-6c3-2 6-3 9-3c3 0 6 1 9 3c2 2 3 4 3 8c0 1 0 3-1 4c0 1-1 2-3 3c-1 1-2 1-3 2c-1 0-2 1-3 1c-5 2-8 3-10 4c-3 1-5 3-6 5c-3 3-4 6-4 11c0 5 1 9 5 12c4 3 9 5 15 5c7 0 13-3 18-9l-5-6c-4 5-9 7-14 7c-3 0-5-1-8-2c-2-2-3-4-3-7c0-1 1-2 1-3c1-1 1-2 2-3c1-1 2-1 3-2c0 0 1-1 3-1l11-5c3-1 6-3 7-5c3-3 4-7 4-11z m48-10l0-7l-38 0l0 63l37 0l0-8l-28 0l0-19l27 0l0-7l-27 0l0-22z m37 56l26-63l-10 0l-6 16l-27 0l-7-16l-9 0l26 63z m-15-39l22 0l-11 28z"/>
<glyph unicode="&#122;" d="M107 67l0 376c0 10 8 18 17 18l153 0l130-131l0-263c0-10-7-18-17-18l-266 0c-9 0-17 8-17 18z m170 394l130-131l-113 0c-9 0-17 8-17 17z m-99-336l18-28l-10 0l-17 27l-7 0l0-27l-8 0l0 63l17 0c7 0 12-2 16-5c4-3 6-7 6-13c0-5-2-9-5-12c-2-3-6-5-10-5z m5 17c0 4-1 6-4 8c-2 2-5 2-10 2l-7 0l0-21l7 0c5 0 8 1 10 2c3 2 4 5 4 9z m46 18l26-63l-10 0l-6 16l-27 0l-7-16l-9 0l26 63z m-15-39l22 0l-11 28z m109 39l6-63l-9 0l-4 49l0 0l-19-50l-5 0l-20 50l0 0l-4-49l-9 0l6 63l11 0l18-49l0 0l19 49z"/>
<glyph unicode="&#65;" d="M107 67l0 376c0 10 8 18 17 18l153 0l130-131l0-263c0-10-7-18-17-18l-266 0c-9 0-17 8-17 18z m170 394l130-131l-113 0c-9 0-17 8-17 17z m-115-301l0-63c0-6-1-11-2-13c-3-4-6-6-11-6c-1 0-2 1-3 1c-1 0-2 0-2 0c-1 0-1 0-1 1l0 6c1 0 3 0 5 0c2 0 4 1 4 2c1 2 2 5 2 9l0 63z m53-46c0-5-2-10-7-13c-4-4-9-5-15-5c-3 0-5 0-7 1c-3 0-5 1-7 3c-1 1-3 2-4 3c0 1-1 2-3 3l6 6c1-2 4-4 7-6c2-2 5-3 9-3c3 0 6 1 8 3c3 2 4 4 4 8c0 1 0 3-1 4c-1 1-2 2-3 3c-1 1-3 1-3 2c-1 0-2 1-3 1c-5 2-9 3-10 4c-3 1-5 3-7 5c-2 3-4 6-4 11c0 5 2 9 6 12c4 3 9 5 15 5c6 0 12-3 18-9l-5-6c-4 5-9 7-14 7c-3 0-6-1-8-2c-2-2-3-4-3-7c0-1 0-2 1-3c0-1 1-2 2-3c1-1 2-1 2-2c1 0 2-1 3-1l12-5c3-1 5-3 7-5c3-3 4-7 4-11z"/>
<glyph unicode="&#66;" d="M107 67l0 376c0 10 8 18 17 18l153 0l130-131l0-263c0-10-7-18-17-18l-266 0c-9 0-17 8-17 18z m170 394l130-131l-113 0c-9 0-17 8-17 17z m-71-309c6-6 9-14 9-24c0-10-3-18-9-23c-7-6-14-9-23-9c-10 0-17 3-24 9c-6 5-9 13-9 23c0 10 3 18 9 24c7 6 14 9 24 9c9 0 16-3 23-9z m-7-42c5 5 7 11 7 18c0 8-2 14-7 18c-4 5-10 7-16 7c-7 0-13-2-17-7c-5-4-7-10-7-18c0-7 2-13 7-18c4-4 10-6 17-6c6 0 12 2 16 6z m82 20l0-24c-7-7-16-10-27-10c-9 0-17 3-23 9c-6 6-9 14-9 23c0 10 3 18 9 24c6 6 14 9 23 9c10 0 18-4 25-11l0 0l-6-6c-5 6-11 9-19 9c-7 0-12-2-17-7c-4-4-6-10-6-18c0-7 2-13 7-18c4-4 10-7 16-7c8 0 14 2 17 5l1 1l0 14l-17 0l0 7z m68 0l0-24c-7-7-16-10-27-10c-9 0-17 3-23 9c-6 6-9 14-9 23c0 10 3 18 9 24c6 6 14 9 23 9c10 0 19-4 25-11l0 0l-6-6c-5 6-11 9-19 9c-7 0-12-2-16-7c-5-4-7-10-7-18c0-7 2-13 7-18c4-4 10-7 17-7c7 0 13 2 17 5l0 1l0 14l-17 0l0 7z"/>
<glyph unicode="&#67;" d="M107 67l0 376c0 10 8 18 17 18l153 0l130-131l0-263c0-10-7-18-17-18l-266 0c-9 0-17 8-17 18z m170 394l130-131l-113 0c-9 0-17 8-17 17z m-71-309c6-6 9-14 9-24c0-10-3-18-9-23c-7-6-14-9-23-9c-10 0-17 3-24 9c-6 5-9 13-9 23c0 10 3 18 9 24c7 6 14 9 24 9c9 0 16-3 23-9z m-7-42c5 5 7 11 7 18c0 8-2 14-7 18c-4 5-10 7-16 7c-7 0-13-2-17-7c-5-4-7-10-7-18c0-7 2-13 7-18c4-4 10-6 17-6c6 0 12 2 16 6z m69 42c6-6 10-14 10-24c0-9-4-17-10-23c-6-6-14-8-24-8l-19 0l0 63l19 0c10 0 18-3 24-8z m1-24c0 8-3 14-8 18c-4 4-10 6-17 6l-10 0l0-48l10 0c7 0 13 2 17 6c5 5 8 11 8 18z m62-13c0-6-2-11-7-14c-3-3-8-4-16-4l-20 0l0 63l17 0c7 0 12-1 15-3c4-3 7-7 7-13c0-3-1-6-3-9c-2-2-4-4-7-5l0 0c4-1 8-3 10-5c3-3 4-6 4-10z m-13 28c0 4-2 6-4 8c-2 1-5 2-9 2l-8 0l0-20l7 0c5 0 8 0 10 2c2 2 4 4 4 8z m4-28c0 4-2 7-5 9c-2 1-6 2-11 2l-9 0l0-22l9 0c6 0 9 1 11 2c3 2 5 5 5 9z"/>
<glyph unicode="&#68;" d="M107 67l0 376c0 10 8 18 17 18l153 0l130-131l0-263c0-10-7-18-17-18l-266 0c-9 0-17 8-17 18z m170 394l130-131l-113 0c-9 0-17 8-17 17z m-88-301l0-8l-27 0l0-21l25 0l0-7l-25 0l0-27l-8 0l0 63z m41-56l0-7l-31 0l0 63l8 0l0-56z m34 56l26-63l-10 0l-6 16l-28 0l-6-16l-9 0l25 63z m-15-39l22 0l-11 28z"/>
<glyph unicode="&#69;" d="M107 67l0 376c0 10 8 18 17 18l153 0l130-131l0-263c0-10-7-18-17-18l-266 0c-9 0-17 8-17 18z m170 394l130-131l-113 0c-9 0-17 8-17 17z m-81-309c7-6 10-14 10-24c0-9-3-17-10-23c-6-6-14-8-23-8l-19 0l0 63l19 0c9 0 17-3 23-8z m1-24c0 8-3 14-8 18c-4 4-9 6-16 6l-11 0l0-48l11 0c7 0 12 2 16 6c5 5 8 11 8 18z m28 32l0-63l-9 0l0 63z m52 0l9 0l-23-63l-8 0l-23 63l10 0l17-50z m41-31l21-32l-10 0l-16 26l-16-26l-11 0l21 32l-19 31l10 0l15-25l14 25l11 0z"/>
<glyph unicode="&#70;" d="M107 67l0 376c0 10 8 18 17 18l153 0l130-131l0-263c0-10-7-18-17-18l-266 0c-9 0-17 8-17 18z m170 394l130-131l-113 0c-9 0-17 8-17 17z m-86-357l0-7l-37 0l0 63l36 0l0-8l-28 0l0-19l27 0l0-7l-27 0l0-22z m72 56l6-63l-9 0l-4 49l0 0l-19-50l-5 0l-20 50l0 0l-4-49l-9 0l6 63l11 0l18-49l0 0l18 49z m48-56l0-7l-31 0l0 63l9 0l0-56z"/>
<glyph unicode="&#71;" d="M107 67l0 376c0 10 8 18 17 18l153 0l130-131l0-263c0-10-7-18-17-18l-266 0c-9 0-17 8-17 18z m170 394l130-131l-113 0c-9 0-17 8-17 17z m-98-332l21-32l-11 0l-16 26l-16-26l-10 0l20 32l-19 31l10 0l15-25l15 25l10 0z m75-18l4-6c-5-6-13-9-23-9c-9 0-17 3-23 9c-6 6-9 13-9 23c0 10 3 18 9 24c6 6 14 9 23 9c9 0 17-3 22-9l-3-7c-2 2-4 4-8 5c-3 2-7 3-11 3c-6 0-12-2-16-7c-5-4-7-10-7-18c0-7 2-13 7-17c4-5 10-7 16-7c8 0 15 2 19 7z m48 49l0-8l-26 0l0-21l25 0l0-7l-25 0l0-27l-9 0l0 63z"/>
<glyph unicode="&#72;" d="M107 67l0 376c0 10 8 18 17 18l153 0l130-131l0-263c0-10-7-18-17-18l-266 0c-9 0-17 8-17 18z m170 394l130-131l-113 0c-9 0-17 8-17 17z m-71-309c6-6 9-14 9-24c0-10-3-18-9-23c-7-6-14-9-23-9c-10 0-17 3-24 9c-6 5-9 13-9 23c0 10 3 18 9 24c7 6 14 9 24 9c9 0 16-3 23-9z m-7-42c5 5 7 11 7 18c0 8-2 14-7 18c-4 5-10 7-16 7c-7 0-13-2-17-7c-5-4-7-10-7-18c0-7 2-13 7-18c4-4 10-6 17-6c6 0 12 2 16 6z m64 50l0-8l-17 0l0-55l-9 0l0 55l-18 0l0 8z m63-30l0-24c-6-7-15-10-26-10c-9 0-17 3-23 9c-6 6-9 14-9 23c0 10 3 18 9 24c6 6 13 9 23 9c10 0 18-4 25-11l0 0l-6-6c-5 6-12 9-19 9c-7 0-13-2-17-7c-4-4-6-10-6-18c0-7 2-13 6-18c5-4 10-7 17-7c8 0 13 2 17 5l1 1l0 14l-17 0l0 7z"/>
<glyph unicode="&#73;" d="M107 67l0 376c0 10 8 18 17 18l153 0l130-131l0-263c0-10-7-18-17-18l-266 0c-9 0-17 8-17 18z m170 394l130-131l-113 0c-9 0-17 8-17 17z m-84-319c0-6-2-10-6-14c-4-3-9-4-16-4l-9 0l0-27l-8 0l0 63l17 0c7 0 12-2 16-5c4-3 6-8 6-13z m-13-9c2 2 3 5 3 9c0 3-1 6-3 8c-3 2-6 2-9 2l-9 0l0-21l9 0c3 0 6 1 9 2z m61 9c0-6-2-10-6-14c-3-3-9-4-15-4l-9 0l0-27l-9 0l0 63l18 0c6 0 12-2 15-5c4-3 6-8 6-13z m-13-9c3 2 4 5 4 9c0 3-1 6-4 8c-2 2-5 2-9 2l-8 0l0-21l8 0c4 0 7 1 9 2z m61 27l0-8l-18 0l0-55l-9 0l0 55l-18 0l0 8z m32-31l21-32l-10 0l-16 26l-16-26l-11 0l21 32l-19 31l10 0l15-25l14 25l11 0z"/>
<glyph unicode="&#74;" d="M107 67l0 376c0 10 8 18 17 18l153 0l130-131l0-263c0-10-7-18-17-18l-266 0c-9 0-17 8-17 18z m170 394l130-131l-113 0c-9 0-17 8-17 17z m-62-333c0-9-3-17-9-23l7-8l-6-5l-7 8c-5-3-11-4-17-4c-10 0-17 3-24 9c-6 5-9 13-9 23c0 10 3 18 9 24c7 6 14 9 24 9c9 0 16-3 23-9c6-6 9-14 9-24z m-9 0c0 8-2 14-7 18c-4 5-10 7-16 7c-7 0-13-2-17-7c-5-4-7-10-7-18c0-7 2-13 7-18c4-4 10-6 17-6c4 0 8 1 12 3l-6 6l6 5l5-6c4 4 6 10 6 16z m62-13c0-6-2-11-6-14c-4-3-9-4-16-4l-21 0l0 63l17 0c7 0 12-1 15-3c5-3 7-7 7-13c0-3-1-6-3-9c-2-2-4-4-7-5l0 0c5-1 8-3 11-5c2-3 3-6 3-10z m-13 28c0 4-1 6-4 8c-2 1-5 2-9 2l-8 0l0-20l8 0c4 0 7 0 9 2c3 2 4 4 4 8z m4-28c0 4-1 7-4 9c-3 1-6 2-11 2l-10 0l0-22l10 0c5 0 9 1 11 2c3 2 4 5 4 9z m63 0c0-6-2-11-7-14c-3-3-8-4-16-4l-20 0l0 63l17 0c7 0 12-1 15-3c4-3 7-7 7-13c0-3-1-6-3-9c-2-2-4-4-7-5l0 0c4-1 8-3 10-5c3-3 4-6 4-10z m-13 28c0 4-2 6-4 8c-2 1-5 2-9 2l-8 0l0-20l7 0c5 0 8 0 10 2c2 2 4 4 4 8z m4-28c0 4-2 7-5 9c-2 1-6 2-11 2l-9 0l0-22l9 0c6 0 9 1 11 2c3 2 5 5 5 9z"/>
<glyph unicode="&#75;" d="M107 67l0 376c0 10 8 18 17 18l153 0l130-131l0-263c0-10-7-18-17-18l-266 0c-9 0-17 8-17 18z m170 394l130-131l-113 0c-9 0-17 8-17 17z m-99-336l18-28l-10 0l-17 27l-7 0l0-27l-8 0l0 63l17 0c7 0 12-2 16-5c4-3 6-7 6-13c0-5-2-9-5-12c-2-3-6-4-10-5z m5 17c0 4-1 6-4 8c-2 2-5 3-10 3l-7 0l0-22l7 0c5 0 8 1 10 2c3 2 4 5 4 9z m81 18l6-63l-9 0l-4 49l0 0l-20-50l-5 0l-19 50l0 0l-4-49l-9 0l6 63l11 0l18-49l0 0l18 49z m55 0l9 0l-23-63l-8 0l-23 63l9 0l18-50z m59-45c0-6-2-11-6-14c-4-3-9-4-16-4l-21 0l0 63l17 0c7 0 12-1 15-3c5-3 7-7 7-13c0-3-1-6-3-9c-2-2-4-4-7-5l0 0c5-1 8-3 11-5c2-3 3-6 3-10z m-13 28c0 4-1 6-4 8c-2 1-5 2-9 2l-8 0l0-20l7 0c5 0 8 0 10 2c3 2 4 4 4 8z m4-28c0 4-1 7-4 9c-3 1-6 2-11 2l-10 0l0-22l10 0c5 0 8 1 11 2c3 2 4 5 4 9z"/>
<glyph unicode="&#76;" d="M107 67l0 376c0 10 8 18 17 18l153 0l130-131l0-263c0-10-7-18-17-18l-266 0c-9 0-17 8-17 18z m170 394l130-131l-113 0c-9 0-17 8-17 17z m-55-301l9 0l-18-63l-9 0l-15 51l-15-51l-9 0l-18 63l9 0l14-50l15 50l9 0l14-50z m78 0l5-63l-8 0l-5 49l0 0l-19-50l-5 0l-19 50l-1 0l-4-49l-8 0l5 63l11 0l18-49l1 0l18 49z m43 0l26-63l-10 0l-7 16l-27 0l-6-16l-10 0l26 63z m-15-39l22 0l-11 28z"/>
<glyph unicode="&#77;" d="M276 461l132 0l0-132l-132 0z m1-114l0 114l130-131l-113 0c-9 0-17 8-17 17z m-170-280l0 376c0 10 8 18 17 18l153 0l130-131l0-263c0-10-7-18-17-18l-266 0c-9 0-17 8-17 18z m72 62l21-32l-11 0l-16 26l-16-26l-10 0l20 32l-19 31l10 0l15-25l15 25l10 0z m89 31l5-63l-8 0l-5 49l0 0l-19-50l-5 0l-19 50l-1 0l-4-49l-8 0l5 63l11 0l18-49l1 0l18 49z m47-56l0-7l-31 0l0 63l9 0l0-56z"/>
<glyph unicode="&#78;" d="M107 67l0 376c0 10 8 18 17 18l153 0l130-131l0-263c0-10-7-18-17-18l-266 0c-9 0-17 8-17 18z m170 394l130-131l-113 0c-9 0-17 8-17 17z m-97-301l26-63l-10 0l-6 16l-28 0l-6-16l-9 0l25 63z m-15-39l22 0l-11 28z m86-7c0-5-2-10-6-13c-4-4-9-5-16-5c-2 0-5 0-7 1c-2 0-4 1-6 3c-2 1-3 2-4 3c-1 1-2 2-3 3l5 6c2-2 4-4 7-6c3-2 6-3 9-3c4 0 7 1 9 3c2 2 4 4 4 8c0 1-1 3-1 4c-1 1-2 2-3 3c-2 1-3 1-4 2c0 0-1 1-3 1c-5 2-8 3-10 4c-2 1-4 3-6 5c-3 3-4 6-4 11c0 5 2 9 6 12c3 3 8 5 14 5c7 0 13-3 18-9l-4-6c-5 5-9 7-14 7c-3 0-6-1-8-2c-2-2-3-4-3-7c0-1 0-2 0-3c1-1 2-2 2-3c1-1 2-1 3-2c1 0 2-1 3-1l11-5c4-1 6-3 8-5c2-3 3-7 3-11z m50 28c0-6-2-10-6-14c-4-3-9-4-16-4l-8 0l0-27l-9 0l0 63l17 0c7 0 12-2 16-5c4-3 6-8 6-13z m-13-9c2 2 4 5 4 9c0 3-2 6-4 8c-3 2-6 2-9 2l-8 0l0-21l8 0c3 0 6 1 9 2z"/>
<glyph unicode="&#79;" d="M107 67l0 376c0 10 8 18 17 18l153 0l130-131l0-263c0-10-7-18-17-18l-266 0c-9 0-17 8-17 18z m170 394l130-131l-113 0c-9 0-17 8-17 17z m-76-350l4-6c-5-6-13-9-23-9c-9 0-17 3-23 9c-6 6-9 13-9 23c0 10 3 18 9 24c6 6 14 9 23 9c9 0 17-3 23-9l-4-7c-2 2-4 4-7 5c-4 2-7 3-11 3c-7 0-13-2-17-7c-5-4-7-10-7-18c0-7 2-13 7-17c4-5 10-7 17-7c7 0 14 2 18 7z m56 41c6-6 10-14 10-24c0-9-4-17-10-23c-6-6-14-8-24-8l-19 0l0 63l19 0c10 0 18-3 24-8z m1-24c0 8-3 14-8 18c-4 4-10 6-17 6l-10 0l0-48l10 0c7 0 13 2 17 6c5 5 8 11 8 18z m50-24l0-7l-31 0l0 63l9 0l0-56z"/>
<glyph unicode="&#80;" d="M107 67l0 376c0 10 8 18 17 18l153 0l130-131l0-263c0-10-7-18-17-18l-266 0c-9 0-17 8-17 18z m170 394l130-131l-113 0c-9 0-17 8-17 17z m-71-309c6-6 9-14 9-24c0-10-3-18-9-23c-7-6-14-9-23-9c-10 0-17 3-24 9c-6 5-9 13-9 23c0 10 3 18 9 24c7 6 14 9 24 9c9 0 16-3 23-9z m-7-42c5 5 7 11 7 18c0 8-2 14-7 18c-4 5-10 7-16 7c-7 0-13-2-17-7c-5-4-7-10-7-18c0-7 2-13 7-18c4-4 10-6 17-6c6 0 12 2 16 6z m69 42c6-6 10-14 10-24c0-9-4-17-10-23c-6-6-14-8-24-8l-19 0l0 63l19 0c10 0 18-3 24-8z m1-24c0 8-3 14-8 18c-4 4-10 6-17 6l-10 0l0-48l10 0c7 0 13 2 17 6c5 5 8 11 8 18z m57-14c0-5-2-10-6-13c-4-4-9-5-16-5c-2 0-5 0-7 1c-2 0-4 1-6 3c-2 1-3 2-4 3c-1 1-2 2-3 3l5 6c2-2 4-4 7-6c3-2 6-3 9-3c4 0 7 1 9 3c2 2 4 4 4 8c0 1-1 3-1 4c-1 1-2 2-3 3c-2 1-3 1-4 2c0 0-1 1-3 1c-5 2-8 3-10 4c-2 1-4 3-6 5c-3 3-4 6-4 11c0 5 2 9 6 12c3 3 8 5 14 5c7 0 13-3 18-9l-4-6c-5 5-9 7-14 7c-3 0-6-1-8-2c-2-2-3-4-3-7c0-1 0-2 0-3c1-1 2-2 2-3c1-1 2-1 3-2c1 0 2-1 3-1l12-5c3-1 5-3 7-5c2-3 3-7 3-11z"/>
<glyph unicode="&#81;" d="M107 67l0 376c0 10 8 18 17 18l153 0l130-131l0-263c0-10-7-18-17-18l-266 0c-9 0-17 8-17 18z m170 394l130-131l-113 0c-9 0-17 8-17 17z m-84-319c0-6-2-10-6-14c-4-3-9-4-16-4l-9 0l0-27l-8 0l0 63l17 0c7 0 12-2 16-5c4-3 6-8 6-13z m-13-9c2 2 3 5 3 9c0 3-1 6-3 8c-3 2-6 2-9 2l-9 0l0-21l9 0c3 0 6 1 9 2z m60 27l0-8l-18 0l0-55l-8 0l0 55l-18 0l0 8z m51-45c0-6-2-11-7-14c-3-3-9-4-16-4l-20 0l0 63l17 0c7 0 12-1 15-3c4-3 7-7 7-13c0-3-1-6-3-9c-2-2-4-4-7-5l0 0c4-1 8-3 10-5c3-3 4-6 4-10z m-13 28c0 4-2 6-5 8c-2 1-5 2-8 2l-8 0l0-20l7 0c5 0 8 0 9 2c3 2 5 4 5 8z m4-28c0 4-2 7-5 9c-2 1-6 2-11 2l-9 0l0-22l9 0c5 0 9 1 11 2c3 2 5 5 5 9z"/>
<glyph unicode="&#82;" d="M107 67l0 376c0 10 8 18 17 18l153 0l130-131l0-263c0-10-7-18-17-18l-266 0c-9 0-17 8-17 18z m170 394l130-131l-113 0c-9 0-17 8-17 17z m-100-333l20-31l-10 0l-15 25l-15-25l-10 0l19 31l-18 29l10 0l14-23l14 23l10 0z m52 29l25-60l-9 0l-7 15l-26 0l-6-15l-9 0l25 60z m-14-37l21 0l-11 27z m104 37l6-60l-9 0l-4 47l0 0l-18-48l-5 0l-19 48l0 0l-4-47l-8 0l5 60l11 0l17-47l0 0l18 47z m46-53l0-7l-30 0l0 60l9 0l0-53z"/>
<glyph unicode="&#83;" d="M107 67l0 376c0 10 8 18 17 18l153 0l130-131l0-263c0-10-7-18-17-18l-266 0c-9 0-17 8-17 18z m170 394l130-131l-113 0c-9 0-17 8-17 17z m-97-301l26-63l-10 0l-6 16l-28 0l-6-16l-9 0l25 63z m-15-39l22 0l-11 28z m57 39l0-63l-9 0l0 63z"/>
<glyph unicode="&#84;" d="M107 67l0 376c0 10 8 18 17 18l153 0l130-131l0-263c0-10-7-18-17-18l-266 0c-9 0-17 8-17 18z m170 394l130-131l-113 0c-9 0-17 8-17 17z m-76-350l4-6c-5-6-13-9-23-9c-9 0-17 3-23 9c-6 6-9 13-9 23c0 10 3 18 9 24c6 6 14 9 23 9c9 0 17-3 23-9l-4-7c-2 2-4 4-7 5c-4 2-7 3-11 3c-7 0-13-2-17-7c-5-4-7-10-7-18c0-7 2-13 7-17c4-5 10-7 17-7c7 0 14 2 18 7z m65 49l0-63l-9 0l0 29l-34 0l0-29l-9 0l0 63l9 0l0-26l34 0l0 26z m75 0l5-63l-8 0l-4 49l-1 0l-19-50l-5 0l-19 50l-1 0l-4-49l-8 0l5 63l11 0l18-49l1 0l18 49z"/>
<glyph unicode="&#85;" d="M107 67l0 376c0 10 8 18 17 18l153 0l130-131l0-263c0-10-7-18-17-18l-266 0c-9 0-17 8-17 18z m170 394l130-131l-113 0c-9 0-17 8-17 17z m-62-301l6-63l-9 0l-4 49l-1 0l-19-50l-5 0l-19 50l0 0l-4-49l-9 0l5 63l11 0l19-49l0 0l18 49z m69-8c6-6 9-14 9-24c0-10-3-18-9-23c-7-6-14-9-24-9c-9 0-16 3-23 9c-6 5-9 13-9 23c0 10 3 18 9 24c7 6 14 9 23 9c10 0 17-3 24-9z m-7-42c5 5 7 11 7 18c0 8-2 14-7 18c-4 5-10 7-17 7c-6 0-12-2-16-7c-5-4-7-10-7-18c0-7 2-13 7-18c4-4 10-6 16-6c7 0 13 2 17 6z m64 50l10 0l-24-63l-7 0l-24 63l10 0l18-50z"/>
<glyph unicode="&#86;" d="M107 67l0 376c0 10 8 18 17 18l153 0l130-131l0-263c0-10-7-18-17-18l-266 0c-9 0-17 8-17 18z m170 394l130-131l-113 0c-9 0-17 8-17 17z m-71-309c6-6 9-14 9-24c0-10-3-18-9-23c-7-6-14-9-23-9c-10 0-17 3-24 9c-6 5-9 13-9 23c0 10 3 18 9 24c7 6 14 9 24 9c9 0 16-3 23-9z m-7-42c5 5 7 11 7 18c0 8-2 14-7 18c-4 5-10 7-16 7c-7 0-13-2-17-7c-5-4-7-10-7-18c0-7 2-13 7-18c4-4 10-6 17-6c6 0 12 2 16 6z m69 42c6-6 10-14 10-24c0-9-4-17-10-23c-6-6-14-8-24-8l-19 0l0 63l19 0c10 0 18-3 24-8z m1-24c0 8-3 14-8 18c-4 4-10 6-17 6l-10 0l0-48l10 0c7 0 13 2 17 6c5 5 8 11 8 18z m28 32l0-63l-9 0l0 63z"/>
<glyph unicode="&#87;" d="M107 67l0 376c0 10 8 18 17 18l153 0l130-131l0-263c0-10-7-18-17-18l-266 0c-9 0-17 8-17 18z m170 394l130-131l-113 0c-9 0-17 8-17 17z m-71-309c6-6 9-14 9-24c0-10-3-18-9-23c-7-6-14-9-23-9c-10 0-17 3-24 9c-6 5-9 13-9 23c0 10 3 18 9 24c7 6 14 9 24 9c9 0 16-3 23-9z m-7-42c5 5 7 11 7 18c0 8-2 14-7 18c-4 5-10 7-16 7c-7 0-13-2-17-7c-5-4-7-10-7-18c0-7 2-13 7-18c4-4 10-6 17-6c6 0 12 2 16 6z m64 50l0-8l-17 0l0-55l-9 0l0 55l-18 0l0 8z m43 0l0-8l-26 0l0-21l25 0l0-7l-25 0l0-27l-9 0l0 63z"/>
<glyph unicode="&#88;" d="M107 67l0 376c0 10 8 18 17 18l153 0l130-131l0-263c0-10-7-18-17-18l-266 0c-9 0-17 8-17 18z m170 394l130-131l-113 0c-9 0-17 8-17 17z m-84-319c0-6-2-10-6-14c-4-3-9-4-16-4l-9 0l0-27l-8 0l0 63l17 0c7 0 12-2 16-5c4-3 6-8 6-13z m-13-9c2 2 3 5 3 9c0 3-1 6-3 8c-3 2-6 3-9 3l-9 0l0-22l9 0c3 0 6 1 9 2z m65 19c6-6 9-14 9-24c0-9-3-17-9-23c-6-6-14-8-24-8l-19 0l0 63l19 0c10 0 18-3 24-8z m0-24c0 8-2 14-7 18c-4 4-10 6-17 6l-10 0l0-48l10 0c7 0 13 2 17 6c5 5 7 11 7 18z m63-13c0-6-2-11-7-14c-3-3-9-4-16-4l-20 0l0 63l17 0c7 0 12-1 15-3c4-3 6-7 6-13c0-3-1-6-2-9c-2-2-4-4-7-5l0 0c4-1 8-3 10-5c3-3 4-6 4-10z m-13 28c0 4-2 6-5 8c-2 1-5 2-8 2l-8 0l0-20l7 0c4 0 8 0 9 2c3 2 5 4 5 8z m4-28c0 4-2 7-5 9c-2 1-6 2-11 2l-9 0l0-22l9 0c5 0 9 1 11 2c3 2 5 5 5 9z"/>
<glyph unicode="&#89;" d="M107 67l0 376c0 10 8 18 17 18l153 0l130-131l0-263c0-10-7-18-17-18l-266 0c-9 0-17 8-17 18z m170 394l130-131l-113 0c-9 0-17 8-17 17z m-84-319c0-6-2-10-6-14c-4-3-9-4-16-4l-9 0l0-27l-8 0l0 63l17 0c7 0 12-2 16-5c4-3 6-8 6-13z m-13-9c2 2 3 5 3 9c0 3-1 6-3 8c-3 2-6 2-9 2l-9 0l0-21l9 0c3 0 6 1 9 2z m76 27l0-63l-9 0l-36 50c0-6 0-11 0-17l0-33l-9 0l0 63l9 0l36-50c0 5 0 11 0 16l0 34z m69-30l0-24c-7-7-16-10-27-10c-9 0-17 3-23 9c-6 6-9 14-9 23c0 10 3 18 9 24c6 6 14 9 23 9c10 0 19-4 25-11l1 0l-6-6c-6 6-12 9-20 9c-7 0-12-2-16-7c-5-4-7-10-7-18c0-7 2-13 7-18c4-4 10-7 17-7c7 0 13 2 17 5l0 1l0 14l-17 0l0 7z"/>
<glyph unicode="&#90;" d="M107 67l0 376c0 10 8 18 17 18l153 0l130-131l0-263c0-10-7-18-17-18l-266 0c-9 0-17 8-17 18z m170 394l130-131l-113 0c-9 0-17 8-17 17z m-99-336l18-28l-10 0l-17 27l-7 0l0-27l-8 0l0 63l17 0c7 0 12-2 16-5c4-3 6-7 6-13c0-5-2-9-5-12c-2-3-6-5-10-5z m5 17c0 4-1 6-4 8c-2 2-5 2-10 2l-7 0l0-21l7 0c5 0 8 1 10 2c3 2 4 5 4 9z m81 18l6-63l-9 0l-4 49l0 0l-20-50l-5 0l-19 50l0 0l-4-49l-9 0l6 63l11 0l18-49l0 0l18 49z"/>
<glyph unicode="&#48;" d="M107 67l0 376c0 10 8 18 17 18l153 0l130-131l0-263c0-10-7-18-17-18l-266 0c-9 0-17 8-17 18z m170 394l130-131l-113 0c-9 0-17 8-17 17z m-85-347c0-5-2-10-6-13c-5-4-10-5-16-5c-2 0-5 0-7 1c-2 0-4 1-6 3c-2 1-3 2-4 3c-1 1-2 2-3 3l5 6c2-2 4-4 7-6c3-2 6-3 9-3c3 0 6 1 9 3c2 2 3 4 3 8c0 1 0 3-1 4c0 1-1 2-3 3c-1 1-2 1-3 2c-1 0-2 1-3 1c-5 2-8 3-10 4c-3 1-5 3-6 5c-3 3-4 6-4 11c0 5 1 9 5 12c4 3 9 5 15 5c7 0 13-3 18-9l-5-6c-4 5-9 7-14 7c-3 0-5-1-8-2c-2-2-3-4-3-7c0-1 1-2 1-3c1-1 1-2 2-3c1-1 2-1 3-2c0 0 1-1 3-1l11-5c3-1 6-3 7-5c3-3 4-7 4-11z m41-10l0-7l-31 0l0 63l9 0l0-56z m62 56l0-63l-9 0l-36 50c0-6 0-11 0-17l0-33l-9 0l0 63l10 0l35-50c0 5 0 11 0 16l0 34z"/>
<glyph unicode="&#49;" d="M107 67l0 376c0 10 8 18 17 18l153 0l130-131l0-263c0-10-7-18-17-18l-266 0c-9 0-17 8-17 18z m170 394l130-131l-113 0c-9 0-17 8-17 17z m-89-350c0-4-2-8-6-11c-2-2-7-3-13-3l-17 0l0 52l14 0c6 0 10-1 13-3c3-2 5-6 5-10c0-3 0-5-2-7c-1-3-3-4-6-5l0 0c4-1 7-2 9-4c2-2 3-5 3-9z m-11 24c0 3-1 5-3 7c-2 0-5 1-8 1l-6 0l0-17l6 0c4 0 6 1 8 2c2 2 3 4 3 7z m3-23c0 3-1 5-3 7c-2 1-5 2-10 2l-7 0l0-18l7 0c5 0 8 0 10 1c2 2 3 5 3 8z m42-9l0-6l-25 0l0 52l7 0l0-46z m38 0l0-6l-31 0l0 52l30 0l0-6l-23 0l0-16l22 0l0-6l-22 0l0-18z m53 46l0-52l-7 0l-30 41c0-4 0-9 0-14l0-27l-7 0l0 52l7 0l30-41c0 4 0 9 0 13l0 28z m47-7c5-5 8-11 8-19c0-8-3-15-8-20c-5-4-12-6-20-6l-15 0l0 52l15 0c8 0 15-3 20-7z m0-19c0 6-2 11-6 15c-3 3-8 4-14 4l-8 0l0-39l8 0c6 0 11 2 14 5c4 4 6 9 6 15z"/>
<glyph unicode="&#50;" d="M107 67l0 376c0 10 8 18 17 18l153 0l130-131l0-263c0-10-7-18-17-18l-266 0c-9 0-17 8-17 18z m170 394l130-131l-113 0c-9 0-17 8-17 17z m-81-309c7-6 10-14 10-24c0-9-3-17-10-23c-6-6-14-8-23-8l-19 0l0 63l19 0c9 0 17-3 23-8z m1-24c0 8-3 14-8 18c-4 4-9 6-16 6l-11 0l0-48l11 0c7 0 12 2 16 6c5 5 8 11 8 18z m46 32l26-63l-10 0l-7 16l-27 0l-6-16l-10 0l26 63z m-15-39l22 0l-11 28z m86 39l0-8l-18 0l0-55l-9 0l0 55l-18 0l0 8z"/>
<glyph unicode="&#51;" d="M107 67l0 376c0 10 8 18 17 18l153 0l130-131l0-263c0-10-7-18-17-18l-266 0c-9 0-17 8-17 18z m170 394l130-131l-113 0c-9 0-17 8-17 17z m-81-309c7-6 10-14 10-24c0-9-3-17-10-23c-6-6-14-8-23-8l-19 0l0 63l19 0c9 0 17-3 23-8z m1-24c0 8-3 14-8 18c-4 4-9 6-16 6l-11 0l0-48l11 0c7 0 12 2 16 6c5 5 8 11 8 18z m44 1l21-32l-10 0l-16 26l-16-26l-11 0l21 32l-19 31l10 0l15-25l14 25l11 0z m63 31l0-8l-26 0l0-21l24 0l0-7l-24 0l0-27l-9 0l0 63z"/>
<glyph unicode="&#52;" d="M107 67l0 376c0 10 8 18 17 18l153 0l130-131l0-263c0-10-7-18-17-18l-266 0c-9 0-17 8-17 18z m170 394l130-131l-113 0c-9 0-17 8-17 17z m-86-315c6-6 8-13 8-21c0-9-2-16-8-21c-6-5-13-7-21-7l-17 0l0 56l17 0c8 0 15-3 21-7z m0-21c0 6-2 12-6 16c-4 3-9 5-15 5l-9 0l0-42l9 0c6 0 11 1 15 5c4 4 6 9 6 16z m64 21c6-6 8-13 8-21c0-9-2-16-8-21c-6-6-12-8-21-8c-8 0-15 2-20 8c-6 5-9 12-9 21c0 8 3 15 9 21c5 5 12 8 20 8c9 0 15-3 21-8z m-6-37c4 4 6 9 6 16c0 7-2 12-6 16c-4 4-9 6-15 6c-5 0-10-2-14-6c-4-4-6-9-6-16c0-7 2-12 6-16c4-4 9-6 14-6c6 0 11 2 15 6z m66 1l4-6c-5-6-12-8-21-8c-8 0-15 2-20 8c-6 5-9 12-9 21c0 8 3 15 9 21c5 5 12 8 20 8c8 0 15-3 20-8l-3-6c-2 2-4 3-7 5c-3 1-6 2-10 2c-6 0-11-2-15-6c-3-4-5-10-5-16c0-7 2-12 5-16c4-4 9-6 15-6c7 0 13 2 17 7z m34 16l19-29l-10 0l-14 24l-14-24l-10 0l19 29l-17 27l9 0l13-22l13 22l9 0z"/>
<glyph unicode="&#53;" d="M107 67l0 376c0 10 8 18 17 18l153 0l130-131l0-263c0-10-7-18-17-18l-266 0c-9 0-17 8-17 18z m170 394l130-131l-113 0c-9 0-17 8-17 17z m-86-357l0-7l-37 0l0 63l36 0l0-8l-28 0l0-18l27 0l0-8l-27 0l0-22z m36 25l21-32l-11 0l-16 26l-15-26l-11 0l21 32l-20 31l11 0l14-25l15 25l11 0z m65-25l0-7l-37 0l0 63l37 0l0-8l-28 0l0-18l26 0l0-8l-26 0l0-22z m-236 401l0-31c0-1 0-2 1-2l13 0l11 11l0 22c0 1-1 2-1 2l-23 0c-1 0-1-1-1-2z"/>
<glyph unicode="&#54;" d="M107 67l0 376c0 10 8 18 17 18l153 0l130-131l0-263c0-10-7-18-17-18l-266 0c-9 0-17 8-17 18z m170 394l130-131l-113 0c-9 0-17 8-17 17z m-102-326l26-38l-11 0l-21 31l-7-6l0-25l-8 0l0 63l8 0l0-27l26 27l11 0z m69-31l0-7l-38 0l0 63l37 0l0-8l-28 0l0-19l27 0l0-7l-27 0l0-22z m47 56l10 0l-22-37l0-26l-9 0l0 26l-22 37l10 0l16-29z"/>
<glyph unicode="&#55;" d="M107 67l0 376c0 10 8 18 17 18l153 0l130-131l0-263c0-10-7-18-17-18l-266 0c-9 0-17 8-17 18z m170 394l130-131l-113 0c-9 0-17 8-17 17z m-115-301l0-63c0-6-1-11-2-13c-3-4-6-6-11-6c-1 0-2 1-3 1c-1 0-2 0-2 0c-1 0-1 0-1 1l0 6c1 0 3 0 5 0c2 0 4 1 4 2c1 2 2 5 2 9l0 63z m41 0l26-63l-10 0l-7 16l-27 0l-6-16l-10 0l26 63z m-15-39l22 0l-11 28z m72 4l18-28l-10 0l-17 27l-7 0l0-27l-8 0l0 63l17 0c7 0 12-2 16-5c4-3 6-7 6-13c0-5-2-9-5-12c-2-3-6-5-10-5z m6 17c0 4-2 6-4 8c-3 2-6 2-11 2l-7 0l0-21l7 0c5 0 8 1 11 2c2 2 4 5 4 9z"/>
<glyph unicode="&#56;" d="M107 67l0 376c0 10 8 18 17 18l153 0l130-131l0-263c0-10-7-18-17-18l-266 0c-9 0-17 8-17 18z m170 394l130-131l-113 0c-9 0-17 8-17 17z m-115-304l0-60l-9 0l0 60z m59-46l3-6c-5-6-12-9-22-9c-8 0-16 3-22 8c-5 6-8 14-8 23c0 9 3 17 8 22c6 6 14 9 22 9c9 0 16-3 22-8l-4-7c-1 2-3 4-7 5c-3 2-6 2-10 2c-7 0-12-2-16-6c-5-4-7-10-7-17c0-7 2-13 7-17c4-4 9-7 16-7c7 0 13 3 18 8z m62 38c6-5 9-13 9-22c0-10-3-17-9-23c-6-6-13-8-22-8c-9 0-16 2-22 8c-6 6-9 13-9 23c0 9 3 17 9 22c6 6 13 9 22 9c9 0 16-3 22-9z m-6-39c4 4 6 10 6 17c0 7-2 13-6 17c-5 4-10 7-16 7c-7 0-12-3-16-7c-4-4-7-10-7-17c0-7 3-13 7-17c4-4 9-7 16-7c6 0 11 3 16 7z"/>
<glyph unicode="&#57;" d="M107 67l0 376c0 10 8 18 17 18l153 0l130-131l0-263c0-10-7-18-17-18l-266 0c-9 0-17 8-17 18z m170 394l130-131l-113 0c-9 0-17 8-17 17z m-76-350l4-6c-5-6-13-9-23-9c-9 0-17 3-23 9c-6 6-9 13-9 23c0 10 3 18 9 24c6 6 14 9 23 9c9 0 17-3 23-9l-4-7c-2 2-4 4-7 5c-4 2-7 3-11 3c-7 0-13-2-17-7c-5-4-7-10-7-18c0-7 2-13 7-17c4-5 10-7 17-7c7 0 14 2 18 7z m56 41c6-6 10-14 10-24c0-9-4-17-10-23c-6-6-14-8-24-8l-19 0l0 63l19 0c10 0 18-3 24-8z m1-24c0 8-3 14-8 18c-4 4-10 6-17 6l-10 0l0-48l10 0c7 0 13 2 17 6c5 5 8 11 8 18z m44-3l18-28l-11 0l-16 27l-7 0l0-27l-9 0l0 63l18 0c6 0 11-2 15-5c4-3 6-7 6-13c0-5-1-9-4-12c-3-3-6-4-10-5z m5 17c0 4-2 6-4 8c-2 2-6 3-11 3l-6 0l0-22l6 0c5 0 9 1 11 2c2 2 4 5 4 9z"/>
<glyph unicode="&#33;" d="M107 67l0 376c0 10 8 18 17 18l153 0l130-131l0-263c0-10-7-18-17-18l-266 0c-9 0-17 8-17 18z m170 394l130-131l-113 0c-9 0-17 8-17 17z m-111-360c0-1 0-3-1-4c-1-1-3-1-5-1c-1 0-3 0-4 1c-1 1-2 3-2 4c0 2 1 4 2 5c1 1 3 1 4 1c2 0 4 0 5-1c1-1 1-3 1-5z m28 0c0-1-1-3-2-4c-1-1-2-1-4-1c-2 0-3 0-5 1c-1 1-1 3-1 4c0 2 0 4 1 5c2 1 3 1 5 1c2 0 3 0 4-1c1-1 2-3 2-5z m27 0c0-1 0-3-1-4c-1-1-3-1-5-1c-1 0-3 0-4 1c-1 1-2 3-2 4c0 2 1 4 2 5c1 1 3 1 4 1c2 0 4 0 5-1c1-1 1-3 1-5z"/>
<glyph unicode="&#34;" d="M107 67l0 376c0 10 8 18 17 18l153 0l130-131l0-263c0-10-7-18-17-18l-266 0c-9 0-17 8-17 18z m170 394l130-131l-113 0c-9 0-17 8-17 17z m-81-357l0-7l-47 0l0 6l35 49l-34 0l0 8l45 0l0-6l-35-50z m18 56l0-63l-9 0l0 63z m53-18c0-6-2-10-6-14c-4-3-9-4-15-4l-9 0l0-27l-9 0l0 63l18 0c6 0 11-2 15-5c4-3 6-8 6-13z m-13-9c3 2 4 5 4 9c0 3-1 6-4 8c-2 2-5 3-9 3l-8 0l0-22l8 0c4 0 7 1 9 2z"/>
<glyph unicode="&#35;" d="M107 67l0 376c0 10 8 18 17 18l153 0l130-131l0-263c0-10-7-18-17-18l-266 0c-9 0-17 8-17 18z m170 394l130-131l-113 0c-9 0-17 8-17 17z m-62-301l6-63l-9 0l-4 49l-1 0l-19-50l-5 0l-19 50l0 0l-4-49l-9 0l5 63l11 0l19-49l0 0l18 49z m59-8c7-6 10-14 10-24c0-9-3-17-10-23c-6-6-14-8-23-8l-19 0l0 63l19 0c9 0 17-3 23-8z m1-24c0 8-3 14-8 18c-4 4-9 6-16 6l-11 0l0-48l11 0c7 0 12 2 16 6c5 5 8 11 8 18z m62-13c0-6-2-11-7-14c-3-3-8-4-15-4l-21 0l0 63l17 0c7 0 12-1 15-3c5-3 7-7 7-13c0-3-1-6-3-9c-2-2-4-4-7-5l0 0c5-1 8-3 10-5c3-3 4-6 4-10z m-13 28c0 4-1 6-4 8c-2 1-5 2-9 2l-8 0l0-20l7 0c5 0 8 0 10 2c3 2 4 4 4 8z m4-28c0 4-1 7-4 9c-3 1-6 2-12 2l-9 0l0-22l9 0c6 0 9 1 12 2c3 2 4 5 4 9z"/>
<glyph unicode="&#36;" d="M107 67l0 376c0 10 8 18 17 18l153 0l130-131l0-263c0-10-7-18-17-18l-266 0c-9 0-17 8-17 18z m170 394l130-131l-113 0c-9 0-17 8-17 17z m-86-357l0-7l-37 0l0 63l36 0l0-8l-28 0l0-18l27 0l0-8l-27 0l0-22z m50 38c0-6-2-10-6-14c-3-3-9-4-15-4l-9 0l0-27l-9 0l0 63l18 0c6 0 12-2 15-5c4-3 6-8 6-13z m-13-9c3 2 4 5 4 9c0 3-1 6-4 8c-2 2-5 3-9 3l-8 0l0-22l8 0c4 0 7 1 9 2z m61-19c0-5-2-10-7-13c-4-4-9-5-15-5c-3 0-5 0-7 1c-2 0-5 1-6 3c-2 1-3 2-4 3c-1 1-2 2-3 3l5 6c2-2 4-4 7-6c3-2 6-3 9-3c3 0 6 1 9 3c2 2 3 4 3 8c0 1 0 3-1 4c0 1-2 2-3 3c-1 1-2 1-3 2c-1 0-2 1-3 1c-5 2-8 3-10 4c-3 1-5 3-6 5c-3 3-4 6-4 11c0 5 1 9 5 12c4 3 9 5 15 5c7 0 13-3 18-9l-5-6c-4 5-9 7-14 7c-3 0-6-1-8-2c-2-2-3-4-3-7c0-1 1-2 1-3c0-1 1-2 2-3c1-1 2-1 3-2c0 0 1-1 3-1l11-5c3-1 6-3 7-5c3-3 4-7 4-11z"/>
<glyph unicode="&#37;" d="M107 67l0 376c0 10 8 18 17 18l153 0l130-131l0-263c0-10-7-18-17-18l-266 0c-9 0-17 8-17 18z m170 394l130-131l-113 0c-9 0-17 8-17 17z m-97-301l26-63l-10 0l-6 16l-28 0l-6-16l-9 0l25 63z m-15-39l22 0l-11 28z m109 39l6-63l-9 0l-4 49l0 0l-20-50l-5 0l-19 50l0 0l-4-49l-9 0l6 63l11 0l18-49l0 0l18 49z m42-35l18-28l-11 0l-17 27l-6 0l0-27l-9 0l0 63l18 0c6 0 11-2 15-5c4-3 6-7 6-13c0-5-1-9-4-12c-3-3-6-5-10-5z m5 17c0 4-2 6-4 8c-2 2-6 2-11 2l-6 0l0-21l6 0c5 0 9 1 11 2c2 2 4 5 4 9z"/>
<glyph unicode="&#38;" d="M107 67l0 376c0 10 8 18 17 18l153 0l130-131l0-263c0-10-7-18-17-18l-266 0c-9 0-17 8-17 18z m170 394l130-131l-113 0c-9 0-17 8-17 17z m-60-305l9 0l-17-59l-8 0l-15 47l-14-47l-8 0l-17 59l9 0l13-47l13 47l9 0l13-47z m51-52l0-7l-35 0l0 59l34 0l0-7l-26 0l0-18l25 0l0-7l-25 0l0-20z m51 9c0-5-2-9-7-12c-3-3-8-4-15-4l-19 0l0 59l16 0c7 0 11-1 14-3c4-3 7-7 7-12c0-3-1-6-3-8c-2-3-4-4-6-5l0 0c4-1 7-3 9-5c3-3 4-6 4-10z m-13 27c0 4-1 6-4 8c-2 1-4 1-8 1l-7 0l0-19l6 0c5 0 8 1 9 2c3 2 4 5 4 8z m4-26c0 3-1 6-4 8c-2 1-6 2-11 2l-8 0l0-21l8 0c5 0 9 1 11 3c3 1 4 4 4 8z m55 25c0-5-2-9-6-13c-3-2-8-4-14-4l-8 0l0-25l-8 0l0 59l16 0c6 0 11-2 14-4c4-4 6-8 6-13z m-12-8c2 2 4 4 4 8c0 3-2 6-4 8c-2 1-5 2-8 2l-8 0l0-20l8 0c3 0 6 1 8 2z"/>
<glyph unicode="&#39;" d="M276 461l132 0l0-132l-132 0z m1-114l0 114l130-131l-113 0c-9 0-17 8-17 17z m-170-280l0 376c0 10 8 18 17 18l153 0l130-131l0-263c0-10-7-18-17-18l-266 0c-9 0-17 8-17 18z m85 93l0-8l-18 0l0-55l-9 0l0 55l-18 0l0 8z m32-35l18-28l-11 0l-16 27l-7 0l0-27l-9 0l0 63l18 0c7 0 12-2 15-5c4-3 6-7 6-13c0-5-1-9-4-12c-3-3-6-5-10-5z m5 17c0 4-1 6-4 8c-2 2-5 2-10 2l-7 0l0-21l7 0c5 0 8 1 10 2c3 2 4 5 4 9z m58 18l0-8l-18 0l0-55l-9 0l0 55l-18 0l0 8z"/>
<glyph unicode="&#40;" d="M107 67l0 376c0 10 8 18 17 18l153 0l130-131l0-263c0-10-7-18-17-18l-266 0c-9 0-17 8-17 18z m170 394l130-131l-113 0c-9 0-17 8-17 17z m-85-301l0-8l-18 0l0-55l-9 0l0 55l-18 0l0 8z m16 0l0-63l-9 0l0 63z m49 0l0-8l-26 0l0-21l24 0l0-7l-24 0l0-27l-9 0l0 63z"/>
<glyph unicode="&#41;" d="M107 67l0 376c0 10 8 18 17 18l153 0l130-131l0-263c0-10-7-18-17-18l-266 0c-9 0-17 8-17 18z m170 394l130-131l-113 0c-9 0-17 8-17 17z m-84-319c0-6-2-10-6-14c-4-3-9-4-16-4l-9 0l0-27l-8 0l0 63l17 0c7 0 12-2 16-5c4-3 6-8 6-13z m-13-9c2 2 3 5 3 9c0 3-1 6-3 8c-3 2-6 3-9 3l-9 0l0-22l9 0c3 0 6 1 9 2z m61-19c0-5-3-10-7-13c-4-4-9-5-15-5c-3 0-5 0-8 1c-2 0-4 1-6 3c-2 1-3 2-4 3c-1 1-2 2-3 3l5 6c2-2 5-4 7-6c3-2 6-3 9-3c4 0 7 1 9 3c3 2 4 4 4 8c0 1-1 3-1 4c-1 1-2 2-3 3c-2 1-3 1-3 2c-1 0-2 1-4 1c-4 2-8 3-10 4c-2 1-4 3-6 5c-3 3-4 6-4 11c0 5 2 9 6 12c4 3 8 5 14 5c7 0 13-3 18-9l-4-6c-5 5-9 7-14 7c-3 0-6-1-8-2c-2-2-3-4-3-7c0-1 0-2 1-3c0-1 1-2 2-3c0-1 1-1 2-2c1 0 2-1 3-1l12-5c3-1 5-3 7-5c2-3 4-7 4-11z m52 38c7-6 10-14 10-24c0-9-3-17-10-23c-6-6-13-8-23-8l-19 0l0 63l19 0c10 0 17-3 23-8z m1-24c0 8-2 14-7 18c-5 4-10 6-17 6l-10 0l0-48l10 0c7 0 12 2 17 6c5 5 7 11 7 18z"/>
<glyph unicode="&#42;" d="M107 67l0 376c0 10 8 18 17 18l153 0l130-131l0-263c0-10-7-18-17-18l-266 0c-9 0-17 8-17 18z m170 394l130-131l-113 0c-9 0-17 8-17 17z m-85-347c0-5-2-10-6-13c-5-4-10-5-16-5c-2 0-5 0-7 1c-2 0-4 1-6 3c-2 1-3 2-4 3c-1 1-2 2-3 3l5 6c2-2 4-4 7-6c3-2 6-3 9-3c3 0 6 1 9 3c2 2 3 4 3 8c0 1 0 3-1 4c0 1-1 2-3 3c-1 1-2 1-3 2c-1 0-2 1-3 1c-5 2-8 3-10 4c-3 1-5 3-6 5c-3 3-4 6-4 11c0 5 1 9 5 12c4 3 9 5 15 5c7 0 13-3 18-9l-5-6c-4 5-9 7-14 7c-3 0-5-1-8-2c-2-2-3-4-3-7c0-1 1-2 1-3c1-1 1-2 2-3c1-1 2-1 3-2c0 0 1-1 3-1l11-5c3-1 6-3 7-5c3-3 4-7 4-11z m72 14c0-9-3-17-9-23l7-8l-6-5l-7 8c-5-3-11-4-18-4c-9 0-17 3-23 9c-6 5-9 13-9 23c0 10 3 18 9 24c6 6 14 9 23 9c9 0 17-3 23-9c7-6 10-14 10-24z m-9 0c0 8-3 14-7 18c-5 5-10 7-17 7c-6 0-12-2-16-7c-5-4-7-10-7-18c0-7 2-13 7-18c4-4 10-6 16-6c5 0 9 1 12 3l-5 6l6 5l5-6c4 4 6 10 6 16z m50-24l0-7l-31 0l0 63l9 0l0-56z"/>
<glyph unicode="&#43;" d="M107 67l0 376c0 10 8 18 17 18l153 0l130-131l0-263c0-10-7-18-17-18l-266 0c-9 0-17 8-17 18z m170 394l130-131l-113 0c-9 0-17 8-17 17z m-85-301l0-8l-18 0l0-55l-9 0l0 55l-18 0l0 8z m16 0l0-63l-9 0l0 63z m49 0l0-8l-26 0l0-21l24 0l0-7l-24 0l0-27l-9 0l0 63z m45 0l0-8l-26 0l0-21l25 0l0-7l-25 0l0-27l-9 0l0 63z"/>
<glyph unicode="&#44;" d="M107 67l0 376c0 10 8 18 17 18l153 0l130-131l0-263c0-10-7-18-17-18l-266 0c-9 0-17 8-17 18z m170 394l130-131l-113 0c-9 0-17 8-17 17z m-55-301l9 0l-18-63l-9 0l-15 51l-15-51l-9 0l-18 63l9 0l14-50l15 50l9 0l14-50z m43 0l26-63l-10 0l-7 16l-27 0l-6-16l-9 0l25 63z m-15-39l22 0l-11 28z m86 39l9 0l-23-63l-8 0l-23 63l9 0l18-50z"/>
<glyph unicode="&#45;" d="M107 67l0 376c0 10 8 18 17 18l153 0l130-131l0-263c0-10-7-18-17-18l-266 0c-9 0-17 8-17 18z m170 394l130-131l-113 0c-9 0-17 8-17 17z m-115-304l0-60l-9 0l0 60z m64 0l0-60l-8 0l-35 48c0-6 0-11 0-16l0-32l-8 0l0 60l9 0l34-47c0 5 0 10 0 15l0 32z m34-24l25-36l-11 0l-20 30l-6-6l0-24l-8 0l0 60l8 0l0-26l25 26l10 0z"/>
<glyph unicode="&#46;" d="M107 67l0 376c0 10 8 18 17 18l153 0l130-131l0-263c0-10-7-18-17-18l-266 0c-9 0-17 8-17 18z m170 394l130-131l-113 0c-9 0-17 8-17 17z m-80-346c0-6-3-11-7-14c-4-3-9-4-16-4l-20 0l0 63l17 0c6 0 11-1 15-3c4-3 6-7 6-13c0-3-1-6-2-9c-2-2-5-4-7-5l0 0c4-1 7-3 10-5c2-3 4-6 4-10z m-14 28c0 4-1 6-4 8c-2 1-5 2-8 2l-9 0l0-20l8 0c4 0 8 0 9 2c3 2 4 4 4 8z m5-28c0 4-2 7-5 9c-2 1-6 2-11 2l-10 0l0-22l10 0c5 0 9 1 11 2c3 2 5 5 5 9z m28 45l0-63l-9 0l0 63z m67 0l0-63l-8 0l-37 50c1-6 1-11 1-17l0-33l-9 0l0 63l9 0l36-50c0 5 0 11 0 16l0 34z"/>
<glyph unicode="&#47;" d="M107 67l0 376c0 10 8 18 17 18l153 0l130-131l0-263c0-10-7-18-17-18l-266 0c-9 0-17 8-17 18z m170 394l130-131l-113 0c-9 0-17 8-17 17z m-76-350l4-6c-5-6-13-9-23-9c-9 0-17 3-23 9c-6 6-9 13-9 23c0 10 3 18 9 24c6 6 14 9 23 9c9 0 17-3 23-9l-4-7c-2 2-4 4-7 5c-4 2-7 3-11 3c-7 0-13-2-17-7c-5-4-7-10-7-18c0-7 2-13 7-17c4-5 10-7 17-7c7 0 14 2 18 7z m40 49l26-63l-10 0l-7 16l-27 0l-6-16l-10 0l26 63z m-15-39l22 0l-11 28z m91-6c0-6-3-11-7-14c-3-3-9-4-16-4l-20 0l0 63l17 0c6 0 11-1 15-3c4-3 6-7 6-13c0-3-1-6-2-9c-2-2-5-4-7-5l0 0c4-1 7-3 10-5c2-3 4-6 4-10z m-14 28c0 4-1 6-4 8c-2 1-5 2-8 2l-9 0l0-20l8 0c4 0 8 0 9 2c3 2 4 4 4 8z m5-28c0 4-2 7-5 9c-2 1-6 2-11 2l-10 0l0-22l10 0c5 0 9 1 11 2c3 2 5 5 5 9z"/>
<glyph unicode="&#58;" d="M107 67l0 376c0 10 8 18 17 18l153 0l130-131l0-263c0-10-7-18-17-18l-266 0c-9 0-17 8-17 18z m170 394l130-131l-113 0c-9 0-17 8-17 17z m-68-331l0-24c-7-7-16-10-27-10c-9 0-17 3-23 9c-6 6-9 14-9 23c0 10 3 18 9 24c6 6 14 9 23 9c10 0 19-4 25-11l1 0l-6-6c-6 6-12 9-20 9c-7 0-12-2-16-7c-5-4-7-10-7-18c0-7 2-13 7-18c4-4 10-7 17-7c7 0 13 2 17 5l0 1l0 14l-17 0l0 7z m22 30l0-63l-9 0l0 63z m48 0l0-8l-26 0l0-21l25 0l0-7l-25 0l0-27l-9 0l0 63z"/>
<glyph unicode="&#59;" d="M107 67l0 376c0 10 8 18 17 18l153 0l130-131l0-263c0-10-7-18-17-18l-266 0c-9 0-17 8-17 18z m170 394l130-131l-113 0c-9 0-17 8-17 17z m-88-301l0-8l-27 0l0-21l25 0l0-7l-25 0l0-27l-8 0l0 63z m41-56l0-7l-31 0l0 63l8 0l0-56z m34 56l26-63l-10 0l-6 16l-28 0l-6-16l-9 0l25 63z m-15-39l22 0l-11 28z m96-10l4-6c-6-6-14-9-23-9c-10 0-17 3-24 9c-6 6-9 13-9 23c0 10 3 18 10 24c6 6 13 9 23 9c9 0 16-3 22-9l-4-7c-1 2-4 4-7 5c-3 2-7 3-11 3c-7 0-13-2-17-7c-4-4-7-10-7-18c0-7 3-13 7-17c5-5 10-7 17-7c8 0 14 2 19 7z"/>
<glyph unicode="&#60;" d="M276 461l132 0l0-132l-132 0z m1-114l0 114l130-131l-113 0c-9 0-17 8-17 17z m-170-280l0 376c0 10 8 18 17 18l153 0l130-131l0-263c0-10-7-18-17-18l-266 0c-9 0-17 8-17 18z m108 93l6-63l-9 0l-4 49l-1 0l-19-50l-5 0l-19 50l0 0l-4-49l-9 0l5 63l11 0l19-49l0 0l18 49z m61-42l0-8l-9 0l0-13l-8 0l0 13l-32 0l0 7l31 43l9 0l0-42z m-41 0l24 0l0 32z m93-3c0-6-2-11-7-14c-3-3-8-4-16-4l-20 0l0 63l17 0c7 0 12-1 15-3c4-3 7-7 7-13c0-3-1-6-3-9c-2-2-4-4-7-5l0 0c4-1 8-3 10-5c3-3 4-6 4-10z m-13 28c0 4-2 6-4 8c-2 1-5 2-9 2l-8 0l0-20l7 0c5 0 8 0 10 2c2 2 4 4 4 8z m4-28c0 4-2 7-5 9c-2 1-6 2-11 2l-9 0l0-22l9 0c6 0 9 1 11 2c3 2 5 5 5 9z"/>
<glyph unicode="&#61;" d="M107 67l0 376c0 10 8 18 17 18l153 0l130-131l0-263c0-10-7-18-17-18l-266 0c-9 0-17 8-17 18z m170 394l130-131l-113 0c-9 0-17 8-17 17z m-62-301l6-63l-9 0l-4 49l-1 0l-19-50l-5 0l-19 50l0 0l-4-49l-9 0l5 63l11 0l19-49l0 0l18 49z m56-18c0-6-2-10-7-14c-3-3-8-4-15-4l-9 0l0-27l-8 0l0 63l17 0c7 0 12-2 15-5c5-3 7-8 7-13z m-13-9c2 2 3 5 3 9c0 3-1 6-3 8c-3 2-6 3-9 3l-9 0l0-22l9 0c3 0 6 1 9 2z m63-19c0-5-2-10-6-13c-5-3-10-5-17-5c-8 0-15 3-20 10l5 6c1-1 1-2 2-3c1-1 3-2 6-4c2-1 5-2 7-2c4 0 8 1 10 3c3 2 4 5 4 9c0 3-1 6-3 8c-3 2-6 3-10 3l-4 0l0 7l4 0c4 0 6 1 8 3c2 2 4 4 4 7c0 4-2 6-4 8c-2 2-5 3-8 3c-6 0-11-3-15-8l-5 6c3 2 6 5 9 6c3 2 7 3 11 3c6 0 10-2 14-5c4-3 6-7 6-12c0-4-1-7-3-9c-2-3-4-4-7-5l0 0c3-1 6-2 8-5c3-3 4-6 4-11z m-263 391l0-32c0 0 0-1 1-1l13 0l11 11l0 22c0 1-1 2-1 2l-23 0c-1 0-1-1-1-2z"/>
<glyph unicode="&#62;" d="M107 67l0 376c0 10 8 18 17 18l153 0l130-131l0-263c0-10-7-18-17-18l-266 0c-9 0-17 8-17 18z m170 394l130-131l-113 0c-9 0-17 8-17 17z m-62-301l6-63l-9 0l-4 49l-1 0l-19-50l-5 0l-19 50l0 0l-4-49l-9 0l5 63l11 0l19-49l0 0l18 49z m25 0l0-63l-8 0l0 63z m57-8c6-6 10-14 10-24c0-9-4-17-10-23c-6-6-14-8-24-8l-19 0l0 63l19 0c10 0 18-3 24-8z m0-24c0 8-2 14-7 18c-4 4-10 6-17 6l-10 0l0-48l10 0c7 0 13 2 17 6c5 5 7 11 7 18z"/>
<glyph unicode="&#63;" d="M107 67l0 376c0 10 8 18 17 18l153 0l130-131l0-263c0-10-7-18-17-18l-266 0c-9 0-17 8-17 18z m170 394l130-131l-113 0c-9 0-17 8-17 17z m-71-309c6-6 9-14 9-24c0-10-3-18-9-23c-7-6-14-9-23-9c-10 0-17 3-24 9c-6 5-9 13-9 23c0 10 3 18 9 24c7 6 14 9 24 9c9 0 16-3 23-9z m-7-42c5 5 7 11 7 18c0 8-2 14-7 18c-4 5-10 7-16 7c-7 0-13-2-17-7c-5-4-7-10-7-18c0-7 2-13 7-18c4-4 10-6 17-6c6 0 12 2 16 6z m64 50l0-8l-17 0l0-55l-9 0l0 55l-18 0l0 8z m17 0l0-63l-9 0l0 63z"/>
<glyph unicode="&#64;" d="M107 67l0 376c0 10 8 18 17 18l153 0l130-131l0-263c0-10-7-18-17-18l-266 0c-9 0-17 8-17 18z m170 394l130-131l-113 0c-9 0-17 8-17 17z m-84-319c0-6-2-10-6-14c-4-3-9-4-16-4l-9 0l0-27l-8 0l0 63l17 0c7 0 12-2 16-5c4-3 6-8 6-13z m-13-9c2 2 3 5 3 9c0 3-1 6-3 8c-3 2-6 3-9 3l-9 0l0-22l9 0c3 0 6 1 9 2z m65 19c6-6 9-14 9-24c0-9-3-17-9-23c-6-6-14-8-24-8l-19 0l0 63l19 0c10 0 18-3 24-8z m0-24c0 8-2 14-7 18c-4 4-10 6-17 6l-10 0l0-48l10 0c7 0 13 2 17 6c5 5 7 11 7 18z m55 32l0-8l-26 0l0-21l24 0l0-7l-24 0l0-27l-9 0l0 63z"/>
<glyph unicode="&#91;" d="M107 67l0 376c0 10 8 18 17 18l153 0l130-131l0-263c0-10-7-18-17-18l-266 0c-9 0-17 8-17 18z m170 394l130-131l-113 0c-9 0-17 8-17 17z m-99-336l18-28l-10 0l-17 27l-7 0l0-27l-8 0l0 63l17 0c7 0 12-2 16-5c4-3 6-7 6-13c0-5-2-9-5-12c-2-3-6-5-10-5z m5 17c0 4-1 6-4 8c-2 2-5 2-10 2l-7 0l0-21l7 0c5 0 8 1 10 2c3 2 4 5 4 9z m46 18l26-63l-10 0l-6 16l-27 0l-7-16l-9 0l26 63z m-15-39l22 0l-11 28z m116 39l10 0l-19-63l-8 0l-15 51l-15-51l-9 0l-18 63l9 0l14-50l14 50l9 0l15-50z"/>
<glyph unicode="&#93;" d="M107 67l0 376c0 10 8 18 17 18l153 0l130-131l0-263c0-10-7-18-17-18l-266 0c-9 0-17 8-17 18z m170 394l130-131l-113 0c-9 0-17 8-17 17z m-84-319c0-6-2-10-6-14c-4-3-9-4-16-4l-9 0l0-27l-8 0l0 63l17 0c7 0 12-2 16-5c4-3 6-8 6-13z m-13-9c2 2 3 5 3 9c0 3-1 6-3 8c-3 2-6 2-9 2l-9 0l0-21l9 0c3 0 6 1 9 2z m73 27l0-63l-9 0l0 29l-33 0l0-29l-9 0l0 63l9 0l0-26l33 0l0 26z m53-18c0-6-2-10-6-14c-3-3-8-4-15-4l-9 0l0-27l-9 0l0 63l18 0c7 0 12-2 15-5c4-3 6-8 6-13z m-13-9c3 2 4 5 4 9c0 3-1 6-4 8c-2 2-5 2-9 2l-8 0l0-21l8 0c4 0 7 1 9 2z"/>
<glyph unicode="&#94;" d="M107 67l0 376c0 10 8 18 17 18l153 0l130-131l0-263c0-10-7-18-17-18l-266 0c-9 0-17 8-17 18z m170 394l130-131l-113 0c-9 0-17 8-17 17z m-62-301l6-63l-9 0l-4 49l-1 0l-19-50l-5 0l-19 50l0 0l-4-49l-9 0l5 63l11 0l19-49l0 0l18 49z m38-25l26-38l-11 0l-21 31l-7-6l0-25l-8 0l0 63l8 0l0-27l26 27l11 0z m69 25l10 0l-23-63l-8 0l-23 63l9 0l18-50z"/>
<glyph unicode="&#95;" d="M107 67l0 376c0 10 8 18 17 18l153 0l130-131l0-263c0-10-7-18-17-18l-266 0c-9 0-17 8-17 18z m170 394l130-131l-113 0c-9 0-17 8-17 17z m-99-336l18-28l-10 0l-17 27l-7 0l0-27l-8 0l0 63l17 0c7 0 12-2 16-5c4-3 6-7 6-13c0-5-2-9-5-12c-2-3-6-4-10-5z m5 17c0 4-1 6-4 8c-2 2-5 3-10 3l-7 0l0-22l7 0c5 0 8 1 10 2c3 2 4 5 4 9z m46 18l26-63l-10 0l-6 16l-27 0l-7-16l-9 0l26 63z m-15-39l22 0l-11 28z m73 4l18-28l-11 0l-16 27l-7 0l0-27l-9 0l0 63l18 0c6 0 11-2 15-5c4-3 6-7 6-13c0-5-1-9-4-12c-3-3-6-4-10-5z m5 17c0 4-1 6-4 8c-2 2-5 3-10 3l-7 0l0-22l7 0c5 0 8 1 10 2c3 2 4 5 4 9z"/>
<glyph unicode="&#96;" d="M107 67l0 376c0 10 8 18 17 18l153 0l130-131l0-263c0-10-7-18-17-18l-266 0c-9 0-17 8-17 18z m170 394l130-131l-113 0c-9 0-17 8-17 17z m-71-309c6-6 9-14 9-24c0-10-3-18-9-23c-7-6-14-9-23-9c-10 0-17 3-24 9c-6 5-9 13-9 23c0 10 3 18 9 24c7 6 14 9 24 9c9 0 16-3 23-9z m-7-42c5 5 7 11 7 18c0 8-2 14-7 18c-4 5-10 7-16 7c-7 0-13-2-17-7c-5-4-7-10-7-18c0-7 2-13 7-18c4-4 10-6 17-6c6 0 12 2 16 6z m69 42c6-6 10-14 10-24c0-9-4-17-10-23c-6-6-14-8-24-8l-19 0l0 63l19 0c10 0 18-3 24-8z m1-24c0 8-3 14-8 18c-4 4-10 6-17 6l-10 0l0-48l10 0c7 0 13 2 17 6c5 5 8 11 8 18z m67-17l4-6c-6-6-14-9-23-9c-10 0-17 3-23 9c-7 6-10 13-10 23c0 10 3 18 10 24c6 6 13 9 23 9c9 0 16-3 22-9l-4-7c-1 2-4 4-7 5c-3 2-7 3-11 3c-7 0-13-2-17-7c-4-4-6-10-6-18c0-7 2-13 6-17c5-5 10-7 17-7c8 0 14 2 19 7z"/>
<glyph unicode="&#123;" d="M107 67l0 376c0 10 8 18 17 18l153 0l130-131l0-263c0-10-7-18-17-18l-266 0c-9 0-17 8-17 18z m170 394l130-131l-113 0c-9 0-17 8-17 17z m-62-301l6-63l-9 0l-4 49l-1 0l-19-50l-5 0l-19 50l0 0l-4-49l-9 0l5 63l11 0l19-49l0 0l18 49z m55-46c0-5-2-10-7-13c-4-4-9-5-15-5c-3 0-5 0-7 1c-2 0-5 1-6 3c-2 1-3 2-4 3c-1 1-2 2-3 3l5 6c2-2 4-4 7-6c3-2 6-3 9-3c3 0 6 1 9 3c2 2 3 4 3 8c0 1 0 3-1 4c0 1-2 2-3 3c-1 1-2 1-3 2c-1 0-2 1-3 1c-5 2-8 3-10 4c-3 1-5 3-6 5c-3 3-4 6-4 11c0 5 1 9 5 12c4 3 9 5 15 5c7 0 13-3 18-9l-5-6c-4 5-9 7-14 7c-3 0-6-1-8-2c-2-2-3-4-3-7c0-1 1-2 1-3c0-1 1-2 2-3c1-1 2-1 3-2c0 0 1-1 2-1l12-5c3-1 6-3 7-5c3-3 4-7 4-11z m19 46l0-63l-9 0l0 63z"/>
<glyph unicode="&#124;" d="M107 67l0 376c0 10 8 18 17 18l153 0l130-131l0-263c0-10-7-18-17-18l-266 0c-9 0-17 8-17 18z m170 394l130-131l-113 0c-9 0-17 8-17 17z m-115-301l0-63l-8 0l0 63z m53-46c0-5-2-10-7-13c-4-4-9-5-15-5c-3 0-5 0-7 1c-3 0-5 1-7 3c-1 1-3 2-4 3c0 1-1 2-3 3l6 6c1-2 4-4 7-6c2-2 5-3 9-3c3 0 6 1 8 3c3 2 4 4 4 8c0 1 0 3-1 4c-1 1-2 2-3 3c-1 1-3 1-3 2c-1 0-2 1-3 1c-5 2-9 3-10 4c-3 1-5 3-7 5c-2 3-4 6-4 11c0 5 2 9 6 12c4 3 9 5 15 5c6 0 12-3 18-9l-5-6c-4 5-9 7-14 7c-3 0-6-1-8-2c-2-2-3-4-3-7c0-1 0-2 1-3c0-1 1-2 2-3c1-1 2-1 2-2c1 0 2-1 3-1l12-5c3-1 5-3 7-5c3-3 4-7 4-11z m62 38c6-6 9-14 9-24c0-10-3-18-9-23c-6-6-14-9-23-9c-9 0-17 3-23 9c-6 5-10 13-10 23c0 10 4 18 10 24c6 6 14 9 23 9c9 0 17-3 23-9z m-6-42c4 5 6 11 6 18c0 8-2 14-6 18c-5 5-10 7-17 7c-7 0-12-2-17-7c-4-4-6-10-6-18c0-7 2-13 6-18c5-4 10-6 17-6c7 0 12 2 17 6z"/>
<glyph unicode="&#125;" d="M107 67l0 376c0 10 8 18 17 18l153 0l130-131l0-263c0-10-7-18-17-18l-266 0c-9 0-17 8-17 18z m170 394l130-131l-113 0c-9 0-17 8-17 17z m-72-301l0-63l-9 0l0 29l-34 0l0-29l-8 0l0 63l8 0l0-26l34 0l0 26z m52 0l0-8l-18 0l0-55l-9 0l0 55l-18 0l0 8z m69 0l5-63l-8 0l-4 49l-1 0l-19-50l-5 0l-19 50l-1 0l-4-49l-8 0l5 63l11 0l18-49l1 0l18 49z"/>
<glyph unicode="&#126;" d="M107 67l0 376c0 10 8 18 17 18l153 0l130-131l0-263c0-10-7-18-17-18l-266 0c-9 0-17 8-17 18z m170 394l130-131l-113 0c-9 0-17 8-17 17z m-88-301l0-8l-27 0l0-21l25 0l0-7l-25 0l0-27l-8 0l0 63z m41-56l0-7l-31 0l0 63l8 0l0-56z m46 56l9 0l-23-63l-8 0l-23 63l9 0l18-50z"/>
<glyph unicode="&#57407;" d="M107 67l0 376c0 10 8 18 17 18l153 0l130-131l0-263c0-10-7-18-17-18l-266 0c-9 0-17 8-17 18z m170 394l130-131l-113 0c-9 0-17 8-17 17z m-105-338l17-26l-9 0l-12 21l-13-21l-8 0l16 26l-15 24l8 0l12-20l11 20l9 0z m63 24l0-50l-7 0l0 23l-27 0l0-23l-7 0l0 50l7 0l0-21l27 0l0 21z m42 0l0-6l-14 0l0-44l-7 0l0 44l-15 0l0 6z m55 0l4-50l-7 0l-3 39l0 0l-16-40l-4 0l-15 40l0 0l-3-39l-7 0l4 50l9 0l14-39l0 0l15 39z m38-44l0-6l-25 0l0 50l7 0l0-44z"/>
<glyph unicode="&#57344;" d="M107 67l0 376c0 10 8 18 17 18l153 0l130-131l0-263c0-10-7-18-17-18l-266 0c-9 0-17 8-17 18z m170 394l130-131l-113 0c-9 0-17 8-17 17z m-84-319c0-6-2-10-6-14c-4-3-9-4-16-4l-9 0l0-27l-8 0l0 63l17 0c7 0 12-2 16-5c4-3 6-8 6-13z m-13-9c2 2 3 5 3 9c0 3-1 6-3 8c-3 2-6 3-9 3l-9 0l0-22l9 0c3 0 6 1 9 2z m65 19c6-6 9-14 9-24c0-9-3-17-9-23c-6-6-14-8-24-8l-19 0l0 63l19 0c10 0 18-3 24-8z m0-24c0 8-2 14-7 18c-4 4-10 6-17 6l-10 0l0-48l10 0c7 0 13 2 17 6c5 5 7 11 7 18z m62 24c7-6 10-14 10-24c0-9-3-17-10-23c-6-6-14-8-23-8l-19 0l0 63l19 0c9 0 17-3 23-8z m1-24c0 8-3 14-8 18c-4 4-9 6-16 6l-10 0l0-48l10 0c7 0 12 2 16 6c5 5 8 11 8 18z"/>
<glyph unicode="&#57345;" d="M107 67l0 376c0 10 8 18 17 18l153 0l130-131l0-263c0-10-7-18-17-18l-266 0c-9 0-17 8-17 18z m170 394l130-131l-113 0c-9 0-17 8-17 17z m-71-309c6-6 9-14 9-24c0-10-3-18-9-23c-7-6-14-9-23-9c-10 0-17 3-24 9c-6 5-9 13-9 23c0 10 3 18 9 24c7 6 14 9 24 9c9 0 16-3 23-9z m-7-42c5 5 7 11 7 18c0 8-2 14-7 18c-4 5-10 7-16 7c-7 0-13-2-17-7c-5-4-7-10-7-18c0-7 2-13 7-18c4-4 10-6 17-6c6 0 12 2 16 6z m69 42c6-6 10-14 10-24c0-9-4-17-10-23c-6-6-14-8-24-8l-19 0l0 63l19 0c10 0 18-3 24-8z m1-24c0 8-3 14-8 18c-4 4-10 6-17 6l-10 0l0-48l10 0c7 0 13 2 17 6c5 5 8 11 8 18z m74 2l0-24c-7-7-15-10-26-10c-10 0-17 3-23 9c-7 6-10 14-10 23c0 10 3 18 10 24c6 6 13 9 22 9c11 0 19-4 25-11l1 0l-6-6c-5 6-12 9-20 9c-6 0-12-2-16-7c-4-4-6-10-6-18c0-7 2-13 6-18c5-4 10-7 17-7c8 0 13 2 17 5l1 1l0 14l-17 0l0 7z"/>
<glyph unicode="&#57346;" d="M107 67l0 376c0 10 8 18 17 18l153 0l130-131l0-263c0-10-7-18-17-18l-266 0c-9 0-17 8-17 18z m170 394l130-131l-113 0c-9 0-17 8-17 17z m-76-350l4-6c-5-6-13-9-23-9c-9 0-17 3-23 9c-6 6-9 13-9 23c0 10 3 18 9 24c6 6 14 9 23 9c9 0 17-3 23-9l-4-7c-2 2-4 4-7 5c-4 2-7 3-11 3c-7 0-13-2-17-7c-5-4-7-10-7-18c0-7 2-13 7-17c4-5 10-7 17-7c7 0 14 2 18 7z m52 3c0-5-2-10-7-13c-4-4-9-5-15-5c-3 0-5 0-7 1c-3 0-5 1-7 3c-1 1-3 2-4 3c0 1-1 2-3 3l6 6c1-2 4-4 7-6c2-2 5-3 9-3c3 0 6 1 8 3c3 2 4 4 4 8c0 1 0 3-1 4c-1 1-2 2-3 3c-1 1-3 1-3 2c-1 0-2 1-3 1c-5 2-9 3-10 4c-3 1-5 3-7 5c-2 3-4 6-4 11c0 5 2 9 6 12c4 3 9 5 15 5c6 0 12-3 18-9l-5-6c-4 5-9 7-14 7c-3 0-6-1-8-2c-2-2-3-4-3-7c0-1 0-2 1-3c0-1 1-2 2-3c1-1 2-1 2-2c1 0 2-1 3-1l12-5c3-1 5-3 7-5c3-3 4-7 4-11z"/>
<glyph unicode="&#57347;" d="M107 67l0 376c0 10 8 18 17 18l153 0l130-131l0-263c0-10-7-18-17-18l-266 0c-9 0-17 8-17 18z m170 394l130-131l-113 0c-9 0-17 8-17 17z m-115-301l0-63c0-6-1-11-2-13c-3-4-6-6-11-6c-1 0-2 1-3 1c-1 0-2 0-2 0c-1 0-1 0-1 1l0 6c1 0 3 0 5 0c2 0 4 1 4 2c1 2 2 5 2 9l0 63z m53-18c0-6-2-10-6-14c-3-3-8-4-15-4l-9 0l0-27l-9 0l0 63l18 0c7 0 12-2 15-5c4-3 6-8 6-13z m-13-9c3 2 4 5 4 9c0 3-1 6-4 8c-2 2-5 2-9 2l-8 0l0-21l8 0c4 0 7 1 9 2z m60-29l0-7l-37 0l0 63l37 0l0-8l-28 0l0-19l26 0l0-7l-26 0l0-22z m67 26l0-24c-7-7-16-10-27-10c-9 0-17 3-23 9c-6 6-9 14-9 23c0 10 3 18 9 24c6 6 14 9 23 9c10 0 18-4 25-11l0 0l-6-6c-5 6-11 9-19 9c-7 0-12-2-17-7c-4-4-6-10-6-18c0-7 2-13 6-18c5-4 11-7 17-7c8 0 14 2 17 5l1 1l0 14l-17 0l0 7z"/>
<glyph unicode="&#57348;" d="M107 67l0 376c0 10 8 18 17 18l153 0l130-131l0-263c0-10-7-18-17-18l-266 0c-9 0-17 8-17 18z m170 394l130-131l-113 0c-9 0-17 8-17 17z m-115-301l0-63l-8 0l0 63z m68 0l0-63l-9 0l-36 50c0-6 0-11 0-17l0-33l-9 0l0 63l10 0l35-50c0 5 0 11 0 16l0 34z m56-8c7-6 10-14 10-24c0-9-3-17-10-23c-6-6-13-8-23-8l-19 0l0 63l19 0c10 0 17-3 23-8z m1-24c0 8-2 14-7 18c-5 4-10 6-17 6l-10 0l0-48l10 0c7 0 12 2 17 6c5 5 7 11 7 18z m62 24c7-6 10-14 10-24c0-9-3-17-10-23c-6-6-14-8-24-8l-19 0l0 63l19 0c10 0 18-3 24-8z m1-24c0 8-3 14-8 18c-4 4-10 6-17 6l-10 0l0-48l10 0c8 0 13 2 17 6c5 5 8 11 8 18z"/>
<glyph unicode="&#57349;" d="M107 67l0 376c0 10 8 18 17 18l153 0l130-131l0-263c0-10-7-18-17-18l-266 0c-9 0-17 8-17 18z m170 394l130-131l-113 0c-9 0-17 8-17 17z m-62-301l6-63l-9 0l-4 49l-1 0l-19-50l-5 0l-19 50l0 0l-4-49l-9 0l5 63l11 0l19-49l0 0l18 49z m61-42l0-8l-9 0l0-13l-8 0l0 13l-32 0l0 7l31 43l9 0l0-42z m-41 0l24 0l0 32z m77 42l25-63l-9 0l-7 16l-27 0l-6-16l-10 0l26 63z m-16-39l23 0l-12 28z"/>
<glyph unicode="&#57350;" d="M107 67l0 376c0 10 8 18 17 18l153 0l130-131l0-263c0-10-7-18-17-18l-266 0c-9 0-17 8-17 18z m170 394l130-131l-113 0c-9 0-17 8-17 17z m-62-301l6-63l-9 0l-4 49l-1 0l-19-50l-5 0l-19 50l0 0l-4-49l-9 0l5 63l11 0l19-49l0 0l18 49z m56-18c0-6-2-10-7-14c-3-3-8-4-15-4l-9 0l0-27l-8 0l0 63l17 0c7 0 12-2 15-5c5-3 7-8 7-13z m-13-9c2 2 3 5 3 9c0 3-1 6-3 8c-3 2-6 3-9 3l-9 0l0-22l9 0c3 0 6 1 9 2z m77-3l0-24c-6-7-15-10-26-10c-10 0-17 3-23 9c-6 6-10 14-10 23c0 10 3 18 10 24c6 6 13 9 23 9c10 0 18-4 25-11l0 0l-6-6c-5 6-12 9-19 9c-7 0-13-2-17-7c-4-4-6-10-6-18c0-7 2-13 6-18c5-4 10-7 17-7c8 0 13 2 17 5l1 1l0 14l-17 0l0 7z"/>
<glyph unicode="&#57351;" d="M107 67l0 376c0 10 8 18 17 18l153 0l130-131l0-263c0-10-7-18-17-18l-266 0c-9 0-17 8-17 18z m170 394l130-131l-113 0c-9 0-17 8-17 17z m-71-309c6-6 9-14 9-24c0-10-3-18-9-23c-7-6-14-9-23-9c-10 0-17 3-24 9c-6 5-9 13-9 23c0 10 3 18 9 24c7 6 14 9 24 9c9 0 16-3 23-9z m-7-42c5 5 7 11 7 18c0 8-2 14-7 18c-4 5-10 7-16 7c-7 0-13-2-17-7c-5-4-7-10-7-18c0-7 2-13 7-18c4-4 10-6 17-6c6 0 12 2 16 6z m64 50l0-8l-17 0l0-55l-9 0l0 55l-18 0l0 8z m46 0l0-8l-18 0l0-55l-8 0l0 55l-18 0l0 8z m-260 346l0-32c0-1 1-2 2-2l13 0l11 11l0 23c0 0-1 1-2 1l-22 0c-1 0-2-1-2-1z"/>
<glyph unicode="&#57352;" d="M107 67l0 376c0 10 8 18 17 18l153 0l130-131l0-263c0-10-7-18-17-18l-266 0c-9 0-17 8-17 18z m170 394l130-131l-113 0c-9 0-17 8-17 17z m-62-333c0-9-3-17-9-23l7-8l-6-5l-7 8c-5-3-11-4-17-4c-10 0-17 3-24 9c-6 5-9 13-9 23c0 10 3 18 9 24c7 6 14 9 24 9c9 0 16-3 23-9c6-6 9-14 9-24z m-9 0c0 8-2 14-7 18c-4 5-10 7-16 7c-7 0-13-2-17-7c-5-4-7-10-7-18c0-7 2-13 7-18c4-4 10-6 17-6c4 0 8 1 12 3l-6 6l6 5l5-6c4 4 6 10 6 16z m45 1l20-32l-10 0l-16 26l-16-26l-11 0l21 32l-19 31l10 0l15-25l14 25l11 0z m70 23c6-6 9-14 9-24c0-9-3-17-9-23c-6-6-14-8-24-8l-19 0l0 63l19 0c10 0 18-3 24-8z m0-24c0 8-2 14-7 18c-4 4-10 6-17 6l-10 0l0-48l10 0c7 0 13 2 17 6c5 5 7 11 7 18z"/>
<glyph unicode="&#57353;" d="M107 67l0 376c0 10 8 18 17 18l153 0l130-131l0-263c0-10-7-18-17-18l-266 0c-9 0-17 8-17 18z m170 394l130-131l-113 0c-9 0-17 8-17 17z m-85-347c0-5-2-10-6-13c-5-4-10-5-16-5c-2 0-5 0-7 1c-2 0-4 1-6 3c-2 1-3 2-4 3c-1 1-2 2-3 3l5 6c2-2 4-4 7-6c3-2 6-3 9-3c3 0 6 1 9 3c2 2 3 4 3 8c0 1 0 3-1 4c0 1-1 2-3 3c-1 1-2 1-3 2c-1 0-2 1-3 1c-5 2-8 3-10 4c-3 1-5 3-6 5c-3 3-4 6-4 11c0 5 1 9 5 12c4 3 9 5 15 5c7 0 13-3 18-9l-5-6c-4 5-9 7-14 7c-3 0-5-1-8-2c-2-2-3-4-3-7c0-1 1-2 1-3c1-1 1-2 2-3c1-1 2-1 3-2c0 0 1-1 3-1l11-5c3-1 6-3 7-5c3-3 4-7 4-11z m48 46l10 0l-24-63l-7 0l-24 63l10 0l18-50z m72-30l0-24c-7-7-16-10-27-10c-9 0-16 3-23 9c-6 6-9 14-9 23c0 10 3 18 9 24c6 6 14 9 23 9c10 0 19-4 25-11l1 0l-6-6c-5 6-12 9-20 9c-6 0-12-2-16-7c-5-4-7-10-7-18c0-7 3-13 7-18c4-4 10-7 17-7c7 0 13 2 17 5l0 1l0 14l-17 0l0 7z"/>
<glyph unicode="&#57354;" d="M107 67l0 376c0 10 8 18 17 18l153 0l130-131l0-263c0-10-7-18-17-18l-266 0c-9 0-17 8-17 18z m170 394l130-131l-113 0c-9 0-17 8-17 17z m-85-301l0-8l-18 0l0-55l-9 0l0 55l-18 0l0 8z m63-30l0-24c-7-7-16-10-27-10c-9 0-17 3-23 9c-6 6-9 14-9 23c0 10 3 18 9 24c6 6 14 9 23 9c10 0 18-4 25-11l0 0l-6-6c-5 6-11 9-19 9c-7 0-12-2-17-7c-4-4-6-10-6-18c0-7 2-13 7-18c4-4 10-7 16-7c8 0 14 2 17 5l1 1l0 14l-17 0l0 7z m55-26l0-7l-47 0l0 6l35 49l-34 0l0 8l45 0l0-6l-35-50z"/>
<glyph unicode="&#57355;" d="M107 67l0 376c0 10 8 18 17 18l153 0l130-131l0-263c0-10-7-18-17-18l-266 0c-9 0-17 8-17 18z m170 394l130-131l-113 0c-9 0-17 8-17 17z m-55-301l9 0l-18-63l-9 0l-15 51l-15-51l-9 0l-18 63l9 0l14-50l15 50l9 0l14-50z m78 0l5-63l-8 0l-5 49l0 0l-19-50l-5 0l-19 50l-1 0l-4-49l-8 0l5 63l11 0l18-49l1 0l18 49z m54 0l10 0l-23-63l-8 0l-24 63l10 0l18-50z"/>
<glyph unicode="&#57356;" d="M107 67l0 376c0 10 8 18 17 18l153 0l130-131l0-263c0-10-7-18-17-18l-266 0c-9 0-17 8-17 18z m170 394l130-131l-113 0c-9 0-17 8-17 17z m-98-332l21-32l-11 0l-16 26l-16-26l-10 0l20 32l-19 31l10 0l15-25l15 25l10 0z m58-25l0-7l-31 0l0 63l9 0l0-56z m47 10c0-5-2-10-7-13c-4-4-9-5-15-5c-3 0-5 0-7 1c-3 0-5 1-6 3c-2 1-4 2-5 3c0 1-1 2-3 3l6 6c1-2 4-4 7-6c2-2 5-3 9-3c3 0 6 1 8 3c3 2 4 4 4 8c0 1 0 3-1 4c-1 1-2 2-3 3c-1 1-2 1-3 2c-1 0-2 1-3 1c-5 2-9 3-10 4c-3 1-5 3-7 5c-2 3-4 6-4 11c0 5 2 9 6 12c4 3 9 5 15 5c6 0 12-3 18-9l-5-6c-4 5-9 7-14 7c-3 0-6-1-8-2c-2-2-3-4-3-7c0-1 0-2 1-3c0-1 1-2 2-3c1-1 2-1 2-2c1 0 2-1 3-1l12-5c3-1 5-3 7-5c3-3 4-7 4-11z"/>
<glyph unicode="&#57357;" d="M107 67l0 376c0 10 8 18 17 18l153 0l130-131l0-263c0-10-7-18-17-18l-266 0c-9 0-17 8-17 18z m170 394l130-131l-113 0c-9 0-17 8-17 17z m-97-301l26-63l-10 0l-6 16l-28 0l-6-16l-9 0l25 63z m-15-39l22 0l-11 28z m57 39l0-63l-9 0l0 63z m61-49l4-6c-5-6-13-9-23-9c-9 0-17 3-23 9c-6 6-9 13-9 23c0 10 3 18 9 24c6 6 14 9 23 9c10 0 17-3 23-9l-4-7c-2 2-4 4-7 5c-4 2-7 3-11 3c-7 0-13-2-17-7c-5-4-7-10-7-18c0-7 2-13 7-17c4-5 10-7 17-7c8 0 14 2 18 7z m48 49l0-8l-26 0l0-21l25 0l0-7l-25 0l0-27l-9 0l0 63z"/>
<glyph unicode="&#57358;" d="M107 67l0 376c0 10 8 18 17 18l153 0l130-131l0-263c0-10-7-18-17-18l-266 0c-9 0-17 8-17 18z m170 394l130-131l-113 0c-9 0-17 8-17 17z m-97-301l26-63l-10 0l-6 16l-28 0l-6-16l-9 0l25 63z m-15-39l22 0l-11 28z m86-7c0-5-2-10-6-13c-4-4-9-5-16-5c-2 0-5 0-7 1c-2 0-4 1-6 3c-2 1-3 2-4 3c-1 1-2 2-3 3l5 6c2-2 4-4 7-6c3-2 6-3 9-3c4 0 7 1 9 3c2 2 4 4 4 8c0 1-1 3-1 4c-1 1-2 2-3 3c-2 1-3 1-4 2c0 0-1 1-3 1c-5 2-8 3-10 4c-2 1-4 3-6 5c-3 3-4 6-4 11c0 5 2 9 6 12c3 3 8 5 14 5c7 0 13-3 18-9l-4-6c-5 5-9 7-14 7c-3 0-6-1-8-2c-2-2-3-4-3-7c0-1 0-2 0-3c1-1 2-2 2-3c1-1 2-1 3-2c1 0 2-1 3-1l11-5c4-1 6-3 8-5c2-3 3-7 3-11z m36 15l21-32l-11 0l-16 26l-16-26l-10 0l20 32l-19 31l10 0l15-25l15 25l10 0z"/>
<glyph unicode="&#57359;" d="M107 67l0 376c0 10 8 18 17 18l153 0l130-131l0-263c0-10-7-18-17-18l-266 0c-9 0-17 8-17 18z m170 394l130-131l-113 0c-9 0-17 8-17 17z m-76-350l4-6c-5-6-13-9-23-9c-9 0-17 3-23 9c-6 6-9 13-9 23c0 10 3 18 9 24c6 6 14 9 23 9c9 0 17-3 23-9l-4-7c-2 2-4 4-7 5c-4 2-7 3-11 3c-7 0-13-2-17-7c-5-4-7-10-7-18c0-7 2-13 7-17c4-5 10-7 17-7c7 0 14 2 18 7z m56 41c6-6 10-14 10-24c0-9-4-17-10-23c-6-6-14-8-24-8l-19 0l0 63l19 0c10 0 18-3 24-8z m1-24c0 8-3 14-8 18c-4 4-10 6-17 6l-10 0l0-48l10 0c7 0 13 2 17 6c5 5 8 11 8 18z m45 32l26-63l-10 0l-6 16l-27 0l-7-16l-9 0l26 63z m-15-39l22 0l-11 28z"/>
<glyph unicode="&#57360;" d="M107 67l0 376c0 10 8 18 17 18l153 0l130-131l0-263c0-10-7-18-17-18l-266 0c-9 0-17 8-17 18z m170 394l130-131l-113 0c-9 0-17 8-17 17z m-85-347c0-5-2-10-6-13c-5-4-10-5-16-5c-2 0-5 0-7 1c-2 0-4 1-6 3c-2 1-3 2-4 3c-1 1-2 2-3 3l5 6c2-2 4-4 7-6c3-2 6-3 9-3c3 0 6 1 9 3c2 2 3 4 3 8c0 1 0 3-1 4c0 1-1 2-3 3c-1 1-2 1-3 2c-1 0-2 1-3 1c-5 2-8 3-10 4c-3 1-5 3-6 5c-3 3-4 6-4 11c0 5 1 9 5 12c4 3 9 5 15 5c7 0 13-3 18-9l-5-6c-4 5-9 7-14 7c-3 0-5-1-8-2c-2-2-3-4-3-7c0-1 1-2 1-3c1-1 1-2 2-3c1-1 2-1 3-2c0 0 1-1 3-1l11-5c3-1 6-3 7-5c3-3 4-7 4-11z m19 46l0-63l-9 0l0 63z m52 0l0-8l-18 0l0-55l-8 0l0 55l-18 0l0 8z m33-31l21-32l-11 0l-16 26l-16-26l-10 0l21 32l-20 31l11 0l14-25l15 25l10 0z"/>
<glyph unicode="&#57361;" d="M107 67l0 376c0 10 8 18 17 18l153 0l130-131l0-263c0-10-7-18-17-18l-266 0c-9 0-17 8-17 18z m170 394l130-131l-113 0c-9 0-17 8-17 17z m-115-301l0-63c0-6-1-11-2-13c-3-4-6-6-11-6c-1 0-2 1-3 1c-1 0-2 0-2 0c-1 0-1 0-1 1l0 6c1 0 3 0 5 0c2 0 4 1 4 2c1 2 2 5 2 9l0 63z m41 0l26-63l-10 0l-7 16l-27 0l-6-16l-10 0l26 63z m-15-39l22 0l-11 28z m72 4l18-28l-10 0l-17 27l-7 0l0-27l-8 0l0 63l17 0c7 0 12-2 16-5c4-3 6-7 6-13c0-5-2-9-5-12c-2-3-6-5-10-5z m6 17c0 4-2 6-4 8c-3 2-6 2-11 2l-7 0l0-21l7 0c5 0 8 1 11 2c2 2 4 5 4 9z"/>
<glyph unicode="&#57362;" d="M107 67l0 376c0 10 8 18 17 18l153 0l130-131l0-263c0-10-7-18-17-18l-266 0c-9 0-17 8-17 18z m170 394l130-131l-113 0c-9 0-17 8-17 17z m-62-301l6-63l-9 0l-4 49l-1 0l-19-50l-5 0l-19 50l0 0l-4-49l-9 0l5 63l11 0l19-49l0 0l18 49z m56-18c0-6-2-10-7-14c-3-3-8-4-15-4l-9 0l0-27l-8 0l0 63l17 0c7 0 12-2 15-5c5-3 7-8 7-13z m-13-9c2 2 3 5 3 9c0 3-1 6-3 8c-3 2-6 2-9 2l-9 0l0-21l9 0c3 0 6 1 9 2z m65-29l0-7l-43 0l-1 6l22 21c3 3 6 6 7 8c2 3 3 6 3 9c0 4-1 7-3 9c-3 2-6 3-10 3c-6 0-11-3-15-10l-5 5c1 3 4 6 7 9c4 2 8 4 14 4c6 0 11-2 15-5c4-4 6-8 6-14c0-2-1-5-1-7c-1-2-2-4-4-6c-1-2-3-4-4-5c-1-1-2-2-4-4c0 0 0 0 0-1l-17-15z"/>
<glyph unicode="&#57363;" d="M107 67l0 376c0 10 8 18 17 18l153 0l130-131l0-263c0-10-7-18-17-18l-266 0c-9 0-17 8-17 18z m170 394l130-131l-113 0c-9 0-17 8-17 17z m-72-301l0-63l-9 0l0 29l-34 0l0-29l-8 0l0 63l8 0l0-26l34 0l0 26z"/>
<glyph unicode="&#57364;" d="M107 67l0 376c0 10 8 18 17 18l153 0l130-131l0-263c0-10-7-18-17-18l-266 0c-9 0-17 8-17 18z m170 394l130-131l-113 0c-9 0-17 8-17 17z m-68-331l0-24c-7-7-16-10-27-10c-9 0-17 3-23 9c-6 6-9 14-9 23c0 10 3 18 9 24c6 6 14 9 23 9c10 0 19-4 25-11l1 0l-6-6c-6 6-12 9-20 9c-7 0-12-2-16-7c-5-4-7-10-7-18c0-7 2-13 7-18c4-4 10-7 17-7c7 0 13 2 17 5l0 1l0 14l-17 0l0 7z m55-26l0-7l-46 0l0 6l34 49l-33 0l0 8l45 0l0-6l-35-50z"/>
<glyph unicode="&#57365;" d="M107 67l0 376c0 10 8 18 17 18l153 0l130-131l0-263c0-10-7-18-17-18l-266 0c-9 0-17 8-17 18z m170 394l130-131l-113 0c-9 0-17 8-17 17z m-62-301l6-63l-9 0l-4 49l-1 0l-19-50l-5 0l-19 50l0 0l-4-49l-9 0l5 63l11 0l19-49l0 0l18 49z m61-42l0-8l-9 0l0-13l-8 0l0 13l-32 0l0 7l31 43l9 0l0-42z m-41 0l24 0l0 32z m89 24c0-6-2-10-6-14c-3-3-9-4-15-4l-9 0l0-27l-9 0l0 63l18 0c6 0 12-2 15-5c4-3 6-8 6-13z m-13-9c3 2 4 5 4 9c0 3-1 6-4 8c-2 2-5 2-9 2l-8 0l0-21l8 0c4 0 7 1 9 2z"/>
<glyph unicode="&#57366;" d="M107 67l0 376c0 10 8 18 17 18l153 0l130-131l0-263c0-10-7-18-17-18l-266 0c-9 0-17 8-17 18z m170 394l130-131l-113 0c-9 0-17 8-17 17z m-84-319c0-6-2-10-6-14c-4-3-9-4-16-4l-9 0l0-27l-8 0l0 63l17 0c7 0 12-2 16-5c4-3 6-8 6-13z m-13-9c2 2 3 5 3 9c0 3-1 6-3 8c-3 2-6 3-9 3l-9 0l0-22l9 0c3 0 6 1 9 2z m70 27l0-38c0-4-1-8-1-11c-1-3-2-5-4-8c-5-5-11-7-19-7c-9 0-15 2-19 7c-2 3-4 5-4 8c-1 3-1 7-1 11l0 38l9 0l0-37c0-2 0-4 0-5c0-1 0-3 0-5c1-1 2-3 2-4c3-4 7-5 13-5c5 0 9 1 12 5c1 1 1 3 2 4c0 2 0 4 1 5c0 1 0 3 0 5l0 37z m56-45c0-6-2-11-7-14c-3-3-8-4-16-4l-20 0l0 63l17 0c7 0 12-1 15-3c4-3 7-7 7-13c0-3-1-6-3-9c-2-2-4-4-7-5l0 0c4-1 8-3 10-5c3-3 4-6 4-10z m-13 28c0 4-2 6-4 8c-2 1-5 2-9 2l-8 0l0-20l7 0c5 0 8 0 10 2c2 2 4 4 4 8z m4-28c0 4-2 7-5 9c-2 1-6 2-11 2l-9 0l0-22l9 0c6 0 9 1 11 2c3 2 5 5 5 9z"/>
<glyph unicode="&#57367;" d="M107 67l0 376c0 10 8 18 17 18l153 0l130-131l0-263c0-10-7-18-17-18l-266 0c-9 0-17 8-17 18z m170 394l130-131l-113 0c-9 0-17 8-17 17z m-84-319c0-6-2-10-6-14c-4-3-9-4-16-4l-9 0l0-27l-8 0l0 63l17 0c7 0 12-2 16-5c4-3 6-8 6-13z m-13-9c2 2 3 5 3 9c0 3-1 6-3 8c-3 2-6 2-9 2l-9 0l0-21l9 0c3 0 6 1 9 2z m61-19c0-5-3-10-7-13c-4-4-9-5-15-5c-3 0-5 0-8 1c-2 0-4 1-6 3c-2 1-3 2-4 3c-1 1-2 2-3 3l5 6c2-2 5-4 7-6c3-2 6-3 9-3c4 0 7 1 9 3c3 2 4 4 4 8c0 1-1 3-1 4c-1 1-2 2-3 3c-2 1-3 1-3 2c-1 0-2 1-4 1c-4 2-8 3-10 4c-2 1-4 3-6 5c-3 3-4 6-4 11c0 5 2 9 6 12c3 3 8 5 14 5c7 0 13-3 18-9l-4-6c-5 5-9 7-14 7c-3 0-6-1-8-2c-2-2-3-4-3-7c0-1 0-2 1-3c0-1 1-2 2-3c0-1 1-1 2-2c1 0 2-1 3-1l12-5c3-1 5-3 7-5c2-3 4-7 4-11z"/>
<glyph unicode="&#57368;" d="M107 67l0 376c0 10 8 18 17 18l153 0l130-131l0-263c0-10-7-18-17-18l-266 0c-9 0-17 8-17 18z m170 394l130-131l-113 0c-9 0-17 8-17 17z m-71-309c6-6 9-14 9-24c0-10-3-18-9-23c-7-6-14-9-23-9c-10 0-17 3-24 9c-6 5-9 13-9 23c0 10 3 18 9 24c7 6 14 9 24 9c9 0 16-3 23-9z m-7-42c5 5 7 11 7 18c0 8-2 14-7 18c-4 5-10 7-16 7c-7 0-13-2-17-7c-5-4-7-10-7-18c0-7 2-13 7-18c4-4 10-6 17-6c6 0 12 2 16 6z m64 50l0-8l-17 0l0-55l-9 0l0 55l-18 0l0 8z m59 0l0-63l-9 0l0 29l-33 0l0-29l-9 0l0 63l9 0l0-26l33 0l0 26z"/>
<glyph unicode="&#57369;" d="M107 67l0 376c0 10 8 18 17 18l153 0l130-131l0-263c0-10-7-18-17-18l-266 0c-9 0-17 8-17 18z m170 394l130-131l-113 0c-9 0-17 8-17 17z m-71-309c6-6 9-14 9-24c0-10-3-18-9-23c-7-6-14-9-23-9c-10 0-17 3-24 9c-6 5-9 13-9 23c0 10 3 18 9 24c7 6 14 9 24 9c9 0 16-3 23-9z m-7-42c5 5 7 11 7 18c0 8-2 14-7 18c-4 5-10 7-16 7c-7 0-13-2-17-7c-5-4-7-10-7-18c0-7 2-13 7-18c4-4 10-6 17-6c6 0 12 2 16 6z m69 42c6-6 10-14 10-24c0-9-4-17-10-23c-6-6-14-8-24-8l-19 0l0 63l19 0c10 0 18-3 24-8z m1-24c0 8-3 14-8 18c-4 4-10 6-17 6l-10 0l0-48l10 0c7 0 13 2 17 6c5 5 8 11 8 18z m28 32l0-63l-9 0l0 63z"/>
<glyph unicode="&#57370;" d="M107 67l0 376c0 10 8 18 17 18l153 0l130-131l0-263c0-10-7-18-17-18l-266 0c-9 0-17 8-17 18z m170 394l130-131l-113 0c-9 0-17 8-17 17z m-115-301l0-63c0-6-1-11-2-13c-3-4-6-6-11-6c-1 0-2 1-3 1c-1 0-2 0-2 0c-1 0-1 0-1 1l0 6c1 0 3 0 5 0c2 0 4 1 4 2c1 2 2 5 2 9l0 63z m53-18c0-6-2-10-6-14c-3-3-8-4-15-4l-9 0l0-27l-9 0l0 63l18 0c7 0 12-2 15-5c4-3 6-8 6-13z m-13-9c3 2 4 5 4 9c0 3-1 6-4 8c-2 2-5 3-9 3l-8 0l0-22l8 0c4 0 7 1 9 2z m78-3l0-24c-7-7-16-10-27-10c-9 0-16 3-23 9c-6 6-9 14-9 23c0 10 3 18 9 24c6 6 14 9 23 9c10 0 19-4 25-11l1 0l-6-6c-5 6-12 9-20 9c-6 0-12-2-16-7c-5-4-7-10-7-18c0-7 3-13 7-18c4-4 10-7 17-7c7 0 13 2 17 5l0 1l0 14l-16 0l0 7z"/>
<glyph unicode="&#57371;" d="M107 67l0 376c0 10 8 18 17 18l153 0l130-131l0-263c0-10-7-18-17-18l-266 0c-9 0-17 8-17 18z m170 394l130-131l-113 0c-9 0-17 8-17 17z m-76-350l4-6c-5-6-13-9-23-9c-9 0-17 3-23 9c-6 6-9 13-9 23c0 10 3 18 9 24c6 6 14 9 23 9c9 0 17-3 23-9l-4-7c-2 2-4 4-7 5c-4 2-7 3-11 3c-7 0-13-2-17-7c-5-4-7-10-7-18c0-7 2-13 7-17c4-5 10-7 17-7c7 0 14 2 18 7z"/>
<glyph unicode="&#57372;" d="M107 67l0 376c0 10 8 18 17 18l153 0l130-131l0-263c0-10-7-18-17-18l-266 0c-9 0-17 8-17 18z m170 394l130-131l-113 0c-9 0-17 8-17 17z m-76-350l4-6c-5-6-13-9-23-9c-9 0-17 3-23 9c-6 6-9 13-9 23c0 10 3 18 9 24c6 6 14 9 23 9c9 0 17-3 23-9l-4-7c-2 2-4 4-7 5c-4 2-7 3-11 3c-7 0-13-2-17-7c-5-4-7-10-7-18c0-7 2-13 7-17c4-5 10-7 17-7c7 0 14 2 18 7z m65 41c7-6 10-14 10-24c0-10-3-18-10-23c-6-6-14-9-23-9c-9 0-17 3-23 9c-6 5-9 13-9 23c0 10 3 18 9 24c6 6 14 9 23 9c9 0 17-3 23-9z m-6-42c4 5 7 11 7 18c0 8-3 14-7 18c-5 5-10 7-17 7c-6 0-12-2-16-7c-5-4-7-10-7-18c0-7 2-13 7-18c4-4 10-6 16-6c7 0 12 2 17 6z m87 50l6-63l-9 0l-4 49l0 0l-19-50l-5 0l-20 50l0 0l-4-49l-9 0l6 63l11 0l18-49l0 0l18 49z"/>
<glyph unicode="&#57373;" d="M107 67l0 376c0 10 8 18 17 18l153 0l130-131l0-263c0-10-7-18-17-18l-266 0c-9 0-17 8-17 18z m170 394l130-131l-113 0c-9 0-17 8-17 17z m-115-301l0-63l-8 0l0 63z m49 0l0-8l-26 0l0-21l25 0l0-7l-25 0l0-27l-9 0l0 63z m62-8c7-6 10-14 10-24c0-10-3-18-10-23c-6-6-14-9-23-9c-9 0-17 3-23 9c-6 5-9 13-9 23c0 10 3 18 9 24c6 6 14 9 23 9c9 0 17-3 23-9z m-6-42c5 5 7 11 7 18c0 8-2 14-7 18c-5 5-10 7-17 7c-6 0-12-2-16-7c-5-4-7-10-7-18c0-7 2-13 7-18c4-4 10-6 16-6c7 0 12 2 17 6z"/>
<glyph unicode="&#57374;" d="M107 67l0 376c0 10 8 18 17 18l153 0l130-131l0-263c0-10-7-18-17-18l-266 0c-9 0-17 8-17 18z m170 394l130-131l-113 0c-9 0-17 8-17 17z m-62-301l6-63l-9 0l-4 49l-1 0l-19-50l-5 0l-19 50l0 0l-4-49l-9 0l5 63l11 0l19-49l0 0l18 49z m56-18c0-6-2-10-7-14c-3-3-8-4-15-4l-9 0l0-27l-8 0l0 63l17 0c7 0 12-2 15-5c5-3 7-8 7-13z m-13-9c2 2 3 5 3 9c0 3-1 6-3 8c-3 2-6 3-9 3l-9 0l0-22l9 0c3 0 6 1 9 2z m67-15l0-8l-9 0l0-13l-9 0l0 13l-32 0l0 7l31 43l10 0l0-42z m-41 0l23 0l0 32z"/>
<glyph unicode="&#57375;" d="M107 67l0 376c0 10 8 18 17 18l153 0l130-131l0-263c0-10-7-18-17-18l-266 0c-9 0-17 8-17 18z m170 394l130-131l-113 0c-9 0-17 8-17 17z m-82-347c0-5-3-10-7-13c-4-3-10-5-16-5c-8 0-15 3-21 10l5 6c1-1 2-2 3-3c1-1 3-2 5-4c3-1 5-2 8-2c4 0 7 1 10 3c3 2 4 5 4 9c0 3-1 6-4 8c-2 2-5 3-9 3l-5 0l0 7l5 0c3 0 6 1 8 3c2 2 3 4 3 7c0 4-1 6-3 8c-3 2-5 3-9 3c-5 0-10-3-15-8l-4 6c2 2 5 5 8 6c3 2 7 3 12 3c5 0 10-2 14-5c4-3 6-7 6-12c0-4-1-7-3-9c-3-3-5-4-8-5l0 0c3-1 6-2 9-5c2-3 4-6 4-11z m67 16l0-24c-6-7-15-10-26-10c-9 0-17 3-23 9c-6 6-9 14-9 23c0 10 3 18 9 24c6 6 13 9 23 9c10 0 18-4 25-11l0 0l-6-6c-5 6-12 9-19 9c-7 0-13-2-17-7c-4-4-6-10-6-18c0-7 2-13 6-18c5-4 10-7 17-7c8 0 13 2 17 5l1 1l0 14l-17 0l0 7z m52 12c0-6-2-10-6-14c-3-3-8-4-15-4l-9 0l0-27l-9 0l0 63l18 0c7 0 12-2 15-5c4-3 6-8 6-13z m-13-9c3 2 4 5 4 9c0 3-1 6-4 8c-2 2-5 2-9 2l-8 0l0-21l8 0c4 0 7 1 9 2z"/>
<glyph unicode="&#57376;" d="M107 67l0 376c0 10 8 18 17 18l153 0l130-131l0-263c0-10-7-18-17-18l-266 0c-9 0-17 8-17 18z m170 394l130-131l-113 0c-9 0-17 8-17 17z m-99-336l18-28l-10 0l-17 27l-7 0l0-27l-8 0l0 63l17 0c7 0 12-2 16-5c4-3 6-7 6-13c0-5-2-9-5-12c-2-3-6-5-10-5z m5 17c0 4-1 6-4 8c-2 2-5 2-10 2l-7 0l0-21l7 0c5 0 8 1 10 2c3 2 4 5 4 9z m57-38l0-7l-37 0l0 63l37 0l0-8l-28 0l0-19l26 0l0-7l-26 0l0-22z m50 10c0-5-2-10-7-13c-4-4-9-5-15-5c-3 0-5 0-7 1c-3 0-5 1-6 3c-2 1-4 2-5 3c0 1-1 2-3 3l6 6c1-2 4-4 7-6c2-2 5-3 9-3c3 0 6 1 8 3c3 2 4 4 4 8c0 1 0 3-1 4c-1 1-2 2-3 3c-1 1-2 1-3 2c-1 0-2 1-3 1c-5 2-8 3-10 4c-3 1-5 3-7 5c-2 3-4 6-4 11c0 5 2 9 6 12c4 3 9 5 15 5c6 0 12-3 18-9l-5-6c-4 5-9 7-14 7c-3 0-6-1-8-2c-2-2-3-4-3-7c0-1 0-2 1-3c0-1 1-2 2-3c1-1 2-1 2-2c1 0 2-1 3-1l12-5c3-1 5-3 7-5c3-3 4-7 4-11z m35 15l21-32l-11 0l-15 26l-16-26l-11 0l21 32l-19 31l10 0l15-25l14 25l11 0z"/>
<glyph unicode="&#57377;" d="M107 67l0 376c0 10 8 18 17 18l153 0l130-131l0-263c0-10-7-18-17-18l-266 0c-9 0-17 8-17 18z m170 394l130-131l-113 0c-9 0-17 8-17 17z m-62-301l6-63l-9 0l-4 49l-1 0l-19-50l-5 0l-19 50l0 0l-4-49l-9 0l5 63l11 0l19-49l0 0l18 49z m69-8c6-6 9-14 9-24c0-10-3-18-9-23c-7-6-14-9-24-9c-9 0-16 3-23 9c-6 5-9 13-9 23c0 10 3 18 9 24c7 6 14 9 23 9c10 0 17-3 24-9z m-7-42c5 5 7 11 7 18c0 8-2 14-7 18c-4 5-10 7-17 7c-6 0-12-2-16-7c-5-4-7-10-7-18c0-7 2-13 7-18c4-4 10-6 16-6c7 0 13 2 17 6z m64 50l10 0l-24-63l-7 0l-24 63l10 0l18-50z"/>
<glyph unicode="&#57378;" d="M107 67l0 376c0 10 8 18 17 18l153 0l130-131l0-263c0-10-7-18-17-18l-266 0c-9 0-17 8-17 18z m170 394l130-131l-113 0c-9 0-17 8-17 17z m-81-309c7-6 10-14 10-24c0-9-3-17-10-23c-6-6-14-8-23-8l-19 0l0 63l19 0c9 0 17-3 23-8z m1-24c0 8-3 14-8 18c-4 4-9 6-16 6l-11 0l0-48l11 0c7 0 12 2 16 6c5 5 8 11 8 18z m71 24c7-6 10-14 10-24c0-10-3-18-10-23c-6-6-14-9-23-9c-9 0-17 3-23 9c-6 5-9 13-9 23c0 10 3 18 9 24c6 6 14 9 23 9c9 0 17-3 23-9z m-6-42c4 5 7 11 7 18c0 8-3 14-7 18c-5 5-10 7-17 7c-6 0-12-2-17-7c-4-4-6-10-6-18c0-7 2-13 6-18c5-4 11-6 17-6c7 0 12 2 17 6z m74 1l4-6c-6-6-14-9-23-9c-10 0-17 3-23 9c-7 6-10 13-10 23c0 10 3 18 10 24c6 6 13 9 23 9c9 0 16-3 22-9l-4-7c-1 2-4 4-7 5c-3 2-7 3-11 3c-7 0-13-2-17-7c-4-4-6-10-6-18c0-7 2-13 6-17c5-5 10-7 17-7c8 0 14 2 19 7z"/>
<glyph unicode="&#57379;" d="M107 67l0 376c0 10 8 18 17 18l153 0l130-131l0-263c0-10-7-18-17-18l-266 0c-9 0-17 8-17 18z m170 394l130-131l-113 0c-9 0-17 8-17 17z m-97-301l26-63l-10 0l-6 16l-28 0l-6-16l-9 0l25 63z m-15-39l22 0l-11 28z m96-10l4-6c-6-6-14-9-23-9c-10 0-17 3-23 9c-7 6-10 13-10 23c0 10 3 18 10 24c6 6 13 9 23 9c9 0 16-3 22-9l-4-7c-1 2-4 4-7 5c-3 2-7 3-11 3c-7 0-13-2-17-7c-4-4-6-10-6-18c0-7 2-13 6-17c5-5 10-7 17-7c8 0 14 2 19 7z m50-7l0-7l-37 0l0 63l37 0l0-8l-29 0l0-19l27 0l0-7l-27 0l0-22z"/>
<glyph unicode="&#57380;" d="M107 67l0 376c0 10 8 18 17 18l153 0l130-131l0-263c0-10-7-18-17-18l-266 0c-9 0-17 8-17 18z m170 394l130-131l-113 0c-9 0-17 8-17 17z m-85-347c0-5-2-10-6-13c-5-4-10-5-16-5c-2 0-5 0-7 1c-2 0-4 1-6 3c-2 1-3 2-4 3c-1 1-2 2-3 3l5 6c2-2 4-4 7-6c3-2 6-3 9-3c3 0 6 1 9 3c2 2 3 4 3 8c0 1 0 3-1 4c0 1-1 2-3 3c-1 1-2 1-3 2c-1 0-2 1-3 1c-5 2-8 3-10 4c-3 1-5 3-6 5c-3 3-4 6-4 11c0 5 1 9 5 12c4 3 9 5 15 5c7 0 13-3 18-9l-5-6c-4 5-9 7-14 7c-3 0-5-1-8-2c-2-2-3-4-3-7c0-1 1-2 1-3c1-1 1-2 2-3c1-1 2-1 3-2c0 0 1-1 3-1l11-5c3-1 6-3 7-5c3-3 4-7 4-11z m19 46l0-63l-9 0l0 63z m52 0l0-8l-18 0l0-55l-8 0l0 55l-18 0l0 8z"/>
<glyph unicode="&#57381;" d="M107 67l0 376c0 10 8 18 17 18l153 0l130-131l0-263c0-10-7-18-17-18l-266 0c-9 0-17 8-17 18z m170 394l130-131l-113 0c-9 0-17 8-17 17z m-98-332l21-32l-11 0l-16 26l-16-26l-10 0l20 32l-19 31l10 0l15-25l15 25l10 0z m54 31l26-63l-10 0l-7 16l-27 0l-6-16l-9 0l25 63z m-15-39l22 0l-11 28z m73 4l18-28l-11 0l-17 27l-6 0l0-27l-9 0l0 63l18 0c6 0 11-2 15-5c4-3 6-7 6-13c0-5-2-9-4-12c-3-3-7-5-10-5z m5 17c0 4-2 6-4 8c-2 2-6 2-11 2l-6 0l0-21l6 0c5 0 9 1 11 2c2 2 4 5 4 9z"/>
<glyph unicode="&#57382;" d="M107 67l0 376c0 10 8 18 17 18l153 0l130-131l0-263c0-10-7-18-17-18l-266 0c-9 0-17 8-17 18z m170 394l130-131l-113 0c-9 0-17 8-17 17z m-81-309c7-6 10-14 10-24c0-9-3-17-10-23c-6-6-14-8-23-8l-19 0l0 63l19 0c9 0 17-3 23-8z m1-24c0 8-3 14-8 18c-4 4-9 6-16 6l-11 0l0-48l11 0c7 0 12 2 16 6c5 5 8 11 8 18z m80 32l6-63l-9 0l-4 49l0 0l-19-50l-5 0l-20 50l0 0l-4-49l-9 0l6 63l11 0l18-49l0 0l18 49z m72-30l0-24c-6-7-15-10-26-10c-9 0-17 3-23 9c-6 6-9 14-9 23c0 10 3 18 9 24c6 6 13 9 23 9c10 0 18-4 25-11l0 0l-6-6c-5 6-12 9-19 9c-7 0-12-2-17-7c-4-4-6-10-6-18c0-7 2-13 6-18c5-4 10-7 17-7c8 0 13 2 17 5l1 1l0 14l-17 0l0 7z"/>
<glyph unicode="&#57383;" d="M107 67l0 376c0 10 8 18 17 18l153 0l130-131l0-263c0-10-7-18-17-18l-266 0c-9 0-17 8-17 18z m170 394l130-131l-113 0c-9 0-17 8-17 17z m-71-309c6-6 9-14 9-24c0-10-3-18-9-23c-7-6-14-9-23-9c-10 0-17 3-24 9c-6 5-9 13-9 23c0 10 3 18 9 24c7 6 14 9 24 9c9 0 16-3 23-9z m-7-42c5 5 7 11 7 18c0 8-2 14-7 18c-4 5-10 7-16 7c-7 0-13-2-17-7c-5-4-7-10-7-18c0-7 2-13 7-18c4-4 10-6 17-6c6 0 12 2 16 6z m69 42c6-6 10-14 10-24c0-9-4-17-10-23c-6-6-14-8-24-8l-19 0l0 63l19 0c10 0 18-3 24-8z m1-24c0 8-3 14-8 18c-4 4-10 6-17 6l-10 0l0-48l10 0c7 0 13 2 17 6c5 5 8 11 8 18z m54 32l0-8l-26 0l0-21l24 0l0-7l-24 0l0-27l-9 0l0 63z"/>
<glyph unicode="&#57384;" d="M107 67l0 376c0 10 8 18 17 18l153 0l130-131l0-263c0-10-7-18-17-18l-266 0c-9 0-17 8-17 18z m170 394l130-131l-113 0c-9 0-17 8-17 17z m-92-357l0-7l-31 0l0 63l8 0l0-56z m61 56l0-63l-9 0l-36 50c0-6 0-11 0-17l0-33l-9 0l0 63l10 0l35-50c0 5 0 11 0 16l0 34z m35-25l26-38l-11 0l-21 31l-6-6l0-25l-9 0l0 63l9 0l0-27l26 27l10 0z"/>
<glyph unicode="&#57385;" d="M107 67l0 376c0 10 8 18 17 18l153 0l130-131l0-263c0-10-7-18-17-18l-266 0c-9 0-17 8-17 18z m170 394l130-131l-113 0c-9 0-17 8-17 17z m-76-350l4-6c-5-6-13-9-23-9c-9 0-17 3-23 9c-6 6-9 13-9 23c0 10 3 18 9 24c6 6 14 9 23 9c9 0 17-3 23-9l-4-7c-2 2-4 4-7 5c-4 2-7 3-11 3c-7 0-13-2-17-7c-5-4-7-10-7-18c0-7 2-13 7-17c4-5 10-7 17-7c7 0 14 2 18 7z m65 49l0-63l-9 0l0 29l-34 0l0-29l-9 0l0 63l9 0l0-26l34 0l0 26z m75 0l5-63l-8 0l-4 49l-1 0l-19-50l-5 0l-19 50l-1 0l-4-49l-8 0l5 63l11 0l18-49l1 0l18 49z"/>
<glyph unicode="&#57386;" d="M107 67l0 376c0 10 8 18 17 18l153 0l130-131l0-263c0-10-7-18-17-18l-266 0c-9 0-17 8-17 18z m170 394l130-131l-113 0c-9 0-17 8-17 17z m-99-336l18-28l-10 0l-17 27l-7 0l0-27l-8 0l0 63l17 0c7 0 12-2 16-5c4-3 6-7 6-13c0-5-2-9-5-12c-2-3-6-5-10-5z m5 17c0 4-1 6-4 8c-2 2-5 2-10 2l-7 0l0-21l7 0c5 0 8 1 10 2c3 2 4 5 4 9z m88 18l9 0l-18-63l-9 0l-15 51l-15-51l-8 0l-19 63l10 0l13-50l15 50l9 0l14-50z"/>
<glyph unicode="&#57387;" d="M107 67l0 376c0 10 8 18 17 18l153 0l130-131l0-263c0-10-7-18-17-18l-266 0c-9 0-17 8-17 18z m170 394l130-131l-113 0c-9 0-17 8-17 17z m-62-333c0-9-3-17-9-23l7-8l-6-5l-7 8c-5-3-11-4-17-4c-10 0-17 3-24 9c-6 5-9 13-9 23c0 10 3 18 9 24c7 6 14 9 24 9c9 0 16-3 23-9c6-6 9-14 9-24z m-9 0c0 8-2 14-7 18c-4 5-10 7-16 7c-7 0-13-2-17-7c-5-4-7-10-7-18c0-7 2-13 7-18c4-4 10-6 17-6c4 0 8 1 12 3l-6 6l6 5l5-6c4 4 6 10 6 16z m62-13c0-6-2-11-6-14c-4-3-9-4-16-4l-21 0l0 63l17 0c7 0 12-1 15-3c5-3 7-7 7-13c0-3-1-6-3-9c-2-2-4-4-7-5l0 0c5-1 8-3 11-5c2-3 3-6 3-10z m-13 28c0 4-1 6-4 8c-2 1-5 2-9 2l-8 0l0-20l8 0c4 0 7 0 9 2c3 2 4 4 4 8z m4-28c0 4-1 7-4 9c-3 1-6 2-11 2l-10 0l0-22l10 0c5 0 9 1 11 2c3 2 4 5 4 9z m88 45l9 0l-18-63l-8 0l-16 51l-15-51l-8 0l-19 63l10 0l13-50l15 50l9 0l14-50z"/>
<glyph unicode="&#57388;" d="M107 67l0 376c0 10 8 18 17 18l153 0l130-131l0-263c0-10-7-18-17-18l-266 0c-9 0-17 8-17 18z m170 394l130-131l-113 0c-9 0-17 8-17 17z m-92-357l0-7l-31 0l0 63l8 0l0-56z m60 48c6-6 9-14 9-24c0-10-3-18-9-23c-7-6-14-9-24-9c-9 0-16 3-23 9c-6 5-9 13-9 23c0 10 3 18 9 24c7 6 14 9 23 9c10 0 17-3 24-9z m-7-42c5 5 7 11 7 18c0 8-2 14-7 18c-4 5-10 7-17 7c-6 0-12-2-16-7c-5-4-7-10-7-18c0-7 2-13 7-18c4-4 10-6 16-6c7 0 13 2 17 6z m82 20l0-24c-7-7-16-10-27-10c-9 0-17 3-23 9c-6 6-9 14-9 23c0 10 3 18 9 24c6 6 14 9 23 9c10 0 18-4 25-11l0 0l-6-6c-5 6-11 9-19 9c-7 0-12-2-17-7c-4-4-6-10-6-18c0-7 2-13 6-18c5-4 11-7 17-7c8 0 14 2 17 5l1 1l0 14l-17 0l0 7z"/>
<glyph unicode="&#57389;" d="M107 67l0 376c0 10 8 18 17 18l153 0l130-131l0-263c0-10-7-18-17-18l-266 0c-9 0-17 8-17 18z m170 394l130-131l-113 0c-9 0-17 8-17 17z m-76-350l4-6c-5-6-13-9-23-9c-9 0-17 3-23 9c-6 6-9 13-9 23c0 10 3 18 9 24c6 6 14 9 23 9c9 0 17-3 23-9l-4-7c-2 2-4 4-7 5c-4 2-7 3-11 3c-7 0-13-2-17-7c-5-4-7-10-7-18c0-7 2-13 7-17c4-5 10-7 17-7c7 0 14 2 18 7z m52 3c0-5-2-10-7-13c-4-4-9-5-15-5c-3 0-5 0-7 1c-3 0-5 1-7 3c-1 1-3 2-4 3c0 1-1 2-3 3l6 6c1-2 4-4 7-6c2-2 5-3 9-3c3 0 6 1 8 3c3 2 4 4 4 8c0 1 0 3-1 4c-1 1-2 2-3 3c-1 1-3 1-3 2c-1 0-2 1-3 1c-5 2-9 3-10 4c-3 1-5 3-7 5c-2 3-4 6-4 11c0 5 2 9 6 12c4 3 9 5 15 5c6 0 12-3 18-9l-5-6c-4 5-9 7-14 7c-3 0-6-1-8-2c-2-2-3-4-3-7c0-1 0-2 1-3c0-1 1-2 2-3c1-1 2-1 2-2c1 0 2-1 3-1l12-5c3-1 5-3 7-5c3-3 4-7 4-11z m48 46l9 0l-23-63l-8 0l-23 63l10 0l17-50z"/>
<glyph unicode="&#57390;" d="M107 67l0 376c0 10 8 18 17 18l153 0l130-131l0-263c0-10-7-18-17-18l-266 0c-9 0-17 8-17 18z m170 394l130-131l-113 0c-9 0-17 8-17 17z m-81-309c7-6 10-14 10-24c0-9-3-17-10-23c-6-6-14-8-23-8l-19 0l0 63l19 0c9 0 17-3 23-8z m1-24c0 8-3 14-8 18c-4 4-9 6-16 6l-11 0l0-48l11 0c7 0 12 2 16 6c5 5 8 11 8 18z m87 32l10 0l-19-63l-8 0l-15 51l-15-51l-9 0l-18 63l9 0l14-50l14 50l9 0l15-50z m72-30l0-24c-6-7-15-10-26-10c-10 0-17 3-23 9c-6 6-10 14-10 23c0 10 4 18 10 24c6 6 13 9 23 9c10 0 18-4 25-11l0 0l-6-6c-5 6-12 9-19 9c-7 0-13-2-17-7c-4-4-6-10-6-18c0-7 2-13 6-18c5-4 10-7 17-7c8 0 13 2 17 5l1 1l0 14l-17 0l0 7z"/>
<glyph unicode="&#57391;" d="M107 67l0 376c0 10 8 18 17 18l153 0l130-131l0-263c0-10-7-18-17-18l-266 0c-9 0-17 8-17 18z m170 394l130-131l-113 0c-9 0-17 8-17 17z m-81-311l0-53l-8 0l0 25l-28 0l0-25l-8 0l0 53l8 0l0-22l28 0l0 22z m44 0l0-6l-15 0l0-47l-8 0l0 47l-15 0l0 6z m58 0l5-53l-8 0l-3 42l0 0l-17-43l-4 0l-16 43l0 0l-4-42l-7 0l5 53l9 0l15-41l0 0l16 41z m40-47l0-6l-26 0l0 53l8 0l0-47z"/>
<glyph unicode="&#57392;" d="M107 67l0 376c0 10 8 18 17 18l153 0l130-131l0-263c0-10-7-18-17-18l-266 0c-9 0-17 8-17 18z m170 394l130-131l-113 0c-9 0-17 8-17 17z m-76-350l4-6c-5-6-13-9-23-9c-9 0-17 3-23 9c-6 6-9 13-9 23c0 10 3 18 9 24c6 6 14 9 23 9c9 0 17-3 23-9l-4-7c-2 2-4 4-7 5c-4 2-7 3-11 3c-7 0-13-2-17-7c-5-4-7-10-7-18c0-7 2-13 7-17c4-5 10-7 17-7c7 0 14 2 18 7z m52 3c0-5-2-10-7-13c-4-4-9-5-15-5c-3 0-5 0-7 1c-3 0-5 1-7 3c-1 1-3 2-4 3c0 1-1 2-3 3l6 6c1-2 4-4 7-6c2-2 5-3 9-3c3 0 6 1 8 3c3 2 4 4 4 8c0 1 0 3-1 4c-1 1-2 2-3 3c-1 1-3 1-3 2c-1 0-2 1-3 1c-5 2-9 3-10 4c-3 1-5 3-7 5c-2 3-4 6-4 11c0 5 2 9 6 12c4 3 9 5 15 5c6 0 12-3 18-9l-5-6c-4 5-9 7-14 7c-3 0-6-1-8-2c-2-2-3-4-3-7c0-1 0-2 1-3c0-1 1-2 2-3c1-1 2-1 2-2c1 0 2-1 3-1l12-5c3-1 5-3 7-5c3-3 4-7 4-11z m49 0c0-5-3-10-7-13c-4-4-9-5-15-5c-3 0-5 0-8 1c-2 0-4 1-6 3c-2 1-3 2-4 3c-1 1-2 2-3 3l5 6c2-2 4-4 7-6c3-2 6-3 9-3c4 0 7 1 9 3c2 2 4 4 4 8c0 1-1 3-1 4c-1 1-2 2-3 3c-2 1-3 1-3 2c-1 0-2 1-4 1c-4 2-8 3-10 4c-2 1-4 3-6 5c-3 3-4 6-4 11c0 5 2 9 6 12c3 3 8 5 14 5c7 0 13-3 18-9l-4-6c-5 5-9 7-14 7c-3 0-6-1-8-2c-2-2-3-4-3-7c0-1 0-2 1-3c0-1 1-2 2-3c0-1 1-1 2-2c1 0 2-1 3-1l12-5c3-1 5-3 7-5c2-3 4-7 4-11z"/>
<glyph unicode="&#57393;" d="M107 67l0 376c0 10 8 18 17 18l153 0l130-131l0-263c0-10-7-18-17-18l-266 0c-9 0-17 8-17 18z m170 394l130-131l-113 0c-9 0-17 8-17 17z m-76-350l4-6c-5-6-13-9-23-9c-9 0-17 3-23 9c-6 6-9 13-9 23c0 10 3 18 9 24c6 6 14 9 23 9c9 0 17-3 23-9l-4-7c-2 2-4 4-7 5c-4 2-7 3-11 3c-7 0-13-2-17-7c-5-4-7-10-7-18c0-7 2-13 7-17c4-5 10-7 17-7c7 0 14 2 18 7z m40 49l26-63l-10 0l-7 16l-27 0l-6-16l-10 0l26 63z m-15-39l22 0l-11 28z m90 31c7-6 10-14 10-24c0-9-3-17-10-23c-6-6-14-8-23-8l-19 0l0 63l19 0c9 0 17-3 23-8z m1-24c0 8-3 14-8 18c-4 4-9 6-16 6l-11 0l0-48l11 0c7 0 12 2 16 6c5 5 8 11 8 18z"/>
<glyph unicode="&#57394;" d="M107 67l0 376c0 10 8 18 17 18l153 0l130-131l0-263c0-10-7-18-17-18l-266 0c-9 0-17 8-17 18z m170 394l130-131l-113 0c-9 0-17 8-17 17z m-98-332l21-32l-11 0l-16 26l-16-26l-10 0l20 32l-19 31l10 0l15-25l15 25l10 0z m66 31l0-8l-18 0l0-55l-9 0l0 55l-18 0l0 8z m68 0l6-63l-9 0l-4 49l0 0l-19-50l-5 0l-20 50l0 0l-4-49l-9 0l6 63l11 0l18-49l0 0l18 49z"/>
<glyph unicode="&#57395;" d="M107 67l0 376c0 10 8 18 17 18l153 0l130-131l0-263c0-10-7-18-17-18l-266 0c-9 0-17 8-17 18z m170 394l130-131l-113 0c-9 0-17 8-17 17z m-85-347c0-5-2-10-6-13c-4-4-10-5-16-5c-2 0-5 0-7 1c-2 0-4 1-6 3c-2 1-3 2-4 3c-1 1-2 2-3 3l5 6c2-2 4-4 7-6c3-2 6-3 9-3c3 0 6 1 9 3c2 2 3 4 3 8c0 1 0 3-1 4c0 1-1 2-3 3c-1 1-2 1-3 2c-1 0-2 1-3 1c-5 2-8 3-10 4c-3 1-5 3-6 5c-3 3-4 6-4 11c0 5 1 9 5 12c4 3 9 5 15 5c7 0 13-3 18-9l-5-6c-4 5-9 7-14 7c-3 0-5-1-8-2c-2-2-3-4-3-7c0-1 1-2 1-3c1-1 1-2 2-3c1-1 2-1 3-2c0 0 1-1 3-1l11-5c3-1 6-3 7-5c3-3 4-7 4-11z m49 0c0-5-2-10-7-13c-4-4-9-5-15-5c-3 0-5 0-7 1c-3 0-5 1-6 3c-2 1-4 2-5 3c0 1-1 2-2 3l5 6c1-2 4-4 7-6c3-2 6-3 9-3c3 0 6 1 9 3c2 2 3 4 3 8c0 1 0 3-1 4c-1 1-2 2-3 3c-1 1-2 1-3 2c-1 0-2 1-3 1c-5 2-8 3-10 4c-3 1-5 3-7 5c-2 3-4 6-4 11c0 5 2 9 6 12c4 3 9 5 15 5c6 0 13-3 18-9l-5-6c-4 5-9 7-14 7c-3 0-6-1-8-2c-2-2-3-4-3-7c0-1 0-2 1-3c0-1 1-2 2-3c1-1 2-1 2-2c1 0 2-1 3-1l12-5c3-1 5-3 7-5c3-3 4-7 4-11z"/>
<glyph unicode="&#57396;" d="M107 67l0 376c0 10 8 18 17 18l153 0l130-131l0-263c0-10-7-18-17-18l-266 0c-9 0-17 8-17 18z m170 394l130-131l-113 0c-9 0-17 8-17 17z m-84-319c0-6-2-10-6-14c-4-3-9-4-16-4l-9 0l0-27l-8 0l0 63l17 0c7 0 12-2 16-5c4-3 6-8 6-13z m-13-9c2 2 3 5 3 9c0 3-1 6-3 8c-3 2-6 3-9 3l-9 0l0-22l9 0c3 0 6 1 9 2z m70 27l0-38c0-4-1-8-1-11c-1-3-2-5-4-8c-5-5-11-7-19-7c-9 0-15 2-19 7c-2 3-4 5-4 8c-1 3-1 7-1 11l0 38l9 0l0-37c0-2 0-4 0-5c0-1 0-3 0-5c1-1 2-3 2-4c3-4 7-5 13-5c5 0 9 1 12 5c1 1 1 3 2 4c0 2 0 4 1 5c0 1 0 3 0 5l0 37z m56-45c0-6-2-11-7-14c-3-3-8-4-16-4l-20 0l0 63l17 0c7 0 12-1 15-3c4-3 7-7 7-13c0-3-1-6-3-9c-2-2-4-4-7-5l0 0c4-1 8-3 10-5c3-3 4-6 4-10z m-13 28c0 4-2 6-4 8c-2 1-5 2-9 2l-8 0l0-20l7 0c5 0 8 0 10 2c2 2 4 4 4 8z m4-28c0 4-2 7-5 9c-2 1-6 2-11 2l-9 0l0-22l9 0c6 0 9 1 11 2c3 2 5 5 5 9z"/>
<glyph unicode="&#57397;" d="M107 67l0 376c0 10 8 18 17 18l153 0l130-131l0-263c0-10-7-18-17-18l-266 0c-9 0-17 8-17 18z m170 394l130-131l-113 0c-9 0-17 8-17 17z m-76-350l4-6c-5-6-13-9-23-9c-9 0-17 3-23 9c-6 6-9 13-9 23c0 10 3 18 9 24c6 6 14 9 23 9c9 0 17-3 23-9l-4-7c-2 2-4 4-7 5c-4 2-7 3-11 3c-7 0-13-2-17-7c-5-4-7-10-7-18c0-7 2-13 7-17c4-5 10-7 17-7c7 0 14 2 18 7z m56 4c0-6-2-11-6-14c-4-3-9-4-16-4l-21 0l0 63l17 0c7 0 12-1 15-3c5-3 7-7 7-13c0-3-1-6-3-9c-2-2-4-4-7-5l0 0c5-1 8-3 11-5c2-3 3-6 3-10z m-13 28c0 4-1 6-4 8c-2 1-5 2-9 2l-8 0l0-20l8 0c4 0 7 0 9 2c3 2 4 4 4 8z m4-28c0 4-1 7-4 9c-3 1-6 2-11 2l-10 0l0-22l10 0c5 0 9 1 11 2c3 2 4 5 4 9z m45 10l18-28l-11 0l-17 27l-6 0l0-27l-9 0l0 63l18 0c6 0 11-2 15-5c4-3 6-7 6-13c0-5-1-9-4-12c-3-3-6-5-10-5z m5 17c0 4-2 6-4 8c-2 2-6 2-11 2l-6 0l0-21l6 0c5 0 9 1 11 2c2 2 4 5 4 9z"/>
<glyph unicode="&#57398;" d="M107 67l0 376c0 10 8 18 17 18l153 0l130-131l0-263c0-10-7-18-17-18l-266 0c-9 0-17 8-17 18z m170 394l130-131l-113 0c-9 0-17 8-17 17z m-80-346c0-6-3-11-7-14c-4-3-9-4-16-4l-20 0l0 63l17 0c6 0 11-1 15-3c4-3 6-7 6-13c0-3-1-6-2-9c-2-2-5-4-7-5l0 0c4-1 7-3 10-5c2-3 4-6 4-10z m-14 28c0 4-1 6-4 8c-2 1-5 2-8 2l-9 0l0-20l8 0c4 0 8 0 9 2c3 2 4 4 4 8z m5-28c0 4-2 7-5 9c-2 1-6 2-11 2l-10 0l0-22l10 0c5 0 9 1 11 2c3 2 5 5 5 9z m80 45l6-63l-9 0l-4 49l0 0l-19-50l-5 0l-20 50l0 0l-4-49l-9 0l6 63l11 0l18-49l0 0l18 49z m56-18c0-6-2-10-6-14c-3-3-8-4-15-4l-9 0l0-27l-9 0l0 63l18 0c7 0 12-2 15-5c4-3 6-8 6-13z m-13-9c3 2 4 5 4 9c0 3-1 6-4 8c-2 2-5 3-9 3l-8 0l0-22l8 0c4 0 7 1 9 2z"/>
<glyph unicode="&#57399;" d="M107 67l0 376c0 10 8 18 17 18l153 0l130-131l0-263c0-10-7-18-17-18l-266 0c-9 0-17 8-17 18z m170 394l130-131l-113 0c-9 0-17 8-17 17z m-84-319c0-6-2-10-6-14c-4-3-9-4-16-4l-9 0l0-27l-8 0l0 63l17 0c7 0 12-2 16-5c4-3 6-8 6-13z m-13-9c2 2 3 5 3 9c0 3-1 6-3 8c-3 2-6 3-9 3l-9 0l0-22l9 0c3 0 6 1 9 2z m65 19c6-6 9-14 9-24c0-9-3-17-9-23c-6-6-14-8-24-8l-19 0l0 63l19 0c10 0 18-3 24-8z m0-24c0 8-2 14-7 18c-4 4-10 6-17 6l-10 0l0-48l10 0c7 0 13 2 17 6c5 5 7 11 7 18z m63-13c0-6-2-11-7-14c-3-3-9-4-16-4l-20 0l0 63l17 0c7 0 12-1 15-3c4-3 6-7 6-13c0-3-1-6-2-9c-2-2-4-4-7-5l0 0c4-1 8-3 10-5c3-3 4-6 4-10z m-13 28c0 4-2 6-5 8c-2 1-5 2-8 2l-8 0l0-20l7 0c4 0 8 0 9 2c3 2 5 4 5 8z m4-28c0 4-2 7-5 9c-2 1-6 2-11 2l-9 0l0-22l9 0c5 0 9 1 11 2c3 2 5 5 5 9z"/>
<glyph unicode="&#57400;" d="M107 67l0 376c0 10 8 18 17 18l153 0l130-131l0-263c0-10-7-18-17-18l-266 0c-9 0-17 8-17 18z m170 394l130-131l-113 0c-9 0-17 8-17 17z m-85-347c0-5-2-10-6-13c-5-4-10-5-16-5c-2 0-5 0-7 1c-2 0-4 1-6 3c-2 1-3 2-4 3c-1 1-2 2-3 3l5 6c2-2 4-4 7-6c3-2 6-3 9-3c3 0 6 1 9 3c2 2 3 4 3 8c0 1 0 3-1 4c0 1-1 2-3 3c-1 1-2 1-3 2c-1 0-2 1-3 1c-5 2-8 3-10 4c-3 1-5 3-6 5c-3 3-4 6-4 11c0 5 1 9 5 12c4 3 9 5 15 5c7 0 13-3 18-9l-5-6c-4 5-9 7-14 7c-3 0-5-1-8-2c-2-2-3-4-3-7c0-1 1-2 1-3c1-1 1-2 2-3c1-1 2-1 3-2c0 0 1-1 3-1l11-5c3-1 6-3 7-5c3-3 4-7 4-11z m48-10l0-7l-38 0l0 63l37 0l0-8l-28 0l0-19l27 0l0-7l-27 0l0-22z m49 10c0-5-2-10-6-13c-4-4-9-5-16-5c-2 0-5 0-7 1c-2 0-4 1-6 3c-2 1-3 2-4 3c-1 1-2 2-3 3l5 6c2-2 4-4 7-6c3-2 6-3 9-3c4 0 7 1 9 3c2 2 3 4 3 8c0 1 0 3-1 4c0 1-1 2-3 3c-1 1-2 1-3 2c0 0-1 1-3 1c-5 2-8 3-10 4c-2 1-4 3-6 5c-3 3-4 6-4 11c0 5 2 9 6 12c3 3 8 5 14 5c7 0 13-3 18-9l-5-6c-4 5-8 7-13 7c-4 0-6-1-8-2c-2-2-3-4-3-7c0-1 0-2 0-3c1-1 1-2 2-3c1-1 2-1 3-2c1 0 2-1 3-1l11-5c3-1 6-3 7-5c3-3 4-7 4-11z"/>
<glyph unicode="&#57401;" d="M107 67l0 376c0 10 8 18 17 18l153 0l130-131l0-263c0-10-7-18-17-18l-266 0c-9 0-17 8-17 18z m170 394l130-131l-113 0c-9 0-17 8-17 17z m-71-309c6-6 9-14 9-24c0-10-3-18-9-23c-7-6-14-9-23-9c-10 0-17 3-24 9c-6 5-9 13-9 23c0 10 3 18 9 24c7 6 14 9 24 9c9 0 16-3 23-9z m-7-42c5 5 7 11 7 18c0 8-2 14-7 18c-4 5-10 7-16 7c-7 0-13-2-17-7c-5-4-7-10-7-18c0-7 2-13 7-18c4-4 10-6 17-6c6 0 12 2 16 6z m64 50l0-8l-17 0l0-55l-9 0l0 55l-18 0l0 8z m47-18c0-6-2-10-6-14c-3-3-9-4-15-4l-9 0l0-27l-9 0l0 63l18 0c6 0 12-2 15-5c4-3 6-8 6-13z m-13-9c3 2 4 5 4 9c0 3-1 6-4 8c-2 2-5 3-9 3l-8 0l0-22l8 0c4 0 7 1 9 2z m-246 372l0-32c0-1 1-2 2-2l13 0l11 11l0 23c0 1-1 1-2 1l-22 0c-1 0-2 0-2-1z"/>
<glyph unicode="&#57402;" d="M107 67l0 376c0 10 8 18 17 18l153 0l130-131l0-263c0-10-7-18-17-18l-266 0c-9 0-17 8-17 18z m170 394l130-131l-113 0c-9 0-17 8-17 17z m-71-309c6-6 9-14 9-24c0-10-3-18-9-23c-7-6-14-9-23-9c-10 0-17 3-24 9c-6 5-9 13-9 23c0 10 3 18 9 24c7 6 14 9 24 9c9 0 16-3 23-9z m-7-42c5 5 7 11 7 18c0 8-2 14-7 18c-4 5-10 7-16 7c-7 0-13-2-17-7c-5-4-7-10-7-18c0-7 2-13 7-18c4-4 10-6 17-6c6 0 12 2 16 6z m64 50l0-8l-17 0l0-55l-9 0l0 55l-18 0l0 8z m43 0l0-8l-26 0l0-21l25 0l0-7l-25 0l0-27l-9 0l0 63z"/>
<glyph unicode="&#57403;" d="M107 67l0 376c0 10 8 18 17 18l153 0l130-131l0-263c0-10-7-18-17-18l-266 0c-9 0-17 8-17 18z m170 394l130-131l-113 0c-9 0-17 8-17 17z m-55-301l9 0l-18-63l-9 0l-15 51l-15-51l-9 0l-18 63l9 0l14-50l15 50l9 0l14-50z m55-18c0-6-2-10-6-14c-3-3-8-4-15-4l-9 0l0-27l-9 0l0 63l18 0c7 0 12-2 15-5c4-3 6-8 6-13z m-13-9c3 2 4 5 4 9c0 3-1 6-4 8c-2 2-5 2-9 2l-8 0l0-21l8 0c4 0 7 1 9 2z m61-19c0-5-2-10-6-13c-4-4-9-5-16-5c-2 0-5 0-7 1c-2 0-4 1-6 3c-2 1-3 2-4 3c-1 1-2 2-3 3l5 6c2-2 4-4 7-6c3-2 6-3 9-3c4 0 7 1 9 3c2 2 4 4 4 8c0 1-1 3-1 4c-1 1-2 2-4 3c-1 1-2 1-3 2c0 0-1 1-3 1c-5 2-8 3-10 4c-2 1-4 3-6 5c-3 3-4 6-4 11c0 5 2 9 6 12c3 3 8 5 14 5c7 0 13-3 18-9l-4-6c-5 5-9 7-14 7c-4 0-6-1-8-2c-2-2-3-4-3-7c0-1 0-2 0-3c1-1 2-2 2-3c1-1 2-1 3-2c1 0 2-1 3-1l11-5c3-1 6-3 8-5c2-3 3-7 3-11z"/>
<glyph unicode="&#57404;" d="M107 67l0 376c0 10 8 18 17 18l153 0l130-131l0-263c0-10-7-18-17-18l-266 0c-9 0-17 8-17 18z m170 394l130-131l-113 0c-9 0-17 8-17 17z m-55-301l9 0l-18-63l-9 0l-15 51l-15-51l-9 0l-18 63l9 0l14-50l15 50l9 0l14-50z m55-18c0-6-2-10-6-14c-3-3-8-4-15-4l-9 0l0-27l-9 0l0 63l18 0c7 0 12-2 15-5c4-3 6-8 6-13z m-13-9c3 2 4 5 4 9c0 3-1 6-4 8c-2 2-5 2-9 2l-8 0l0-21l8 0c4 0 7 1 9 2z m65 19c7-6 10-14 10-24c0-9-3-17-10-23c-6-6-13-8-23-8l-19 0l0 63l19 0c10 0 17-3 23-8z m1-24c0 8-2 14-7 18c-4 4-10 6-17 6l-10 0l0-48l10 0c7 0 13 2 17 6c5 5 7 11 7 18z"/>
<glyph unicode="&#57405;" d="M107 67l0 376c0 10 8 18 17 18l153 0l130-131l0-263c0-10-7-18-17-18l-266 0c-9 0-17 8-17 18z m170 394l130-131l-113 0c-9 0-17 8-17 17z m-62-301l6-63l-9 0l-4 49l-1 0l-19-50l-5 0l-19 50l0 0l-4-49l-9 0l5 63l11 0l19-49l0 0l18 49z m56-18c0-6-2-10-7-14c-3-3-8-4-15-4l-9 0l0-27l-8 0l0 63l17 0c7 0 12-2 15-5c5-3 7-8 7-13z m-13-9c2 2 3 5 3 9c0 3-1 6-3 8c-3 2-6 3-9 3l-9 0l0-22l9 0c3 0 6 1 9 2z m67-15l0-8l-9 0l0-13l-9 0l0 13l-32 0l0 7l31 43l10 0l0-42z m-41 0l23 0l0 32z"/>
<glyph unicode="&#57406;" d="M107 67l0 376c0 10 8 18 17 18l153 0l130-131l0-263c0-10-7-18-17-18l-266 0c-9 0-17 8-17 18z m170 394l130-131l-113 0c-9 0-17 8-17 17z m-71-309c6-6 9-14 9-24c0-10-3-18-9-23c-7-6-14-9-23-9c-10 0-17 3-24 9c-6 5-9 13-9 23c0 10 3 18 9 24c7 6 14 9 24 9c9 0 16-3 23-9z m-7-42c5 5 7 11 7 18c0 8-2 14-7 18c-4 5-10 7-16 7c-7 0-13-2-17-7c-5-4-7-10-7-18c0-7 2-13 7-18c4-4 10-6 17-6c6 0 12 2 16 6z m69 42c6-6 10-14 10-24c0-9-4-17-10-23c-6-6-14-8-24-8l-19 0l0 63l19 0c10 0 18-3 24-8z m1-24c0 8-3 14-8 18c-4 4-10 6-17 6l-10 0l0-48l10 0c7 0 13 2 17 6c5 5 8 11 8 18z m80 32l6-63l-9 0l-4 49l0 0l-20-50l-5 0l-19 50l0 0l-4-49l-9 0l6 63l11 0l18-49l0 0l18 49z"/>
</font>
</defs>
</svg>
