<?xml version="1.0" standalone="no"?>
<!DOCTYPE svg PUBLIC "-//W3C//DTD SVG 1.1//EN" "http://www.w3.org/Graphics/SVG/1.1/DTD/svg11.dtd">
<svg xmlns="http://www.w3.org/2000/svg">
<metadata>Generated by Fontastic.me</metadata>
<defs>
<font id="bluelatexicon" horiz-adv-x="512">
<font-face font-family="bluelatexicon" units-per-em="512" ascent="480" descent="-32"/>
<missing-glyph horiz-adv-x="512" />

<glyph glyph-name="close" unicode="&#97;" d="M365 191c0 5-2 10-6 13l-51 52 51 52c4 3 6 8 6 13 0 5-2 9-6 13l-25 25c-4 4-8 6-13 6-5 0-10-2-13-6l-52-51-52 51c-3 4-8 6-13 6-5 0-9-2-13-6l-25-25c-4-4-6-8-6-13 0-5 2-10 6-13l51-52-51-52c-4-3-6-8-6-13 0-5 2-9 6-13l25-25c4-4 8-6 13-6 5 0 10 2 13 6l52 51 52-51c3-4 8-6 13-6 5 0 9 2 13 6l25 25c4 4 6 8 6 13z m110 65c0-40-9-77-29-110-20-34-46-60-80-80-33-20-70-29-110-29-40 0-77 9-110 29-34 20-60 46-80 80-20 33-29 70-29 110 0 40 9 77 29 110 20 34 46 60 80 80 33 20 70 29 110 29 40 0 77-9 110-29 34-20 60-46 80-80 20-33 29-70 29-110z"/>
<glyph glyph-name="folder" unicode="&#99;" d="M440 389l-188 0c-10 12-20 25-23 28-2 6-8 10-14 10l-75 0c-5 0-9-3-13-6l-25-32-30 0c-16 0-28-13-28-28l0-248c0-15 12-28 28-28l368 0c16 0 28 13 28 28l0 248c0 15-12 28-28 28z"/>
<glyph glyph-name="file" unicode="&#98;" d="M110 327l133 0c5 0 9 4 9 9l0 133c0 4-4 8-9 8l-9 0-133-132 0-9c0-5 4-9 9-9z m292 150l-91 0c-4 0-7-2-8-6l0 0 0-187 0 0c0 0 0 0 0 0 0-5-4-9-9-9 0 0 0 0 0 0l0 0-184 0c-5 0-8-4-9-8l0 0 0-224c0-4 4-8 9-8l292 0c5 0 9 4 9 8l0 426c0 4-4 8-9 8z"/>
<glyph glyph-name="settings" unicode="&#100;" d="M453 290l-52 5c-4 12-9 25-15 36l33 41c4 4 4 11 0 15l-32 32c-3 2-5 3-8 3-3 0-5-1-7-3l-41-33c-12 6-24 11-36 15l-5 52c-1 6-6 10-11 10l-46 0c-5 0-10-4-11-10l-5-52c-12-4-24-9-36-15l-41 33c-2 2-4 3-7 3-3 0-5-1-8-3l-32-32c-4-4-4-11 0-15l33-41c-6-11-11-24-15-36l-52-5c-6-1-10-6-10-11l0-46c0-5 4-10 10-11l52-5c4-12 9-24 15-36l-33-41c-4-4-4-11 0-15l32-32c3-2 5-3 8-3 3 0 5 1 7 3l41 33c12-6 24-11 36-15l5-52c1-6 6-10 11-10l46 0c5 0 10 4 11 10l5 52c12 4 24 9 36 15l41-33c2-2 4-3 7-3 3 0 5 1 8 3l32 32c4 4 4 11 0 15l-33 41c6 12 11 24 15 36l52 5c6 1 10 6 10 11l0 46c0 5-4 10-10 11z m-197-95c-34 0-61 27-61 61 0 34 27 61 61 61 34 0 61-27 61-61 0-34-27-61-61-61z"/>
<glyph glyph-name="option" unicode="&#101;" d="M442 392l-20-20-19-19-25-24c-13-1-26 4-36 13-9 10-14 23-13 36l63 64c1 1 1 3 0 4 0 1 0 1-1 1l0 0c0 0 0 0 0 0 0 0 0 0 0 0-14 6-29 10-45 10-61 0-111-50-111-111 0-12 2-23 6-33l-116-116c-39-1-70-32-70-71 0-39 32-71 71-71 39 0 70 31 71 70l116 116c10-4 21-6 33-6 61 0 111 50 111 111 0 16-4 31-10 45 0 0 0 0 0 0 0 0 0 1 0 1l0 0c0 0-1 0-1 0-1 1-3 1-4 0z m-286-266c0-16-14-29-30-29-16 0-29 13-29 29 0 16 13 30 29 30 16 0 30-14 30-30z"/>
<glyph glyph-name="view" unicode="&#103;" d="M475 270c-29 45-65 78-108 101 11-20 17-42 17-65 0-35-13-65-38-90-25-25-55-38-90-38-35 0-65 13-90 38-25 25-38 55-38 90 0 23 6 45 17 65-43-23-79-56-108-101 25-39 57-70 95-94 38-23 79-34 124-34 45 0 86 11 124 34 38 24 70 55 95 94z m-205 109c0 4-2 7-4 10-3 3-6 4-10 4-24 0-44-8-61-25-17-17-26-38-26-62 0-4 1-7 4-9 3-3 6-4 10-4 4 0 7 1 10 4 2 2 4 5 4 9 0 17 5 31 17 42 12 12 26 18 42 18 4 0 7 1 10 4 2 2 4 6 4 9z m242-109c0-7-2-13-6-20-26-44-62-79-107-105-45-27-93-40-143-40-50 0-98 13-143 40-45 26-81 61-107 105-4 7-6 13-6 20 0 6 2 13 6 19 26 44 62 79 107 106 45 26 93 39 143 39 50 0 98-13 143-39 45-27 81-62 107-106 4-6 6-13 6-19z"/>
<glyph glyph-name="prev-page" unicode="&#105;" d="M479 197c0-11-4-19-11-26l-21-22c-8-7-16-10-26-10-11 0-19 3-26 10l-139 139-139-139c-7-7-15-10-26-10-10 0-18 3-25 10l-22 22c-7 7-11 15-11 26 0 10 4 18 11 26l186 186c7 7 16 10 26 10 10 0 19-3 26-10l186-186c7-8 11-16 11-26z"/>
<glyph glyph-name="list" unicode="&#106;" d="M512 160l0-37c0-5-2-9-5-12-4-4-8-6-13-6l-476 0c-5 0-9 2-13 6-3 3-5 7-5 12l0 37c0 5 2 9 5 13 4 3 8 5 13 5l476 0c5 0 9-2 13-5 3-4 5-8 5-13z m0 110l0-37c0-5-2-9-5-13-4-3-8-5-13-5l-476 0c-5 0-9 2-13 5-3 4-5 8-5 13l0 37c0 5 2 9 5 13 4 3 8 5 13 5l476 0c5 0 9-2 13-5 3-4 5-8 5-13z m0 109l0-36c0-5-2-9-5-13-4-4-8-5-13-5l-476 0c-5 0-9 1-13 5-3 4-5 8-5 13l0 36c0 5 2 10 5 13 4 4 8 6 13 6l476 0c5 0 9-2 13-6 3-3 5-8 5-13z m0 110l0-36c0-5-2-10-5-13-4-4-8-6-13-6l-476 0c-5 0-9 2-13 6-3 3-5 8-5 13l0 36c0 5 2 9 5 13 4 4 8 5 13 5l476 0c5 0 9-1 13-5 3-4 5-8 5-13z"/>
<glyph glyph-name="file-1" unicode="&#107;" d="M439 325l0-229c0-8-3-14-8-19-5-6-12-8-20-8l-310 0c-8 0-15 2-20 8-5 5-8 11-8 19l0 384c0 8 3 14 8 19 5 6 12 8 20 8l155 0 0-155c0-8 3-14 8-19 5-6 12-8 19-8z m-1 36l-145 0 0 146c15-3 28-9 37-19l89-89c10-10 16-22 19-38z"/>
<glyph glyph-name="next-page" unicode="&#108;" d="M479 343c0-10-4-19-11-26l-186-186c-7-7-16-11-26-11-10 0-19 4-26 11l-186 186c-7 7-11 16-11 26 0 10 4 19 11 26l21 21c8 7 17 11 26 11 11 0 19-4 26-11l139-139 139 139c7 7 15 11 26 11 9 0 18-4 26-11l21-21c7-8 11-16 11-26z"/>
<glyph glyph-name="folder-close" unicode="&#109;" d="M494 370l0-201c0-17-7-32-19-45-13-13-28-19-45-19l-348 0c-17 0-32 6-45 19-12 13-19 28-19 45l0 274c0 18 7 33 19 46 13 12 28 18 45 18l92 0c17 0 32-6 45-18 12-13 19-28 19-46l0-9 192 0c17 0 32-6 45-19 12-12 19-27 19-45z"/>
<glyph glyph-name="search" unicode="&#110;" d="M347 306c0 36-12 66-37 91-25 25-55 37-91 37-35 0-65-12-90-37-25-25-38-55-38-91 0-35 13-65 38-90 25-25 55-38 90-38 36 0 66 13 91 38 25 25 37 55 37 90z m147-237c0-10-4-19-11-26-7-7-16-11-26-11-10 0-19 4-26 11l-98 98c-34-24-72-36-114-36-27 0-53 5-78 16-25 11-46 25-64 43-18 18-32 39-43 64-10 25-16 51-16 78 0 28 6 54 16 78 11 25 25 47 43 65 18 18 39 32 64 43 25 10 51 15 78 15 28 0 54-5 79-15 24-11 46-25 64-43 18-18 32-40 43-65 10-24 16-50 16-78 0-42-12-80-36-114l98-98c7-7 11-15 11-25z"/>
<glyph glyph-name="down-empty" unicode="&#111;" d="M399 334c0-3-1-5-3-7l-133-133c-2-2-5-3-7-3-2 0-5 1-7 3l-133 133c-2 2-3 4-3 7 0 2 1 4 3 6l15 15c1 1 4 2 6 2 3 0 5-1 7-2l112-113 112 113c2 1 4 2 7 2 2 0 5-1 6-2l15-15c2-2 3-4 3-6z"/>
<glyph glyph-name="folder-open" unicode="&#112;" d="M501 273c0-5-3-11-8-18l-90-105c-7-9-18-17-32-23-14-7-26-10-38-10l-290 0c-6 0-12 1-16 4-5 2-8 6-8 11 0 6 3 12 9 18l89 105c8 10 19 17 32 24 14 6 27 9 39 9l290 0c6 0 11-1 16-3 5-3 7-7 7-12z m-91 92l0-43-222 0c-17 0-34-4-53-13-18-8-33-19-44-31l-89-106-2-2c0 1 0 2 0 4 0 1 0 2 0 3l0 256c0 16 6 30 18 42 11 12 25 18 42 18l85 0c16 0 30-6 42-18 12-12 18-26 18-42l0-8 145 0c16 0 30-6 42-18 12-12 18-26 18-42z"/>
<glyph glyph-name="clone" unicode="&#113;" d="M192 123c0 8-3 15-8 20-5 5-12 8-19 8-8 0-15-3-20-8-5-5-8-12-8-20 0-7 3-14 8-19 5-5 12-8 20-8 7 0 14 3 19 8 5 5 8 12 8 19z m0 330c0 7-3 14-8 19-5 5-12 8-19 8-8 0-15-3-20-8-5-5-8-12-8-19 0-8 3-15 8-20 5-5 12-8 20-8 7 0 14 3 19 8 5 5 8 12 8 20z m183-37c0 8-3 14-8 19-5 6-12 8-20 8-7 0-14-2-19-8-5-5-8-11-8-19 0-8 3-14 8-19 5-6 12-8 19-8 8 0 15 2 20 8 5 5 8 11 8 19z m27 0c0-10-2-19-7-28-5-8-12-15-20-19-1-55-22-95-65-119-13-7-32-15-58-23-24-7-40-14-48-20-8-6-12-16-12-29l0-7c8-5 15-12 20-20 5-8 7-18 7-28 0-15-5-28-16-38-10-11-23-16-38-16-16 0-29 5-39 16-11 10-16 23-16 38 0 10 2 20 7 28 5 8 12 15 20 20l0 234c-8 5-15 12-20 20-5 8-7 18-7 28 0 15 5 28 16 38 10 11 23 16 39 16 15 0 28-5 38-16 11-10 16-23 16-38 0-10-2-20-7-28-5-8-12-15-20-20l0-142c10 5 25 11 44 16 10 4 19 6 25 9 6 2 13 5 20 9 7 3 13 7 17 11 4 4 8 9 12 15 3 5 6 12 8 19 1 8 2 17 2 27-8 4-15 11-20 19-5 9-7 18-7 28 0 15 5 28 16 39 10 11 23 16 38 16 16 0 29-5 39-16 11-11 16-24 16-39z"/>
<glyph glyph-name="down" unicode="&#114;" d="M402 343c0-5-2-9-5-13l-128-128c-4-4-8-5-13-5-5 0-9 1-13 5l-128 128c-3 4-5 8-5 13 0 5 2 9 5 13 4 3 8 5 13 5l256 0c5 0 9-2 13-5 3-4 5-8 5-13z"/>
<glyph glyph-name="add" unicode="&#115;" d="M457 334l0-55c0-8-3-14-8-20-5-5-12-8-19-8l-119 0 0-118c0-8-3-15-8-20-5-5-12-8-20-8l-54 0c-8 0-15 3-20 8-5 5-8 12-8 20l0 118-119 0c-7 0-14 3-19 8-5 6-8 12-8 20l0 55c0 7 3 14 8 19 5 5 12 8 19 8l119 0 0 119c0 8 3 14 8 19 5 6 12 8 20 8l54 0c8 0 15-2 20-8 5-5 8-11 8-19l0-119 119 0c7 0 14-3 19-8 5-5 8-12 8-19z"/>
<glyph glyph-name="exclamation" unicode="&#116;" d="M311 187l0-64c0-5-2-9-6-12-3-4-7-6-12-6l-74 0c-5 0-9 2-12 6-4 3-6 7-6 12l0 64c0 5 2 10 6 13 3 4 7 6 12 6l74 0c5 0 9-2 12-6 4-3 6-8 6-13z m8 302l-8-219c0-5-2-10-5-13-4-4-8-6-13-6l-74 0c-5 0-9 2-13 6-3 3-5 8-5 13l-8 219c-1 5 1 9 5 13 3 4 7 5 12 5l92 0c5 0 9-1 12-5 4-4 6-8 5-13z"/>
<glyph glyph-name="bug" unicode="&#117;" d="M485 270c0-5-2-10-6-13-3-4-8-6-13-6l-64 0c0-32-6-60-19-82l60-60c3-4 5-8 5-13 0-5-2-9-5-13-4-3-8-5-13-5-5 0-10 2-13 5l-57 56c-1-1-2-2-4-3-2-2-6-5-12-8-6-4-12-8-19-11-6-3-14-6-23-8-9-3-19-4-28-4l0 256-36 0 0-256c-10 0-20 1-29 4-10 3-18 6-25 9-7 4-13 8-19 12-6 3-10 6-12 9l-5 4-52-59c-4-4-8-6-14-6-4 0-8 1-12 4-4 4-6 8-6 13 0 5 1 9 5 13l57 65c-11 22-16 48-16 78l-64 0c-5 0-10 2-13 6-4 3-6 8-6 13 0 5 2 9 6 13 3 3 8 5 13 5l64 0 0 84-50 49c-3 4-5 8-5 13 0 5 2 10 5 13 4 4 8 6 13 6 5 0 9-2 13-6l49-49 242 0 49 49c4 4 8 6 13 6 5 0 9-2 13-6 3-3 5-8 5-13 0-5-2-9-5-13l-50-49 0-84 64 0c5 0 10-2 13-5 4-4 6-8 6-13z m-138 164l-182 0c0 26 8 47 26 65 18 18 40 27 65 27 25 0 47-9 65-27 18-18 26-39 26-65z"/>
<glyph glyph-name="delete" unicode="&#118;" d="M201 334l0-165c0-3-1-5-2-6-2-2-4-3-7-3l-18 0c-3 0-5 1-7 3-2 1-2 3-2 6l0 165c0 2 0 5 2 6 2 2 4 3 7 3l18 0c3 0 5-1 7-3 1-1 2-4 2-6z m73 0l0-165c0-3-1-5-2-6-2-2-4-3-7-3l-18 0c-3 0-5 1-7 3-1 1-2 3-2 6l0 165c0 2 1 5 2 6 2 2 4 3 7 3l18 0c3 0 5-1 7-3 1-1 2-4 2-6z m73 0l0-165c0-3 0-5-2-6-2-2-4-3-7-3l-18 0c-3 0-5 1-7 3-1 1-2 3-2 6l0 165c0 2 1 5 2 6 2 2 4 3 7 3l18 0c3 0 5-1 7-3 2-1 2-4 2-6z m37-207l0 271-256 0 0-271c0-4 1-8 2-12 1-3 3-6 4-7 2-2 3-3 3-3l238 0c0 0 1 1 3 3 1 1 3 4 4 7 1 4 2 8 2 12z m-192 307l128 0-14 34c-1 1-3 2-5 3l-90 0c-2-1-4-2-5-3z m265-9l0-18c0-3-1-5-2-7-2-1-4-2-7-2l-27 0 0-271c0-16-5-30-14-41-9-12-20-17-32-17l-238 0c-12 0-23 5-32 16-9 11-14 25-14 41l0 272-27 0c-3 0-5 1-7 2-1 2-2 4-2 7l0 18c0 3 1 5 2 7 2 1 4 2 7 2l88 0 20 48c3 7 8 13 16 18 7 5 15 7 22 7l92 0c7 0 15-2 22-7 8-5 13-11 16-18l20-48 88 0c3 0 5-1 7-2 1-2 2-4 2-7z"/>
<glyph glyph-name="menu" unicode="&#119;" d="M475 160l0-37c0-5-1-9-5-12-4-4-8-6-13-6l-402 0c-5 0-9 2-13 6-4 3-5 7-5 12l0 37c0 5 1 9 5 13 4 3 8 5 13 5l402 0c5 0 9-2 13-5 4-4 5-8 5-13z m0 146l0-36c0-5-1-10-5-13-4-4-8-6-13-6l-402 0c-5 0-9 2-13 6-4 3-5 8-5 13l0 36c0 5 1 10 5 13 4 4 8 6 13 6l402 0c5 0 9-2 13-6 4-3 5-8 5-13z m0 147l0-37c0-5-1-9-5-13-4-3-8-5-13-5l-402 0c-5 0-9 2-13 5-4 4-5 8-5 13l0 37c0 5 1 9 5 12 4 4 8 6 13 6l402 0c5 0 9-2 13-6 4-3 5-7 5-12z"/>
<glyph glyph-name="up" unicode="&#120;" d="M402 197c0-5-2-10-5-13-4-4-8-6-13-6l-256 0c-5 0-9 2-13 6-3 3-5 8-5 13 0 5 2 9 5 12l128 128c4 4 8 6 13 6 5 0 9-2 13-6l128-128c3-3 5-7 5-12z"/>
<glyph glyph-name="left-empty" unicode="&#121;" d="M344 389c0-3-1-5-3-7l-112-112 112-113c2-1 3-4 3-6 0-3-1-5-3-7l-14-14c-2-2-5-3-7-3-2 0-5 1-7 3l-133 133c-2 2-3 4-3 7 0 2 1 4 3 6l133 133c2 2 5 3 7 3 2 0 5-1 7-3l14-14c2-2 3-4 3-6z"/>
<glyph glyph-name="right-empty" unicode="&#122;" d="M335 270c0-3-1-5-3-7l-133-133c-2-2-5-3-7-3-2 0-5 1-7 3l-14 14c-2 2-3 4-3 7 0 2 1 5 3 6l112 113-112 112c-2 2-3 4-3 7 0 2 1 4 3 6l14 14c2 2 5 3 7 3 2 0 5-1 7-3l133-133c2-2 3-4 3-6z"/>
<glyph glyph-name="vignette" unicode="&#65;" d="M146 187l0-54c0-8-2-15-8-20-5-5-12-8-19-8l-92 0c-7 0-14 3-19 8-5 5-8 12-8 20l0 54c0 8 3 15 8 20 5 5 12 8 19 8l92 0c7 0 14-3 19-8 6-5 8-12 8-20z m0 147l0-55c0-8-2-14-8-20-5-5-12-8-19-8l-92 0c-7 0-14 3-19 8-5 6-8 12-8 20l0 55c0 7 3 14 8 19 5 5 12 8 19 8l92 0c7 0 14-3 19-8 6-5 8-12 8-19z m183-147l0-54c0-8-3-15-8-20-5-5-12-8-19-8l-92 0c-7 0-14 3-19 8-5 5-8 12-8 20l0 54c0 8 3 15 8 20 5 5 12 8 19 8l92 0c7 0 14-3 19-8 5-5 8-12 8-20z m-183 293l0-55c0-7-2-14-8-19-5-6-12-8-19-8l-92 0c-7 0-14 2-19 8-5 5-8 12-8 19l0 55c0 8 3 14 8 19 5 6 12 8 19 8l92 0c7 0 14-2 19-8 6-5 8-11 8-19z m183-146l0-55c0-8-3-14-8-20-5-5-12-8-19-8l-92 0c-7 0-14 3-19 8-5 6-8 12-8 20l0 55c0 7 3 14 8 19 5 5 12 8 19 8l92 0c7 0 14-3 19-8 5-5 8-12 8-19z m183-147l0-54c0-8-3-15-8-20-5-5-12-8-19-8l-92 0c-7 0-14 3-19 8-6 5-8 12-8 20l0 54c0 8 2 15 8 20 5 5 12 8 19 8l92 0c7 0 14-3 19-8 5-5 8-12 8-20z m-183 293l0-55c0-7-3-14-8-19-5-6-12-8-19-8l-92 0c-7 0-14 2-19 8-5 5-8 12-8 19l0 55c0 8 3 14 8 19 5 6 12 8 19 8l92 0c7 0 14-2 19-8 5-5 8-11 8-19z m183-146l0-55c0-8-3-14-8-20-5-5-12-8-19-8l-92 0c-7 0-14 3-19 8-6 6-8 12-8 20l0 55c0 7 2 14 8 19 5 5 12 8 19 8l92 0c7 0 14-3 19-8 5-5 8-12 8-19z m0 146l0-55c0-7-3-14-8-19-5-6-12-8-19-8l-92 0c-7 0-14 2-19 8-6 5-8 12-8 19l0 55c0 8 2 14 8 19 5 6 12 8 19 8l92 0c7 0 14-2 19-8 5-5 8-11 8-19z"/>
<glyph glyph-name="download" unicode="&#66;" d="M288 352l-64 0 0-160-64 0 96-128 96 128-64 0z m160 14l0 2c0 80-64 144-144 144-53 0-100-29-124-73-11 6-23 9-36 9-44 0-80-36-80-80l0-2c-38-22-64-63-64-110 0-70 58-128 128-128l0 32c-53 0-96 43-96 96 0 34 18 65 48 83l16 9 0 22c1 25 22 46 48 46 7 0 14-2 21-5l27-14 15 26c21 36 57 57 97 57 61 0 111-49 112-110l0-22 16-9c30-18 48-49 48-83 0-53-43-96-96-96l0-32c70 0 128 58 128 128 0 47-26 88-64 110"/>
</font>
</defs>
</svg>
